<?xml version="1.0" standalone="no"?>
<!DOCTYPE svg PUBLIC "-//W3C//DTD SVG 1.1//EN" "http://www.w3.org/Graphics/SVG/1.1/DTD/svg11.dtd" >
<svg xmlns="http://www.w3.org/2000/svg">
<metadata>
This is a custom SVG webfont generated by Font Squirrel.
Copyright   : Copyright 2000 by URW Design  Development
Foundry     : URW Design  Development
</metadata>
<defs>
<font id="AndENBold" horiz-adv-x="1400" >
<font-face units-per-em="2048" ascent="1536" descent="-512" />
<missing-glyph horiz-adv-x="522" />
<glyph unicode=" "  horiz-adv-x="522" />
<glyph unicode="&#x09;" horiz-adv-x="522" />
<glyph unicode="&#xa0;" horiz-adv-x="522" />
<glyph unicode="!" horiz-adv-x="647" d="M217 0v283h291v-283h-291zM217 1001v414h291v-414l-80 -600h-131z" />
<glyph unicode="&#x22;" horiz-adv-x="919" d="M96 1163v252h269v-252l-82 -252h-109zM555 1163v252h268v-252l-82 -252h-108z" />
<glyph unicode="#" horiz-adv-x="1079" d="M6 334v192h189l57 297h-193v193h232l65 338h205l-65 -338h198l68 338h203l-66 -338h174v-193h-211l-61 -297h194v-192h-231l-76 -395h-205l78 395h-201l-77 -395h-205l78 395h-150zM397 526h201l57 297h-198z" />
<glyph unicode="$" horiz-adv-x="1122" d="M49 395v19h262q10 -211 181 -242v424q-408 96 -408 426q0 168 107.5 271.5t300.5 121.5v109h135v-109q188 -10 298.5 -122.5t112.5 -299.5h-256q4 92 -38 151.5t-117 69.5v-401q231 -66 331.5 -163t100.5 -261q0 -111 -46 -204t-126 -146q-104 -66 -260 -80v-211h-135 v211q-162 14 -271 90q-172 125 -172 346zM330 1030q0 -125 162 -178v362q-162 -32 -162 -184zM627 172q168 39 168 193q0 147 -168 198v-391z" />
<glyph unicode="%" horiz-adv-x="1773" d="M43 1036.5q0 149.5 108.5 256t260.5 106.5q154 0 260 -106.5t106 -260.5q0 -147 -108.5 -253.5t-257.5 -106.5q-152 0 -260.5 107.5t-108.5 257zM242 1036q0 -70 50 -119t119.5 -49t120 49.5t50.5 116.5q0 70 -49.5 119t-120.5 49q-70 0 -120 -49t-50 -117zM420 -39 l790 1454h152l-789 -1454h-153zM987 340q0 150 108.5 256t260.5 106q154 0 260 -106.5t106 -261.5q0 -147 -108.5 -254t-257.5 -107q-152 0 -260.5 107.5t-108.5 259.5zM1186 338q0 -70 50 -119t119.5 -49t120 49t50.5 117q0 70 -50.5 120t-120 50t-119.5 -49t-50 -119z" />
<glyph unicode="&#x26;" horiz-adv-x="1441" d="M111 385q0 141 68.5 232.5t244.5 183.5q-12 16 -25 28q-37 43 -55 70q-84 96 -84 211q0 139 108.5 236.5t268.5 97.5t257 -85t97 -224q0 -111 -50 -187t-183 -166l231 -286q61 115 62 229v20h225v-32q-4 -115 -41 -225.5t-96 -180.5l245 -307h-321l-90 113 q-121 -90 -204 -124t-185 -34q-213 0 -343 117.5t-130 312.5zM375 420q0 -90 65.5 -162t147.5 -72q98 0 237 109l-270 342l-94 -57q-86 -60 -86 -160zM522 1130q0 -39 17.5 -68.5t93.5 -123.5q119 68 119 172q0 115 -113 115q-51 0 -84 -27t-33 -68z" />
<glyph unicode="'" horiz-adv-x="462" d="M96 1163v252h269v-252l-82 -252h-109z" />
<glyph unicode="(" horiz-adv-x="647" d="M78 514q0 223 74.5 437t240.5 464h195q-154 -295 -212.5 -490.5t-58.5 -410.5q0 -213 58.5 -407.5t212.5 -495.5h-195q-166 252 -240.5 465t-74.5 438z" />
<glyph unicode=")" horiz-adv-x="647" d="M43 -389q154 299 213 494.5t59 406.5q0 213 -58 407.5t-214 495.5h195q166 -252 240.5 -465t74.5 -438q0 -223 -75 -437t-240 -464h-195z" />
<glyph unicode="*" horiz-adv-x="755" d="M45 1126l43 134l211 -70v225h139v-225l213 70l41 -136l-211 -67l131 -183l-112 -83l-131 182l-129 -182l-113 83l129 183z" />
<glyph unicode="+" horiz-adv-x="1134" d="M96 334v231h355v353h231v-353h352v-231h-352v-352h-231v352h-355z" />
<glyph unicode="," horiz-adv-x="540" d="M125 0v283h291v-265q0 -113 -22.5 -175t-82.5 -109q-74 -57 -186 -72v109q166 35 166 223v6h-166z" />
<glyph unicode="-" horiz-adv-x="647" d="M51 401v263h527v-263h-527z" />
<glyph unicode="." horiz-adv-x="540" d="M125 0v283h291v-283h-291z" />
<glyph unicode="/" horiz-adv-x="540" d="M4 -27l399 1469h132l-402 -1469h-129z" />
<glyph unicode="0" horiz-adv-x="1122" d="M63 698q0 401 121 566q135 182 367 182q258 0 387 -211q100 -162 100 -545q0 -391 -120 -555q-131 -180 -367 -180q-256 0 -387 209q-101 165 -101 534zM344 700q0 -301 43 -397q53 -109 164 -108q121 0 172 129q35 94 35 372q0 319 -43 410q-53 113 -164 113 q-121 0 -172 -134q-35 -109 -35 -385z" />
<glyph unicode="1" horiz-adv-x="1122" d="M188 965v245q266 111 367 205h270v-1415h-299v1133q-43 -45 -145.5 -97.5t-192.5 -70.5z" />
<glyph unicode="2" horiz-adv-x="1122" d="M63 0v233q414 336 573 515.5t159 306.5q0 84 -56.5 135t-142.5 51q-182 0 -184 -215h-310q0 123 43 203q117 215 457 215q219 0 354.5 -106.5t135.5 -280.5q0 -127 -76 -251t-256 -292q-158 -147 -361 -299h744v-215h-1080z" />
<glyph unicode="3" horiz-adv-x="1122" d="M63 416h273q12 -221 211 -221q92 0 150.5 59t58.5 154q0 78 -42 134t-112 76q-55 14 -164 15v188h25q248 0 248 213q0 88 -46.5 136.5t-129.5 48.5q-129 0 -173 -99q-18 -53 -20 -149h-260v22q0 190 82 293q125 160 377 160q205 0 326.5 -104.5t121.5 -280.5 q0 -98 -43 -170t-141 -133q121 -59 176 -142.5t55 -207.5q0 -207 -135 -330t-360 -123q-217 0 -346.5 124t-131.5 337z" />
<glyph unicode="4" horiz-adv-x="1122" d="M33 322v223l540 870h363v-876h156v-217h-156v-322h-299v322h-604zM268 539h379v614z" />
<glyph unicode="5" horiz-adv-x="1122" d="M68 371h307q8 -92 56 -144.5t126 -52.5q92 0 146.5 77t54.5 212q0 131 -50.5 202.5t-142.5 71.5q-150 0 -178 -174h-295l33 852h844v-215h-578l-18 -395q100 135 284 135q178 0 290 -125t112 -321q0 -229 -145.5 -376t-374.5 -147q-137 0 -249 55.5t-173 153.5 q-49 76 -49 191z" />
<glyph unicode="6" horiz-adv-x="1122" d="M70 672q0 358 118 553q133 221 406 221q238 0 356 -162q49 -72 68 -190h-260q-27 68 -67 96.5t-105 28.5q-84 0 -141.5 -53.5t-77.5 -149.5q-10 -59 -17 -209q119 125 281 125q182 0 296.5 -127t114.5 -332q0 -231 -131 -374.5t-342 -143.5q-125 0 -230.5 55.5 t-166.5 153.5q-102 162 -102 508zM346 449q0 -113 60.5 -183.5t154.5 -70.5q92 0 153.5 73.5t61.5 186.5q0 117 -58.5 187.5t-154.5 70.5t-156.5 -73.5t-60.5 -190.5z" />
<glyph unicode="7" horiz-adv-x="1122" d="M57 1200v215h1028v-190l-503 -1225h-340l530 1200h-715z" />
<glyph unicode="8" horiz-adv-x="1122" d="M49 408q0 125 55.5 211t176.5 151q-182 96 -183 291q0 168 128 276.5t327 108.5q197 0 325 -108.5t128 -276.5q0 -145 -93 -232q-25 -23 -90 -59q123 -66 177.5 -150.5t54.5 -211.5q0 -201 -140.5 -327t-361.5 -126q-223 0 -363.5 126t-140.5 327zM330 423.5 q0 -106.5 59.5 -167.5t161.5 -61t162.5 61t60.5 164q0 111 -60.5 175t-162.5 64q-100 0 -160.5 -64.5t-60.5 -171zM344 1036q0 -82 59.5 -135t151.5 -53q90 0 149.5 52t59.5 134t-58.5 133.5t-150.5 51.5q-94 0 -152.5 -51.5t-58.5 -131.5z" />
<glyph unicode="9" horiz-adv-x="1122" d="M61 946q0 221 133.5 360.5t344.5 139.5q262 0 399 -232q98 -166 98 -475q0 -367 -118 -567q-129 -219 -402 -219q-182 0 -306 107.5t-128 269.5h270q4 -63 51.5 -100t118.5 -37q233 0 234 401q-61 -70 -86 -86q-74 -53 -185 -53q-188 0 -306 136t-118 355zM328 950 q0 -121 56 -192.5t151 -71.5q96 0 156.5 71.5t60.5 188.5q0 125 -59.5 199t-162.5 74q-92 0 -147 -73t-55 -196z" />
<glyph unicode=":" horiz-adv-x="647" d="M219 0v283h291v-283h-291zM219 727v283h291v-283h-291z" />
<glyph unicode=";" horiz-adv-x="647" d="M219 0v283h291v-265q0 -113 -22.5 -175t-81.5 -109q-72 -57 -187 -72v109q86 18 127 71.5t41 151.5v6h-168zM219 727v283h291v-283h-291z" />
<glyph unicode="&#x3c;" horiz-adv-x="1134" d="M78 334v235l948 351v-211l-741 -258l741 -254v-215z" />
<glyph unicode="=" horiz-adv-x="1134" d="M96 100v232h940v-232h-940zM96 567v232h940v-232h-940z" />
<glyph unicode="&#x3e;" horiz-adv-x="1134" d="M78 -18v211l741 258l-741 254v215l948 -353v-235z" />
<glyph unicode="?" horiz-adv-x="1185" d="M125 934q2 219 90 338q125 172 381 172q213 0 348 -124t135 -323q0 -121 -49 -200.5t-184 -175.5q-88 -59 -108.5 -96.5t-20.5 -133.5h-242q-4 123 37 204t156 179q86 70 111.5 111t25.5 106q0 96 -57.5 159.5t-145.5 63.5q-96 0 -157.5 -78.5t-55.5 -197.5v-4h-264z M457 0v283h291v-283h-291z" />
<glyph unicode="@" horiz-adv-x="1892" d="M53 512q0 168 75 345t202 310q268 279 671 279q369 0 621 -242q217 -211 217 -516q0 -233 -160 -416q-147 -164 -325 -163q-96 0 -174 51q-49 35 -70 94q-123 -145 -291 -145q-133 0 -225 97t-92 234q0 213 143 389q63 82 158.5 129.5t193.5 47.5q156 0 222 -140l30 121 h176l-151 -545q-16 -57 -17 -82q0 -43 26 -68.5t71 -25.5q111 0 213 140q98 139 98 313q0 229 -190 399q-199 178 -484 178q-338 0 -551 -243q-199 -231 -198 -537q0 -297 227 -475q207 -158 475 -158q225 0 402 80l53 -141q-193 -90 -459 -90q-358 0 -594 184 q-139 109 -216 265.5t-77 330.5zM688 473q0 -88 50 -147.5t124 -59.5q94 0 170 90q53 63 88 151.5t35 162.5q0 92 -44 145t-120 53q-115 0 -209 -122.5t-94 -272.5z" />
<glyph unicode="A" d="M51 0l502 1415h321l490 -1415h-299l-92 285h-531l-94 -285h-297zM524 528h369l-184 553z" />
<glyph unicode="B" d="M160 0v1415h631q213 0 333 -102q127 -111 127 -271q0 -90 -44 -157.5t-148 -132.5q233 -139 233 -344q0 -86 -37.5 -169t-101.5 -137q-123 -102 -356 -102h-637zM451 242h348q215 0 215 184t-215 184h-348v-368zM451 852h315q207 0 207 160q0 162 -207 162h-315v-322z " />
<glyph unicode="C" horiz-adv-x="1447" d="M115 688q0 362 184 569q168 186 471 187q174 0 308 -63.5t204 -178.5q53 -88 59 -227h-321q-6 123 -70.5 190.5t-173.5 67.5q-166 0 -255 -139.5t-89 -403.5q0 -246 85 -378t241 -132q113 0 182.5 68.5t83.5 197.5h332q-16 -217 -176 -346t-412 -129q-305 0 -479 190.5 t-174 526.5z" />
<glyph unicode="D" d="M150 0v1415h552q311 0 447 -164q172 -203 172 -542q0 -342 -172 -543q-137 -166 -447 -166h-552zM440 242h262q328 0 328 465q0 467 -328 467h-262v-932z" />
<glyph unicode="E" horiz-adv-x="1294" d="M154 0v1415h1022v-241h-732v-322h678v-242h-678v-368h766v-242h-1056z" />
<glyph unicode="F" horiz-adv-x="1185" d="M143 0v1415h994v-241h-703v-322h621v-242h-621v-610h-291z" />
<glyph unicode="G" horiz-adv-x="1523" d="M109 688q0 352 187 554t515 202q184 0 323.5 -61.5t206.5 -172.5q53 -92 54 -235h-322q-14 104 -47 155q-59 102 -221 103q-182 0 -280.5 -138.5t-98.5 -394.5t104.5 -388t305.5 -132q100 0 241 33v324h-303v213h608v-701q-309 -78 -544 -78q-328 0 -500 142 q-229 186 -229 575z" />
<glyph unicode="H" d="M131 0v1415h293v-530h559v530h293v-1415h-291v643h-561v-643h-293z" />
<glyph unicode="I" horiz-adv-x="540" d="M123 0v1415h291v-1415h-291z" />
<glyph unicode="J" horiz-adv-x="1079" d="M47 385v139h291v-135q0 -98 37 -141t121 -43q156 0 155 164v1046h293v-1046q0 -199 -118.5 -306.5t-336.5 -107.5q-201 0 -323 113q-119 110 -119 317z" />
<glyph unicode="K" d="M143 0v1415h291v-620l553 620h344l-565 -610l627 -805h-349l-464 625l-146 -152v-473h-291z" />
<glyph unicode="L" horiz-adv-x="1185" d="M156 0v1415h290v-1173h678v-242h-968z" />
<glyph unicode="M" horiz-adv-x="1617" d="M129 0v1415h434l256 -1126l248 1126h440v-1415h-293v1102l-249 -1102h-291l-254 1102v-1102h-291z" />
<glyph unicode="N" d="M131 0v1415h299l561 -962v962h293v-1415h-293l-567 979v-979h-293z" />
<glyph unicode="O" horiz-adv-x="1560" d="M113 719q0 336 180 530.5t495 194.5q309 0 481.5 -197.5t172.5 -548.5q0 -326 -158 -514q-82 -100 -215 -156.5t-291 -56.5q-315 0 -490 198t-175 550zM430 721q0 -258 92 -410q82 -131 262 -131q168 0 255 133t87 392q0 262 -87 396t-255 134q-166 0 -260 -136t-94 -378 z" />
<glyph unicode="P" horiz-adv-x="1294" d="M147 0v1415h625q221 0 339 -112.5t118 -325.5q0 -217 -117 -345t-311 -128h-363v-504h-291zM438 748h273q227 0 227 210q0 215 -227 216h-273v-426z" />
<glyph unicode="Q" horiz-adv-x="1597" d="M119 688q0 348 184 552t498 204q295 0 469 -190.5t174 -510.5q0 -270 -115 -434q-43 -59 -123 -131q127 39 318 39q23 0 47 -6v-211q-86 4 -174 4q-256 0 -484 -22q-92 -10 -139 -11q-299 0 -477 194.5t-178 522.5zM436 713q0 -309 133 -447q84 -84 209 -84 q168 0 259 139.5t91 397.5q0 516 -337 516q-166 0 -260.5 -138t-94.5 -384z" />
<glyph unicode="R" d="M156 0v1415h757q180 0 275 -96q106 -113 106 -287q0 -256 -237 -348q135 -45 166 -139q27 -78 28 -377q0 -80 64 -115v-53h-314q-29 51 -37 97t-8 145q0 20 2.5 69t2.5 80q0 90 -43.5 130t-137.5 40h-334v-561h-290zM446 803h353q109 0 151 37q53 47 54 151 q0 100 -54 146q-45 37 -151 37h-353v-371z" />
<glyph unicode="S" horiz-adv-x="1335" d="M92 401q0 29 2 54h303q0 -131 43 -189q74 -86 228 -86q115 0 189.5 58.5t74.5 152.5q0 96 -82 135q-47 23 -254 72q-248 57 -356.5 151.5t-108.5 254.5q0 199 155.5 319.5t409.5 120.5q242 0 373 -109.5t135 -310.5h-291q-2 111 -58 161t-173 50q-113 0 -179.5 -50 t-66.5 -136q0 -74 43 -107q39 -31 89 -49.5t231 -65.5q252 -66 345 -151.5t93 -251.5q0 -203 -165 -328t-437 -125q-260 0 -401.5 112.5t-141.5 317.5z" />
<glyph unicode="T" horiz-adv-x="1185" d="M27 1174v241h1134v-241h-413v-1174h-291v1174h-430z" />
<glyph unicode="U" d="M147 457v958h291v-958q0 -252 270.5 -252t270.5 252v958h291v-958q0 -233 -137 -359q-162 -143 -424.5 -143t-423.5 143q-138 126 -138 359z" />
<glyph unicode="V" horiz-adv-x="1294" d="M47 1415h293l313 -1065l310 1065h292l-485 -1415h-246z" />
<glyph unicode="W" horiz-adv-x="1832" d="M25 1415h309l219 -1061l219 1061h289l227 -1061l213 1061h307l-391 -1415h-262l-237 1104l-230 -1104h-262z" />
<glyph unicode="X" horiz-adv-x="1294" d="M43 0l446 713l-432 702h346l248 -465l260 465h338l-436 -692l455 -723h-346l-271 492l-270 -492h-338z" />
<glyph unicode="Y" horiz-adv-x="1294" d="M53 1415h324l289 -624l270 624h326l-449 -891v-524h-291v524z" />
<glyph unicode="Z" horiz-adv-x="1185" d="M57 0v242l725 932h-725v241h1065v-241l-723 -932h723v-242h-1065z" />
<glyph unicode="[" horiz-adv-x="647" d="M129 -389v1804h469v-198h-217v-1407h217v-199h-469z" />
<glyph unicode="\" horiz-adv-x="540" d="M-23 1442h129l455 -1469h-131z" />
<glyph unicode="]" horiz-adv-x="647" d="M35 -190h217v1407h-217v198h469v-1804h-469v199z" />
<glyph unicode="^" horiz-adv-x="1134" d="M119 524l319 826h244l332 -826h-219l-236 582l-223 -582h-217z" />
<glyph unicode="_" horiz-adv-x="819" d="M-10 -229h839v-127h-839v127z" />
<glyph unicode="`" horiz-adv-x="606" d="M31 1378h229l127 -272h-127z" />
<glyph unicode="a" horiz-adv-x="1116" d="M82 272q0 82 42 157t114 122q70 41 169 56.5t332 19.5v39q0 106 -41 151t-137 45q-80 0 -116.5 -35.5t-45.5 -119.5h-272q8 158 112.5 231.5t319.5 73.5q231 0 348 -92q104 -84 105 -254v-381q0 -203 18 -285h-254q-23 70 -22 123q-61 -80 -135 -116t-189 -36 q-156 0 -252 84t-96 217zM365 293q0 -147 153 -148q70 0 125 34t76 93q20 49 20 164v39q-223 0 -293 -35q-81 -41 -81 -147z" />
<glyph unicode="b" horiz-adv-x="1191" d="M127 0q12 57 12 213v1202h285v-522q41 63 102.5 91t163.5 28q199 0 297 -111q131 -150 131 -418q0 -238 -108.5 -375t-294.5 -137q-106 0 -181 42t-106 112q-2 -51 -16 -125h-285zM420 514q0 -360 211 -360q195 0 194 329q0 356 -207 357q-198 0 -198 -326z" />
<glyph unicode="c" horiz-adv-x="1116" d="M100 485q0 154 55.5 271.5t155.5 181.5q121 74 291 74q203 0 316.5 -94.5t121.5 -266.5h-280q-8 102 -48 148.5t-120 46.5q-104 0 -152.5 -79t-48.5 -253q0 -375 203 -375q80 0 125 54.5t45 152.5v14h276q2 -14 2 -20q0 -162 -125.5 -265.5t-324.5 -103.5 q-240 0 -373 146q-119 130 -119 368z" />
<glyph unicode="d" horiz-adv-x="1191" d="M82 504q0 227 114.5 367.5t305.5 140.5q203 0 291 -140v543h284v-1415h-284v111q-98 -139 -281 -140q-188 0 -309 151t-121 382zM375 510q0 -174 53 -266t152 -92q104 0 161.5 86t57.5 245q0 188 -72 269q-70 80 -152 79q-92 0 -146 -85.5t-54 -235.5z" />
<glyph unicode="e" horiz-adv-x="1116" d="M82 481.5q0 241.5 130 386t351 144.5q233 0 354 -133.5t121 -389.5v-51h-680v-26q0 -129 55.5 -201t151.5 -72q49 0 97.5 27t68.5 67q14 31 25 91h262q-6 -160 -128 -256.5t-323 -96.5q-231 0 -358 134.5t-127 376zM369 604h385q0 242 -185 242q-175 0 -200 -242z" />
<glyph unicode="f" horiz-adv-x="606" d="M25 795v168h139v118q0 246 252 246q76 0 145 -6v-191q-33 6 -74 7q-70 0 -69 -78v-96h151v-168h-151v-795h-254v795h-139z" />
<glyph unicode="g" horiz-adv-x="1191" d="M92 504q0 227 117 367.5t309 140.5q195 0 279 -138v109h280v-833q0 -158 -16.5 -235t-63.5 -138q-125 -176 -442 -176q-279 0 -375 143q-47 61 -47 178h277q8 -82 47 -117.5t116 -35.5q150 0 199 122q27 68 27 215v66q-88 -156 -305 -156q-182 0 -292 133.5t-110 354.5z M381 506q0 -309 197 -309q109 0 167 84t58 243q0 307 -209 307q-213 1 -213 -325z" />
<glyph unicode="h" horiz-adv-x="1112" d="M123 0v1415h254v-573q106 158 287 157q131 0 221 -73q100 -86 100 -267v-659h-256v600q0 82 -29 123q-43 59 -127 59q-86 0 -141 -54t-55 -138v-590h-254z" />
<glyph unicode="i" horiz-adv-x="505" d="M123 0v983h254v-983h-254zM123 1100v227h254v-227h-254z" />
<glyph unicode="j" horiz-adv-x="505" d="M8 -184q25 -6 45 -6q41 0 57.5 16t16.5 59v1098h256v-1155q0 -119 -52 -172t-173 -53q-68 0 -150 10v203zM127 1100v227h256v-227h-256z" />
<glyph unicode="k" horiz-adv-x="1011" d="M106 0v1415h256v-815l322 383h291l-336 -371l358 -612h-299l-233 434l-103 -112v-322h-256z" />
<glyph unicode="l" horiz-adv-x="505" d="M123 0v1415h254v-1415h-254z" />
<glyph unicode="m" horiz-adv-x="1617" d="M109 0v983h253v-123q63 76 124 107.5t145 31.5q195 0 268 -145q109 145 289 145q147 0 229 -79.5t82 -223.5v-696h-254v655q0 59 -38 93t-101 34q-82 0 -128 -51t-46 -141v-590h-254v655q0 59 -38 93t-101 34q-82 0 -128 -51t-46 -141v-590h-256z" />
<glyph unicode="n" horiz-adv-x="1112" d="M115 0v983h254v-141q106 158 295 157q158 0 243.5 -88t85.5 -252v-659h-254v606q0 176 -164 176q-94 0 -150 -52t-56 -140v-590h-254z" />
<glyph unicode="o" horiz-adv-x="1191" d="M86 494q0 231 143.5 374.5t378.5 143.5q227 0 363.5 -147.5t136.5 -391.5q0 -227 -142.5 -364.5t-381.5 -137.5q-227 0 -362.5 142.5t-135.5 380.5zM379 506q0 -172 58.5 -263t166.5 -91q102 0 156.5 82.5t54.5 238.5q0 358 -217 358q-106 0 -162.5 -82.5t-56.5 -242.5z " />
<glyph unicode="p" horiz-adv-x="1191" d="M121 983h282q4 -51 9 -113q90 141 282 142q190 0 302 -136.5t112 -365.5q0 -240 -119 -389.5t-309 -149.5q-170 0 -268 115v-442h-285v1167q0 55 -6 172zM399 487q0 -336 199 -335q98 0 156.5 91t58.5 253q0 336 -199 335q-61 0 -118 -45q-97 -82 -97 -299z" />
<glyph unicode="q" horiz-adv-x="1191" d="M82 477q0 233 121 384t309 151q178 0 283 -138q0 47 2 109h282v-1339h-284v467q-98 -139 -297 -140q-188 0 -302 139.5t-114 366.5zM375 485q0 -336 205 -335q109 0 166 93t57 271q0 156 -53.5 236.5t-155.5 80.5q-104 0 -161.5 -90t-57.5 -256z" />
<glyph unicode="r" horiz-adv-x="708" d="M115 0v983h254v-192q41 98 113.5 153t160.5 55q16 0 31 -2v-258q-35 6 -80 6q-225 0 -225 -223v-522h-254z" />
<glyph unicode="s" horiz-adv-x="1038" d="M80 272v35h272q8 -92 47 -130t123 -38q80 0 128 36t48 95q0 61 -44 89t-195 63q-115 29 -158 44t-80 40q-57 33 -91 91t-34 120q0 131 124 213t323 82q231 0 321 -101q61 -66 64 -194h-264q-4 70 -38 98.5t-108 28.5q-70 0 -111.5 -28t-41.5 -77q0 -51 40.5 -74.5 t188.5 -60.5q143 -35 199.5 -59.5t101.5 -71.5q72 -68 72 -176q0 -150 -123 -238t-336 -88q-205 0 -316.5 78t-111.5 223z" />
<glyph unicode="t" horiz-adv-x="606" d="M25 795v168h127v264h254v-264h143v-168h-143v-537q0 -63 16 -84.5t67 -21.5q6 0 60 4v-179q-61 -18 -148 -18q-250 0 -249 229v607h-127z" />
<glyph unicode="u" horiz-adv-x="1112" d="M106 299v684h254v-631q0 -178 164 -178q92 0 148.5 53.5t56.5 141.5v614h256v-983h-256v117q-104 -158 -295 -158q-158 0 -243 89t-85 251z" />
<glyph unicode="v" horiz-adv-x="1011" d="M25 983h270l213 -719l199 719h268l-338 -983h-268z" />
<glyph unicode="w" horiz-adv-x="1417" d="M8 983h264l158 -688l150 688h254l147 -688l149 688h265l-279 -983h-264l-147 694l-156 -694h-262z" />
<glyph unicode="x" horiz-adv-x="1011" d="M29 0l327 496l-319 487h305l160 -297l160 297h305l-320 -487l328 -496h-307l-166 305l-166 -305h-307z" />
<glyph unicode="y" horiz-adv-x="1011" d="M16 983h281l217 -715l203 715h262l-404 -1163q-33 -88 -62.5 -127t-80.5 -62q-84 -31 -184 -30q-41 0 -92 8v190q41 -10 67 -10q68 0 114 47t46 117v6z" />
<glyph unicode="z" horiz-adv-x="909" d="M39 0v205l485 573h-452v205h764v-205l-484 -573h500v-205h-813z" />
<glyph unicode="{" horiz-adv-x="755" d="M72 432v180h30q127 2 127 121v410q0 119 66.5 195.5t171.5 76.5h147v-192h-71q-86 0 -86 -111v-379q0 -106 -40 -151t-149 -60q109 -16 149 -61t40 -152v-379q0 -72 18.5 -99.5t67.5 -27.5h71v-192h-147q-104 0 -171 76.5t-67 195.5v408q0 57 -13 86t-48 45q-27 8 -88 8z " />
<glyph unicode="|" horiz-adv-x="542" d="M195 -389v1804h155v-1804h-155z" />
<glyph unicode="}" horiz-adv-x="755" d="M139 -197h72q88 0 88 111v379q0 106 40 151t148 60q-109 18 -148.5 63t-39.5 152v379q0 72 -18.5 98.5t-69.5 26.5h-72v192h148q106 0 172.5 -75.5t66.5 -196.5v-408q0 -57 12.5 -84.5t47.5 -44.5q29 -10 90 -10l8 -2v-178h-33q-125 -2 -125 -123v-410 q0 -121 -66.5 -196.5t-172.5 -75.5h-148v192z" />
<glyph unicode="~" horiz-adv-x="1134" d="M117 328q14 283 245 282q92 0 162 -49l111 -82q68 -49 119 -49q70 0 92 53q8 23 10 76h152q-18 -283 -246 -283q-90 0 -162 50l-111 82q-66 47 -118 47q-70 0 -92 -54q-8 -18 -11 -73h-151z" />
<glyph unicode="&#xa1;" horiz-adv-x="647" d="M129 47l80 600h131l80 -600v-403h-291v403zM129 764v285h291v-285h-291z" />
<glyph unicode="&#xa2;" horiz-adv-x="1011" d="M66 471q0 236 103 371t302 155v158h80v-156q170 -4 279.5 -109.5t119.5 -275.5h-243q-18 86 -54.5 127t-101.5 52v-627q119 16 156 174h243q-16 -164 -126.5 -269.5t-272.5 -111.5v-184h-80v184q-188 12 -296.5 149.5t-108.5 362.5zM319 473q0 -256 152 -301v616 q-152 -41 -152 -315z" />
<glyph unicode="&#xa3;" horiz-adv-x="1122" d="M68 160q125 86 172 150.5t47 150.5q0 72 -41 170h-178v110h120q-68 119 -87 171.5t-19 117.5q0 180 147 299q129 98 328 98q156 0 268.5 -56t165.5 -163q43 -84 58 -241h-265l-2 20q-16 119 -69 164q-57 55 -154 55q-86 0 -141.5 -51t-55.5 -131q0 -43 56 -154l59 -129 h277v-110h-242q29 -66 29 -119q0 -86 -52.5 -163t-179.5 -177q158 74 223 74q43 0 130 -23q74 -20 124 -20q92 0 209 59l82 -219q-150 -88 -289 -88q-74 0 -196 31q-129 33 -197 32q-96 0 -217 -59z" />
<glyph unicode="&#xa4;" horiz-adv-x="1079" d="M51 1040l133 134l150 -150q96 59 211 59q117 0 209 -59l141 143l133 -135l-145 -145q53 -106 53 -199q0 -111 -57 -211l149 -147l-133 -131l-145 145q-109 -59 -195 -59q-129 0 -215 61l-154 -151l-131 133l150 149q-57 109 -58 207q0 113 58 203zM334 684 q0 -86 61.5 -147.5t145.5 -61.5q86 0 147.5 61.5t61.5 149.5q0 84 -61.5 145.5t-145.5 61.5q-86 0 -147.5 -60.5t-61.5 -148.5z" />
<glyph unicode="&#xa5;" horiz-adv-x="1122" d="M16 1415h277l278 -516l267 516h270l-383 -715h272v-116h-282v-107h282v-119h-282v-358h-279v358h-291v119h291v107h-291v116h277z" />
<glyph unicode="&#xa6;" horiz-adv-x="542" d="M195 367h155v-756h-155v756zM195 659v756h155v-756h-155z" />
<glyph unicode="&#xa7;" horiz-adv-x="1110" d="M66 561q0 88 38.5 150.5t145.5 142.5q-51 49 -68 74q-55 72 -55 172q0 150 119 247t299 97q115 0 207 -41t141 -111q45 -80 51 -207h-254q-20 154 -155 154q-57 0 -92 -27.5t-35 -72.5q0 -43 36.5 -78t143.5 -92l252 -142q195 -109 194 -305q0 -100 -44 -164.5 t-144 -109.5q139 -96 139 -268q0 -170 -120 -275.5t-314 -105.5q-418 0 -422 401h262v-20q6 -86 39 -115q41 -45 123 -45q68 0 110 34.5t42 88t-37 90.5q-18 18 -103 65l-342 199q-157 92 -157 264zM303 633q0 -47 23.5 -77t83.5 -62l292 -160q92 63 93 129q0 47 -27 78.5 t-96 68.5l-285 152q-84 -49 -84 -129z" />
<glyph unicode="&#xa8;" horiz-adv-x="606" d="M33 1130v222h200v-222h-200zM371 1130v222h200v-222h-200z" />
<glyph unicode="&#xa9;" horiz-adv-x="1431" d="M-27 700q0 305 218.5 523.5t525.5 218.5q305 0 523 -217t218 -525q0 -311 -218 -527t-533 -216q-299 0 -516.5 220t-217.5 523zM125 700q0 -246 173 -425t411 -179q250 0 424 176.5t174 427.5q0 248 -174.5 425.5t-418 177.5t-416.5 -177.5t-173 -425.5zM317 698 q0 209 105.5 330t290.5 121q199 0 301 -135q49 -68 57 -176h-174q-16 78 -59 113.5t-121 35.5q-104 0 -162.5 -76.5t-58.5 -214.5q0 -135 57 -210.5t158 -75.5q170 0 186 168h178q-8 -154 -106.5 -242t-261.5 -88q-180 0 -285 121.5t-105 328.5z" />
<glyph unicode="&#xaa;" horiz-adv-x="718" d="M59 940q0 168 185 199l67 12q80 14 101 25q29 14 28 47q0 61 -94 61q-57 0 -82.5 -19.5t-32.5 -66.5h-151q4 217 262 217t258 -194v-347q0 -45 39 -77v-21h-178q-18 23 -21 62q-82 -88 -190 -88q-86 0 -138.5 52t-52.5 138zM72 508v151h551v-151h-551zM223 956 q0 -35 23.5 -55t66.5 -20q59 0 93 38.5t34 108.5v45q-20 -12 -67 -18l-56 -13q-51 -10 -72.5 -29.5t-21.5 -56.5z" />
<glyph unicode="&#xab;" horiz-adv-x="1011" d="M160 397v207l305 273v-213l-184 -164l184 -162v-207zM549 397v207l303 273v-213l-184 -164l184 -162v-207z" />
<glyph unicode="&#xac;" horiz-adv-x="1134" d="M78 578v149h979v-559h-150v410h-829z" />
<glyph unicode="&#xad;" horiz-adv-x="647" d="M51 401v263h527v-263h-527z" />
<glyph unicode="&#x2010;" horiz-adv-x="647" d="M51 401v263h527v-263h-527z" />
<glyph unicode="&#xae;" horiz-adv-x="1431" d="M-27 700q0 305 218.5 523.5t525.5 218.5q305 0 523 -217t218 -525q0 -311 -218 -527t-533 -216q-299 0 -516.5 220t-217.5 523zM125 700q0 -246 173 -425t411 -179q250 0 424 176.5t174 427.5q0 248 -174.5 425.5t-418 177.5t-416.5 -177.5t-173 -425.5zM373 272v861h463 q111 0 172 -62.5t61 -173.5q0 -143 -135 -209q76 -35 91 -79t19 -230q0 -47 37 -66v-41h-200q-27 53 -27 156q0 33 2 84q0 96 -119 96h-178v-336h-186zM559 764h201q70 0 96.5 23.5t26.5 83t-27 82t-96 22.5h-201v-211z" />
<glyph unicode="&#xaf;" horiz-adv-x="606" d="M29 1165v144h544v-144h-544z" />
<glyph unicode="&#x2c9;" horiz-adv-x="606" d="M29 1165v144h544v-144h-544z" />
<glyph unicode="&#xb0;" horiz-adv-x="776" d="M92 1038.5q0 120.5 87 206.5t210 86q121 0 207 -86t86 -207q0 -123 -87 -209t-210 -86q-121 0 -207 87.5t-86 208zM215 1036q0 -68 50 -119t120 -51q72 0 123 50.5t51 121.5q0 70 -50 121t-120 51q-72 0 -123 -51t-51 -123z" />
<glyph unicode="&#xb1;" horiz-adv-x="1134" d="M109 -31v232h915v-232h-915zM109 608v230h342v342h231v-342h342v-230h-342v-342h-231v342h-342z" />
<glyph unicode="&#xb2;" horiz-adv-x="1122" d="M63 0v233q414 336 573 515.5t159 306.5q0 84 -56.5 135t-142.5 51q-182 0 -184 -215h-310q0 123 43 203q117 215 457 215q219 0 354.5 -106.5t135.5 -280.5q0 -127 -76 -251t-256 -292q-158 -147 -361 -299h744v-215h-1080z" />
<glyph unicode="&#xb3;" horiz-adv-x="1122" d="M63 416h273q12 -221 211 -221q92 0 150.5 59t58.5 154q0 78 -42 134t-112 76q-55 14 -164 15v188h25q248 0 248 213q0 88 -46.5 136.5t-129.5 48.5q-129 0 -173 -99q-18 -53 -20 -149h-260v22q0 190 82 293q125 160 377 160q205 0 326.5 -104.5t121.5 -280.5 q0 -98 -43 -170t-141 -133q121 -59 176 -142.5t55 -207.5q0 -207 -135 -330t-360 -123q-217 0 -346.5 124t-131.5 337z" />
<glyph unicode="&#xb4;" horiz-adv-x="606" d="M221 1106l127 272h230l-230 -272h-127z" />
<glyph unicode="&#xb6;" horiz-adv-x="1079" d="M37 961q0 168 98 301q115 154 303 153h588v-139h-82v-1647h-190v1647h-123v-1647h-191v889q-178 8 -290.5 132.5t-112.5 310.5z" />
<glyph unicode="&#xb7;" horiz-adv-x="540" d="M125 328v239h240v-239h-240z" />
<glyph unicode="&#x2219;" horiz-adv-x="540" d="M125 328v239h240v-239h-240z" />
<glyph unicode="&#xb8;" horiz-adv-x="606" d="M49 -350l35 96q123 -55 190 -55q45 0 75 21.5t30 51.5q0 29 -25.5 46.5t-66.5 17.5q-47 0 -90 -21l98 193h78l-54 -115q43 12 78 13q63 0 100.5 -35t37.5 -94q0 -82 -60.5 -126t-173.5 -44q-96 0 -252 51z" />
<glyph unicode="&#xb9;" horiz-adv-x="1122" d="M188 965v245q266 111 367 205h270v-1415h-299v1133q-43 -45 -145.5 -97.5t-192.5 -70.5z" />
<glyph unicode="&#xba;" horiz-adv-x="708" d="M45 1081.5q0 155.5 83 244.5t226 89q147 0 229.5 -89t82.5 -249q0 -152 -84 -239.5t-227.5 -87.5t-226.5 88t-83 243.5zM63 508v151h586v-151h-586zM207 1083q0 -90 41 -146t106.5 -56t106.5 55t41 143q0 92 -40 148.5t-108 56.5q-66 0 -106.5 -56.5t-40.5 -144.5z" />
<glyph unicode="&#xbb;" horiz-adv-x="1011" d="M160 131v213l184 162l-184 162v209l305 -267v-209zM537 131v213l184 162l-184 162v209l305 -267v-209z" />
<glyph unicode="&#xbc;" horiz-adv-x="1665" d="M33 1143v123q231 0 274 149h127v-848h-188v576h-213zM291 -39l846 1466h172l-844 -1466h-174zM1010 186v148l329 514h217v-512h93v-150h-93v-186h-188v186h-358zM1155 336h213v328z" />
<glyph unicode="&#xbd;" horiz-adv-x="1665" d="M37 1143v123q231 0 274 149h127v-848h-188v576h-213zM283 -39l845 1466h172l-843 -1466h-174zM1022 0q4 121 47 191.5t160 146.5q147 98 186 141t39 111q0 59 -31.5 94t-89.5 35q-119 0 -119 -141q0 -4 5 -33h-185q-2 16 -2 37q0 137 81 210.5t230 73.5 q145 0 223.5 -69.5t78.5 -198.5q0 -88 -41 -147.5t-162 -143.5q-78 -51 -119 -86q-16 -12 -55 -59h372v-162h-618z" />
<glyph unicode="&#xbe;" horiz-adv-x="1665" d="M0 825h184q8 -131 129 -131q53 0 88 34t35 87q0 121 -166 125h-32v123h22q150 0 150 117q0 49 -30 78.5t-77 29.5q-76 0 -100 -57q-12 -27 -13 -92h-176q6 133 56 196q78 98 239 99q131 0 210 -63.5t79 -170.5q0 -117 -102 -178q131 -61 131 -205q0 -125 -86 -200.5 t-231.5 -75.5t-226.5 74.5t-83 209.5zM373 -39l846 1466h172l-844 -1466h-174zM1028 186v148l330 514h217v-512h92v-150h-92v-186h-191v186h-356zM1174 336h210v328z" />
<glyph unicode="&#xbf;" horiz-adv-x="1185" d="M98 51q0 121 49.5 201t186.5 176q88 59 109.5 97t21.5 132h240q4 -123 -37 -203.5t-158 -179.5q-86 -70 -111.5 -111.5t-25.5 -107.5q0 -94 58 -158.5t147 -64.5q96 0 158.5 80t56.5 199v4h264q-2 -217 -92 -338q-125 -172 -381 -172q-215 0 -350.5 123.5t-135.5 322.5z M432 764v285h293v-285h-293z" />
<glyph unicode="&#xc0;" d="M51 0l502 1415h321l490 -1415h-299l-92 285h-531l-94 -285h-297zM428 1817h246l135 -291h-135zM524 528h369l-184 553z" />
<glyph unicode="&#xc1;" d="M51 0l502 1415h321l490 -1415h-299l-92 285h-531l-94 -285h-297zM524 528h369l-184 553zM610 1526l135 291h244l-244 -291h-135z" />
<glyph unicode="&#xc2;" d="M51 0l502 1415h321l490 -1415h-299l-92 285h-531l-94 -285h-297zM397 1526l211 291h207l201 -291h-150l-159 194l-160 -194h-150zM524 528h369l-184 553z" />
<glyph unicode="&#xc3;" d="M51 0l502 1415h321l490 -1415h-299l-92 285h-531l-94 -285h-297zM375 1552q4 115 52 178.5t130 63.5q41 0 107 -25l139 -49q43 -12 67 -12q57 0 70 94h121q-12 -248 -184 -248q-49 0 -107 25l-137 49q-31 12 -60 12q-66 0 -77 -88h-121zM524 528h369l-184 553z" />
<glyph unicode="&#xc4;" d="M51 0l502 1415h321l490 -1415h-299l-92 285h-531l-94 -285h-297zM420 1552v238h213v-238h-213zM524 528h369l-184 553zM780 1552v238h213v-238h-213z" />
<glyph unicode="&#xc5;" d="M51 0l502 1415h321l490 -1415h-299l-92 285h-531l-94 -285h-297zM524 528h369l-184 553zM532 1667q0 74 51.5 125t125 51t124 -51t50.5 -127q0 -70 -51.5 -121t-123 -51t-124 51t-52.5 123zM625 1667q0 -33 24.5 -57.5t59.5 -24.5q33 0 57.5 24.5t24.5 57.5 q0 35 -24 58.5t-58.5 23.5t-59 -23.5t-24.5 -58.5z" />
<glyph unicode="&#xc6;" horiz-adv-x="1941" d="M2 0l510 1415h1325v-241h-711v-322h658v-242h-658v-368h750v-242h-1040v295h-435l-102 -295h-297zM483 539h353v635h-131z" />
<glyph unicode="&#xc7;" horiz-adv-x="1447" d="M115 688q0 362 184 569q168 186 471 187q174 0 308 -63.5t204 -178.5q53 -88 59 -227h-321q-6 123 -70.5 190.5t-173.5 67.5q-166 0 -255 -139.5t-89 -403.5q0 -246 85 -378t241 -132q113 0 182.5 68.5t83.5 197.5h332q-16 -217 -176 -346t-412 -129q-305 0 -479 190.5 t-174 526.5zM477 -406l174 283h232l-121 -283h-285z" />
<glyph unicode="&#xc8;" horiz-adv-x="1294" d="M154 0v1415h1022v-241h-732v-322h678v-242h-678v-368h766v-242h-1056zM403 1817h246l135 -291h-135z" />
<glyph unicode="&#xc9;" horiz-adv-x="1294" d="M154 0v1415h1022v-241h-732v-322h678v-242h-678v-368h766v-242h-1056zM551 1526l137 291h244l-244 -291h-137z" />
<glyph unicode="&#xca;" horiz-adv-x="1294" d="M154 0v1415h1022v-241h-732v-322h678v-242h-678v-368h766v-242h-1056zM360 1526l209 291h209l201 -291h-152l-159 194l-160 -194h-148z" />
<glyph unicode="&#xcb;" horiz-adv-x="1294" d="M154 0v1415h1022v-241h-732v-322h678v-242h-678v-368h766v-242h-1056zM383 1552v238h213v-238h-213zM743 1552v238h213v-238h-213z" />
<glyph unicode="&#xcc;" horiz-adv-x="540" d="M-18 1817h243l135 -291h-135zM123 0v1415h291v-1415h-291z" />
<glyph unicode="&#xcd;" horiz-adv-x="540" d="M123 0v1415h291v-1415h-291zM182 1526l135 291h246l-246 -291h-135z" />
<glyph unicode="&#xce;" horiz-adv-x="540" d="M-37 1526l209 291h209l199 -291h-152l-158 194l-159 -194h-148zM123 0v1415h291v-1415h-291z" />
<glyph unicode="&#xcf;" horiz-adv-x="540" d="M-18 1552v238h215v-238h-215zM123 0v1415h291v-1415h-291zM344 1552v238h213v-238h-213z" />
<glyph unicode="&#xd0;" d="M0 657v156h150v602h552q166 0 271.5 -39t177.5 -125q170 -213 170 -542.5t-170 -542.5q-131 -166 -449 -166h-552v657h-150zM440 242h262q178 0 250 106q90 123 90 359q0 238 -90 360q-72 106 -250 107h-262v-361h291v-156h-291v-415z" />
<glyph unicode="&#xd1;" d="M131 0v1415h299l561 -962v962h293v-1415h-293l-567 979v-979h-293zM377 1552q6 115 54 178.5t130 63.5q39 0 107 -25l139 -49q43 -12 65 -12q59 0 72 94h119q-8 -248 -184 -248q-49 0 -105 25l-139 49q-31 12 -57 12q-66 0 -78 -88h-123z" />
<glyph unicode="&#xd2;" horiz-adv-x="1560" d="M113 719q0 336 180 530.5t495 194.5q309 0 481.5 -197.5t172.5 -548.5q0 -326 -158 -514q-82 -100 -215 -156.5t-291 -56.5q-315 0 -490 198t-175 550zM430 721q0 -258 92 -410q82 -131 262 -131q168 0 255 133t87 392q0 262 -87 396t-255 134q-166 0 -260 -136t-94 -378 zM485 1806h318l164 -270h-228z" />
<glyph unicode="&#xd3;" horiz-adv-x="1560" d="M113 719q0 336 180 530.5t495 194.5q309 0 481.5 -197.5t172.5 -548.5q0 -326 -158 -514q-82 -100 -215 -156.5t-291 -56.5q-315 0 -490 198t-175 550zM430 721q0 -258 92 -410q82 -131 262 -131q168 0 255 133t87 392q0 262 -87 396t-255 134q-166 0 -260 -136t-94 -378 zM600 1536l166 270h317l-252 -270h-231z" />
<glyph unicode="&#xd4;" horiz-adv-x="1560" d="M113 719q0 336 180 530.5t495 194.5q309 0 481.5 -197.5t172.5 -548.5q0 -326 -158 -514q-82 -100 -215 -156.5t-291 -56.5q-315 0 -490 198t-175 550zM430 721q0 -258 92 -410q82 -131 262 -131q168 0 255 133t87 392q0 262 -87 396t-255 134q-166 0 -260 -136t-94 -378 zM444 1536l213 270h263l215 -270h-234l-117 145l-110 -145h-230z" />
<glyph unicode="&#xd5;" horiz-adv-x="1560" d="M113 719q0 336 180 530.5t495 194.5q309 0 481.5 -197.5t172.5 -548.5q0 -326 -158 -514q-82 -100 -215 -156.5t-291 -56.5q-315 0 -490 198t-175 550zM430 721q0 -258 92 -410q82 -131 262 -131q168 0 255 133t87 392q0 262 -87 396t-255 134q-166 0 -260 -136t-94 -378 zM432 1536q8 143 55 201q47 70 140 69q57 0 159 -39q145 -51 166 -51t30 18.5t13 71.5h176q-4 -270 -206 -270q-68 0 -174 43q-115 45 -136 45q-39 0 -47 -88h-176z" />
<glyph unicode="&#xd6;" horiz-adv-x="1560" d="M113 719q0 336 180 530.5t495 194.5q309 0 481.5 -197.5t172.5 -548.5q0 -326 -158 -514q-82 -100 -215 -156.5t-291 -56.5q-315 0 -490 198t-175 550zM430 721q0 -258 92 -410q82 -131 262 -131q168 0 255 133t87 392q0 262 -87 396t-255 134q-166 0 -260 -136t-94 -378 zM453 1552v246h252v-246h-252zM862 1552v246h254v-246h-254z" />
<glyph unicode="&#xd7;" horiz-adv-x="1134" d="M154 696l163 166l250 -250l250 250l164 -164l-252 -249l250 -250l-164 -164l-248 250l-250 -248l-161 164l247 248z" />
<glyph unicode="&#xd8;" horiz-adv-x="1560" d="M104 711q0 350 183 540q186 193 501 193q219 0 365 -88l117 184h149l-166 -258q207 -203 207 -584q0 -342 -179 -534.5t-499 -192.5q-193 0 -325 70l-115 -172h-149l155 240q-244 199 -244 602zM422 715q0 -233 76 -375l518 809q-94 86 -228 86q-172 0 -269 -137 t-97 -383zM584 240q90 -59 204 -60q176 0 266.5 133t90.5 394q0 195 -51 325z" />
<glyph unicode="&#xd9;" d="M147 457v958h291v-958q0 -252 270.5 -252t270.5 252v958h291v-958q0 -233 -137 -359q-162 -143 -424.5 -143t-423.5 143q-138 126 -138 359zM442 1817h246l135 -291h-135z" />
<glyph unicode="&#xda;" d="M147 457v958h291v-958q0 -252 270.5 -252t270.5 252v958h291v-958q0 -233 -137 -359q-162 -143 -424.5 -143t-423.5 143q-138 126 -138 359zM598 1526l135 291h246l-246 -291h-135z" />
<glyph unicode="&#xdb;" d="M147 457v958h291v-958q0 -252 270.5 -252t270.5 252v958h291v-958q0 -233 -137 -359q-162 -143 -424.5 -143t-423.5 143q-138 126 -138 359zM399 1526l211 291h207l201 -291h-152l-159 194l-160 -194h-148z" />
<glyph unicode="&#xdc;" d="M147 457v958h291v-958q0 -252 270.5 -252t270.5 252v958h291v-958q0 -233 -137 -359q-162 -143 -424.5 -143t-423.5 143q-138 126 -138 359zM422 1552v238h213v-238h-213zM782 1552v238h213v-238h-213z" />
<glyph unicode="&#xdd;" horiz-adv-x="1294" d="M53 1415h324l289 -624l270 624h326l-449 -891v-524h-291v524zM551 1526l137 291h244l-244 -291h-137z" />
<glyph unicode="&#xde;" horiz-adv-x="1294" d="M147 0v1415h291v-233h334q225 0 336 -109q121 -119 121 -332q0 -217 -116 -343t-312 -126h-363v-272h-291zM438 514h273q117 0 172 52t55 161t-55.5 161t-171.5 52h-273v-426z" />
<glyph unicode="&#xdf;" horiz-adv-x="1112" d="M123 0v942q0 205 110 295q113 90 318 90q184 0 301 -93t117 -239q0 -184 -158 -247q82 -16 143 -72q92 -90 93 -246q0 -207 -109 -334t-289 -127q-29 0 -131 11v208h62q94 0 153.5 63.5t59.5 160.5q0 102 -68 162.5t-182 60.5h-25v174h17q82 2 130 45t48 117 q0 72 -47.5 111.5t-130.5 39.5q-76 0 -117 -37.5t-41 -107.5v-977h-254z" />
<glyph unicode="&#xe0;" horiz-adv-x="1116" d="M82 272q0 82 42 157t114 122q70 41 169 56.5t332 19.5v39q0 106 -41 151t-137 45q-80 0 -116.5 -35.5t-45.5 -119.5h-272q8 158 112.5 231.5t319.5 73.5q231 0 348 -92q104 -84 105 -254v-381q0 -203 18 -285h-254q-23 70 -22 123q-61 -80 -135 -116t-189 -36 q-156 0 -252 84t-96 217zM211 1421h334l194 -303h-237zM365 293q0 -147 153 -148q70 0 125 34t76 93q20 49 20 164v39q-223 0 -293 -35q-81 -41 -81 -147z" />
<glyph unicode="&#xe1;" horiz-adv-x="1116" d="M82 272q0 82 42 157t114 122q70 41 169 56.5t332 19.5v39q0 106 -41 151t-137 45q-80 0 -116.5 -35.5t-45.5 -119.5h-272q8 158 112.5 231.5t319.5 73.5q231 0 348 -92q104 -84 105 -254v-381q0 -203 18 -285h-254q-23 70 -22 123q-61 -80 -135 -116t-189 -36 q-156 0 -252 84t-96 217zM365 293q0 -147 153 -148q70 0 125 34t76 93q20 49 20 164v39q-223 0 -293 -35q-81 -41 -81 -147zM383 1118l199 303h327l-286 -303h-240z" />
<glyph unicode="&#xe2;" horiz-adv-x="1116" d="M82 272q0 82 42 157t114 122q70 41 169 56.5t332 19.5v39q0 106 -41 151t-137 45q-80 0 -116.5 -35.5t-45.5 -119.5h-272q8 158 112.5 231.5t319.5 73.5q231 0 348 -92q104 -84 105 -254v-381q0 -203 18 -285h-254q-23 70 -22 123q-61 -80 -135 -116t-189 -36 q-156 0 -252 84t-96 217zM219 1118l203 303h289l200 -303h-215l-137 160l-135 -160h-205zM365 293q0 -147 153 -148q70 0 125 34t76 93q20 49 20 164v39q-223 0 -293 -35q-81 -41 -81 -147z" />
<glyph unicode="&#xe3;" horiz-adv-x="1116" d="M82 272q0 82 42 157t114 122q70 41 169 56.5t332 19.5v39q0 106 -41 151t-137 45q-80 0 -116.5 -35.5t-45.5 -119.5h-272q8 158 112.5 231.5t319.5 73.5q231 0 348 -92q104 -84 105 -254v-381q0 -203 18 -285h-254q-23 70 -22 123q-61 -80 -135 -116t-189 -36 q-156 0 -252 84t-96 217zM209 1118q6 152 59.5 222.5t159.5 70.5q84 0 170 -55q88 -57 123 -58q27 0 36 21.5t11 91.5h180q0 -141 -56 -217t-163 -76q-96 0 -192 62q-78 51 -101 51q-25 0 -34 -20.5t-13 -92.5h-180zM365 293q0 -147 153 -148q70 0 125 34t76 93 q20 49 20 164v39q-223 0 -293 -35q-81 -41 -81 -147z" />
<glyph unicode="&#xe4;" horiz-adv-x="1116" d="M82 272q0 82 42 157t114 122q70 41 169 56.5t332 19.5v39q0 106 -41 151t-137 45q-80 0 -116.5 -35.5t-45.5 -119.5h-272q8 158 112.5 231.5t319.5 73.5q231 0 348 -92q104 -84 105 -254v-381q0 -203 18 -285h-254q-23 70 -22 123q-61 -80 -135 -116t-189 -36 q-156 0 -252 84t-96 217zM225 1167v240h262v-240h-262zM365 293q0 -147 153 -148q70 0 125 34t76 93q20 49 20 164v39q-223 0 -293 -35q-81 -41 -81 -147zM637 1167v240h264v-240h-264z" />
<glyph unicode="&#xe5;" horiz-adv-x="1116" d="M82 272q0 82 42 157t114 122q70 41 169 56.5t332 19.5v39q0 106 -41 151t-137 45q-80 0 -116.5 -35.5t-45.5 -119.5h-272q8 158 112.5 231.5t319.5 73.5q231 0 348 -92q104 -84 105 -254v-381q0 -203 18 -285h-254q-23 70 -22 123q-61 -80 -135 -116t-189 -36 q-156 0 -252 84t-96 217zM268 1309q0 86 79 138t216 52q139 0 216 -50t77 -138q0 -92 -75.5 -142.5t-217.5 -50.5q-143 0 -219 49.5t-76 141.5zM365 293q0 -147 153 -148q70 0 125 34t76 93q20 49 20 164v39q-223 0 -293 -35q-81 -41 -81 -147zM444 1309q0 -72 115 -72 q121 0 121 72q0 70 -115 69q-121 1 -121 -69z" />
<glyph unicode="&#xe6;" horiz-adv-x="1763" d="M78 274q0 121 81 206t224 114q102 23 356 24q-2 227 -178 228q-68 0 -109.5 -35t-45.5 -98h-271q2 84 37 141q98 158 360 158q231 0 355 -150q137 150 348 150q213 0 329.5 -132t116.5 -368v-74h-663q-4 -14 -4 -45q0 -102 59 -186q55 -68 148 -68q158 0 170 185h270 q-10 -162 -123 -257.5t-297 -95.5q-264 0 -379 181q-51 -74 -108 -107q-121 -74 -297 -74q-172 0 -275.5 83t-103.5 220zM365 287q0 -68 43 -108t114 -40q217 0 217 324l-116 4q-139 0 -197 -47q-61 -47 -61 -133zM1014 604h375v49q-2 88 -49.5 140.5t-127.5 52.5 q-94 0 -146 -62.5t-52 -179.5z" />
<glyph unicode="&#xe7;" horiz-adv-x="1116" d="M100 485q0 154 55.5 271.5t155.5 181.5q121 74 291 74q203 0 316.5 -94.5t121.5 -266.5h-280q-8 102 -48 148.5t-120 46.5q-104 0 -152.5 -79t-48.5 -253q0 -375 203 -375q80 0 125 54.5t45 152.5v14h276q2 -14 2 -20q0 -162 -125.5 -265.5t-324.5 -103.5 q-240 0 -373 146q-119 130 -119 368zM344 -406l178 281h232l-123 -281h-287z" />
<glyph unicode="&#xe8;" horiz-adv-x="1116" d="M82 481.5q0 241.5 130 386t351 144.5q233 0 354 -133.5t121 -389.5v-51h-680v-26q0 -129 55.5 -201t151.5 -72q49 0 97.5 27t68.5 67q14 31 25 91h262q-6 -160 -128 -256.5t-323 -96.5q-231 0 -358 134.5t-127 376zM213 1421h332l194 -303h-237zM369 604h385 q0 242 -185 242q-175 0 -200 -242z" />
<glyph unicode="&#xe9;" horiz-adv-x="1116" d="M82 481.5q0 241.5 130 386t351 144.5q233 0 354 -133.5t121 -389.5v-51h-680v-26q0 -129 55.5 -201t151.5 -72q49 0 97.5 27t68.5 67q14 31 25 91h262q-6 -160 -128 -256.5t-323 -96.5q-231 0 -358 134.5t-127 376zM369 604h385q0 242 -185 242q-175 0 -200 -242z M383 1118l201 303h325l-284 -303h-242z" />
<glyph unicode="&#xea;" horiz-adv-x="1116" d="M82 481.5q0 241.5 130 386t351 144.5q233 0 354 -133.5t121 -389.5v-51h-680v-26q0 -129 55.5 -201t151.5 -72q49 0 97.5 27t68.5 67q14 31 25 91h262q-6 -160 -128 -256.5t-323 -96.5q-231 0 -358 134.5t-127 376zM221 1118l201 303h289l200 -303h-215l-137 160 l-135 -160h-203zM369 604h385q0 242 -185 242q-175 0 -200 -242z" />
<glyph unicode="&#xeb;" horiz-adv-x="1116" d="M82 481.5q0 241.5 130 386t351 144.5q233 0 354 -133.5t121 -389.5v-51h-680v-26q0 -129 55.5 -201t151.5 -72q49 0 97.5 27t68.5 67q14 31 25 91h262q-6 -160 -128 -256.5t-323 -96.5q-231 0 -358 134.5t-127 376zM225 1167v240h262v-240h-262zM369 604h385 q0 242 -185 242q-175 0 -200 -242zM637 1167v240h264v-240h-264z" />
<glyph unicode="&#xec;" horiz-adv-x="505" d="M-18 1378h229l127 -272h-127zM123 0v983h254v-983h-254z" />
<glyph unicode="&#xed;" horiz-adv-x="505" d="M123 0v983h254v-983h-254zM172 1106l127 272h229l-229 -272h-127z" />
<glyph unicode="&#xee;" horiz-adv-x="505" d="M-35 1106l197 272h194l189 -272h-144l-147 180l-150 -180h-139zM123 0v983h254v-983h-254z" />
<glyph unicode="&#xef;" horiz-adv-x="505" d="M-16 1130v222h200v-222h-200zM123 0v983h254v-983h-254zM322 1130v222h200v-222h-200z" />
<glyph unicode="&#xf0;" horiz-adv-x="1191" d="M84 496q0 233 143.5 375.5t380.5 142.5q43 0 80 -6q-61 113 -194 190l-283 -178l-72 115l209 129q-82 37 -256 59l64 125q258 -31 360 -72l262 170l74 -116l-186 -117q113 -70 184.5 -140.5t126.5 -164.5q129 -233 129 -514q0 -242 -139.5 -382.5t-382.5 -140.5 q-229 0 -364.5 143.5t-135.5 381.5zM377 508q0 -172 58.5 -264t166.5 -92q102 0 156.5 82.5t54.5 240.5q0 358 -217 359q-106 0 -162.5 -84t-56.5 -242z" />
<glyph unicode="&#xf1;" horiz-adv-x="1112" d="M115 0v983h254v-141q106 158 295 157q158 0 243.5 -88t85.5 -252v-659h-254v606q0 176 -164 176q-94 0 -150 -52t-56 -140v-590h-254zM225 1130q6 106 52.5 166t121.5 60q35 0 101 -23l131 -47q25 -10 59 -10q55 0 68 88h112q-12 -231 -174 -231q-47 0 -98 22l-131 47 q-31 10 -53 10q-59 0 -74 -82h-115z" />
<glyph unicode="&#xf2;" horiz-adv-x="1191" d="M86 494q0 231 143.5 374.5t378.5 143.5q227 0 363.5 -147.5t136.5 -391.5q0 -227 -142.5 -364.5t-381.5 -137.5q-227 0 -362.5 142.5t-135.5 380.5zM250 1421h332l196 -303h-239zM379 506q0 -172 58.5 -263t166.5 -91q102 0 156.5 82.5t54.5 238.5q0 358 -217 358 q-106 0 -162.5 -82.5t-56.5 -242.5z" />
<glyph unicode="&#xf3;" horiz-adv-x="1191" d="M86 494q0 231 143.5 374.5t378.5 143.5q227 0 363.5 -147.5t136.5 -391.5q0 -227 -142.5 -364.5t-381.5 -137.5q-227 0 -362.5 142.5t-135.5 380.5zM379 506q0 -172 58.5 -263t166.5 -91q102 0 156.5 82.5t54.5 238.5q0 358 -217 358q-106 0 -162.5 -82.5t-56.5 -242.5z M420 1118l201 303h327l-286 -303h-242z" />
<glyph unicode="&#xf4;" horiz-adv-x="1191" d="M86 494q0 231 143.5 374.5t378.5 143.5q227 0 363.5 -147.5t136.5 -391.5q0 -227 -142.5 -364.5t-381.5 -137.5q-227 0 -362.5 142.5t-135.5 380.5zM258 1118l201 303h289l202 -303h-217l-135 160l-135 -160h-205zM379 506q0 -172 58.5 -263t166.5 -91q102 0 156.5 82.5 t54.5 238.5q0 358 -217 358q-106 0 -162.5 -82.5t-56.5 -242.5z" />
<glyph unicode="&#xf5;" horiz-adv-x="1191" d="M86 494q0 231 143.5 374.5t378.5 143.5q227 0 363.5 -147.5t136.5 -391.5q0 -227 -142.5 -364.5t-381.5 -137.5q-227 0 -362.5 142.5t-135.5 380.5zM246 1118q8 150 61 221.5t160 71.5q82 0 168 -55q92 -57 123 -58q27 0 37 21.5t12 91.5h180q-4 -293 -219 -293 q-96 0 -193 62q-76 51 -102 51q-23 0 -32 -20.5t-15 -92.5h-180zM379 506q0 -172 58.5 -263t166.5 -91q102 0 156.5 82.5t54.5 238.5q0 358 -217 358q-106 0 -162.5 -82.5t-56.5 -242.5z" />
<glyph unicode="&#xf6;" horiz-adv-x="1191" d="M86 494q0 231 143.5 374.5t378.5 143.5q227 0 363.5 -147.5t136.5 -391.5q0 -227 -142.5 -364.5t-381.5 -137.5q-227 0 -362.5 142.5t-135.5 380.5zM264 1167v240h264v-240h-264zM379 506q0 -172 58.5 -263t166.5 -91q102 0 156.5 82.5t54.5 238.5q0 358 -217 358 q-106 0 -162.5 -82.5t-56.5 -242.5zM676 1167v240h264v-240h-264z" />
<glyph unicode="&#xf7;" horiz-adv-x="1134" d="M96 334v231h940v-231h-940zM446 -20v237h242v-237h-242zM446 682v238h242v-238h-242z" />
<glyph unicode="&#xf8;" horiz-adv-x="1191" d="M86 496q0 229 143.5 372.5t376.5 143.5q141 0 244 -54l100 144h144l-146 -207q164 -160 164 -416q0 -231 -142.5 -369.5t-381.5 -138.5q-143 0 -250 54l-100 -140h-144l146 207q-154 154 -154 404zM379 506q0 -109 22 -182l326 460q-63 47 -127 47q-221 1 -221 -325z M465 209q66 -57 141 -57q102 0 157.5 82.5t55.5 236.5q0 129 -24 203z" />
<glyph unicode="&#xf9;" horiz-adv-x="1112" d="M106 299v684h254v-631q0 -178 164 -178q92 0 148.5 53.5t56.5 141.5v614h256v-983h-256v117q-104 -158 -295 -158q-158 0 -243 89t-85 251zM297 1378h229l127 -272h-127z" />
<glyph unicode="&#xfa;" horiz-adv-x="1112" d="M106 299v684h254v-631q0 -178 164 -178q92 0 148.5 53.5t56.5 141.5v614h256v-983h-256v117q-104 -158 -295 -158q-158 0 -243 89t-85 251zM440 1106l127 272h230l-230 -272h-127z" />
<glyph unicode="&#xfb;" horiz-adv-x="1112" d="M106 299v684h254v-631q0 -178 164 -178q92 0 148.5 53.5t56.5 141.5v614h256v-983h-256v117q-104 -158 -295 -158q-158 0 -243 89t-85 251zM254 1106l197 272h196l187 -272h-140l-149 180l-150 -180h-141z" />
<glyph unicode="&#xfc;" horiz-adv-x="1112" d="M106 299v684h254v-631q0 -178 164 -178q92 0 148.5 53.5t56.5 141.5v614h256v-983h-256v117q-104 -158 -295 -158q-158 0 -243 89t-85 251zM274 1130v222h201v-222h-201zM614 1130v222h199v-222h-199z" />
<glyph unicode="&#xfd;" horiz-adv-x="1011" d="M16 983h281l217 -715l203 715h262l-404 -1163q-33 -88 -62.5 -127t-80.5 -62q-84 -31 -184 -30q-41 0 -92 8v190q41 -10 67 -10q68 0 114 47t46 117v6zM393 1106l127 272h230l-230 -272h-127z" />
<glyph unicode="&#xfe;" horiz-adv-x="1191" d="M121 -356v1771h293v-543q90 139 282 140q190 0 302 -136.5t112 -363.5q0 -240 -119 -390.5t-309 -150.5q-166 0 -268 115v-442h-293zM401 487q0 -164 51.5 -249.5t147.5 -85.5q98 0 156.5 91t58.5 253q0 336 -199 335q-61 0 -118 -45q-97 -82 -97 -299z" />
<glyph unicode="&#xff;" horiz-adv-x="1011" d="M16 983h281l217 -715l203 715h262l-404 -1163q-33 -88 -62.5 -127t-80.5 -62q-84 -31 -184 -30q-41 0 -92 8v190q41 -10 67 -10q68 0 114 47t46 117v6zM227 1130v222h201v-222h-201zM565 1130v222h201v-222h-201z" />
<glyph unicode="&#x152;" horiz-adv-x="2054" d="M109 694q0 211 80.5 377t224.5 248q94 55 199.5 75.5t289.5 20.5h1041v-213h-637v-368h614v-213h-614v-408h655v-213h-1061q-317 0 -500 100q-139 76 -215.5 233.5t-76.5 360.5zM426 690q0 -246 114.5 -365.5t350.5 -119.5q25 0 123 8v991q-88 8 -131 8q-457 0 -457 -522 z" />
<glyph unicode="&#x153;" horiz-adv-x="1878" d="M80 485q0 236 141 381.5t371 145.5q248 0 385 -174q113 174 364 174q131 0 233.5 -52.5t158.5 -148.5q72 -121 71 -334v-39h-676v-28q0 -125 56.5 -198t152.5 -73q80 0 126 47t53 138h272q-18 -119 -72 -193q-115 -160 -358 -160q-252 0 -381 176q-143 -176 -397 -176 q-227 0 -363.5 141.5t-136.5 372.5zM373 506q0 -174 61.5 -270.5t169.5 -96.5q111 0 176.5 96.5t65.5 264.5t-59.5 257t-174 89t-177 -88t-62.5 -252zM1126 604h390q2 10 2 37q0 94 -51.5 149.5t-137.5 55.5q-191 0 -203 -242z" />
<glyph unicode="&#x178;" horiz-adv-x="1294" d="M53 1415h324l289 -624l270 624h326l-449 -891v-524h-291v524zM377 1552v238h213v-238h-213zM737 1552v238h213v-238h-213z" />
<glyph unicode="&#x2c6;" horiz-adv-x="606" d="M14 1106l197 272h195l188 -272h-143l-148 180l-149 -180h-140z" />
<glyph unicode="&#x2dc;" horiz-adv-x="606" d="M-16 1130q6 106 51 166t121 60q35 0 100 -23l129 -47q37 -10 64 -10q57 0 65 88h115q-12 -231 -174 -231q-47 0 -101 22l-129 47q-35 10 -53 10q-61 0 -74 -82h-114z" />
<glyph unicode="&#x2000;" horiz-adv-x="921" />
<glyph unicode="&#x2001;" horiz-adv-x="1843" />
<glyph unicode="&#x2002;" horiz-adv-x="921" />
<glyph unicode="&#x2003;" horiz-adv-x="1843" />
<glyph unicode="&#x2004;" horiz-adv-x="614" />
<glyph unicode="&#x2005;" horiz-adv-x="460" />
<glyph unicode="&#x2006;" horiz-adv-x="307" />
<glyph unicode="&#x2007;" horiz-adv-x="307" />
<glyph unicode="&#x2008;" horiz-adv-x="229" />
<glyph unicode="&#x2009;" horiz-adv-x="368" />
<glyph unicode="&#x200a;" horiz-adv-x="102" />
<glyph unicode="&#x2011;" horiz-adv-x="647" d="M51 401v263h527v-263h-527z" />
<glyph unicode="&#x2012;" horiz-adv-x="647" d="M51 401v263h527v-263h-527z" />
<glyph unicode="&#x2013;" horiz-adv-x="1099" d="M0 401v203h1100v-203h-1100z" />
<glyph unicode="&#x2014;" horiz-adv-x="1961" d="M0 401v203h1962v-203h-1962z" />
<glyph unicode="&#x2018;" horiz-adv-x="540" d="M131 911v211q0 154 86 228q72 59 174 65v-90q-160 -27 -153 -172h153v-242h-260z" />
<glyph unicode="&#x2019;" horiz-adv-x="540" d="M129 911v88q160 31 154 175h-154v241h262v-211q0 -154 -88 -227q-76 -62 -174 -66z" />
<glyph unicode="&#x201a;" horiz-adv-x="540" d="M129 0v242h262v-211q0 -152 -88 -228q-72 -59 -174 -65v90q160 27 154 172h-154z" />
<glyph unicode="&#x201c;" horiz-adv-x="970" d="M137 911v211q0 152 88 228q72 59 174 65v-90q-160 -27 -155 -172h155v-242h-262zM578 911v211q0 152 88 228q72 59 174 65v-90q-160 -27 -154 -172h154v-242h-262z" />
<glyph unicode="&#x201d;" horiz-adv-x="970" d="M141 911v88q162 31 156 175h-156v241h262v-211q0 -156 -86 -227q-76 -62 -176 -66zM592 911v88q162 31 156 175h-156v241h262v-211q0 -156 -88 -227q-72 -62 -174 -66z" />
<glyph unicode="&#x201e;" horiz-adv-x="970" d="M139 0v242h262v-211q0 -154 -86 -228q-72 -59 -176 -65v90q162 27 156 172h-156zM578 0v242h260v-211q0 -154 -86 -228q-72 -59 -174 -65v90q160 27 153 172h-153z" />
<glyph unicode="&#x2022;" horiz-adv-x="679" d="M96 582q0 102 72 172.5t176 70.5q96 0 167 -71.5t71 -172t-71 -171t-171 -70.5t-172 71t-72 171z" />
<glyph unicode="&#x2026;" horiz-adv-x="1941" d="M178 0v283h291v-283h-291zM825 0v283h291v-283h-291zM1470 0v283h293v-283h-293z" />
<glyph unicode="&#x202f;" horiz-adv-x="368" />
<glyph unicode="&#x2039;" horiz-adv-x="606" d="M152 397v207l303 273v-213l-185 -164l185 -162v-207z" />
<glyph unicode="&#x203a;" horiz-adv-x="606" d="M145 131v213l185 162l-185 162v209l306 -267v-209z" />
<glyph unicode="&#x205f;" horiz-adv-x="460" />
<glyph unicode="&#x20ac;" horiz-adv-x="1296" d="M-49 487l59 160h115v39q0 57 2 76h-176l59 160h135q53 264 197.5 392t390.5 128q186 0 319.5 -75t174.5 -204q14 -49 16 -110h-301q-8 86 -64.5 133t-150.5 47q-115 0 -181.5 -71.5t-103.5 -239.5h600l-59 -160h-559q-2 -20 -2 -64q0 -33 2 -51h528l-57 -160h-457 q35 -162 101.5 -234.5t177.5 -72.5q154 0 178 152h311q-16 -166 -144 -263.5t-333 -97.5q-307 0 -459 203q-84 106 -129 313h-190z" />
<glyph unicode="&#x2122;" horiz-adv-x="1941" d="M137 1264v151h709v-151h-258v-734h-185v734h-266zM942 530v885h266l166 -680l164 680h266v-885h-178v678l-160 -678h-182l-166 678v-678h-176z" />
<glyph unicode="&#xe000;" horiz-adv-x="985" d="M0 985h985v-985h-985v985z" />
<glyph unicode="&#xfb01;" horiz-adv-x="1112" d="M16 795v168h140v118q0 246 250 246q74 0 145 -6v-191q-31 6 -72 7q-70 0 -69 -78v-96h151v-168h-151v-795h-254v795h-140zM743 0v983h254v-983h-254zM743 1100v227h254v-227h-254z" />
<glyph unicode="&#xfb02;" horiz-adv-x="1112" d="M23 795v168h137v118q0 246 252 246q76 0 145 -6v-191q-33 6 -74 7q-68 0 -67 -78v-96h149v-168h-149v-795h-256v795h-137zM739 0v1415h254v-1415h-254z" />
<glyph unicode="&#xfb03;" horiz-adv-x="1718" d="M1335 0v983h254v-983h-254zM1335 1100v227h254v-227h-254zM631 795v168h139v118q0 246 252 246q76 0 145 -6v-191q-33 6 -74 7q-70 0 -69 -78v-96h151v-168h-151v-795h-254v795h-139zM25 795v168h139v118q0 246 252 246q76 0 145 -6v-191q-33 6 -74 7q-70 0 -69 -78v-96 h151v-168h-151v-795h-254v795h-139z" />
<glyph unicode="&#xfb04;" horiz-adv-x="1718" d="M1335 0v1415h254v-1415h-254zM631 795v168h139v118q0 246 252 246q76 0 145 -6v-191q-33 6 -74 7q-70 0 -69 -78v-96h151v-168h-151v-795h-254v795h-139zM25 795v168h139v118q0 246 252 246q76 0 145 -6v-191q-33 6 -74 7q-70 0 -69 -78v-96h151v-168h-151v-795h-254v795 h-139z" />
</font>
</defs>
</svg>
