<?xml version="1.0" standalone="no"?>
<!DOCTYPE svg PUBLIC "-//W3C//DTD SVG 1.1//EN" "http://www.w3.org/Graphics/SVG/1.1/DTD/svg11.dtd" >
<svg xmlns="http://www.w3.org/2000/svg">
<metadata>
This is a custom SVG webfont generated by Font Squirrel.
Copyright   : Copyright 2000 by URW Design  Development
Foundry     : URW Design  Development
</metadata>
<defs>
<font id="AndFRegular" horiz-adv-x="1296" >
<font-face units-per-em="2048" ascent="1536" descent="-512" />
<missing-glyph horiz-adv-x="522" />
<glyph unicode=" "  horiz-adv-x="522" />
<glyph unicode="&#x09;" horiz-adv-x="522" />
<glyph unicode="&#xa0;" horiz-adv-x="522" />
<glyph unicode="!" horiz-adv-x="692" d="M236 1436h231l-29 -1082h-168zM240 0v211h225v-211h-225z" />
<glyph unicode="&#x22;" horiz-adv-x="1032" d="M219 1436h252l-35 -588h-182zM565 1436h252l-35 -588h-182z" />
<glyph unicode="#" d="M135 565l41 121h246l61 178h-243l36 125h250l107 305h131l-107 -305h195l106 305h136l-107 -305h254l-43 -125h-254l-63 -178h254l-41 -121h-254l-107 -305h-135l107 305h-193l-106 -305h-127l102 305h-246zM553 686h192l64 178h-195z" />
<glyph unicode="$" d="M268 543h197q12 -82 31 -113q43 -72 184 -72q98 0 156.5 39t58.5 103q0 61 -59 98q-31 20 -224 61q-164 37 -240.5 108t-76.5 187q0 127 96 211q66 57 189 80v240h198v-240q152 -23 216.5 -87t64.5 -191v-27h-199q-6 90 -46 128t-130 38q-88 0 -139 -36t-51 -97 q0 -57 47 -86q41 -25 170 -53q137 -33 203.5 -59.5t107.5 -67.5q72 -68 72 -187q0 -147 -105 -229q-76 -59 -211 -82v-264h-198v264q-314 37 -312 334z" />
<glyph unicode="%" horiz-adv-x="2052" d="M248 1057q0 176 85 285.5t222 109.5t219 -110.5t82 -297.5q0 -164 -86 -273t-215 -109q-137 0 -222 109.5t-85 285.5zM389 1071q0 -297 166 -297q76 0 118 72t42 203q0 143 -41 218.5t-117 75.5t-122 -73.5t-46 -198.5zM629 0l735 1442h119l-733 -1442h-121zM1249 389 q0 172 85 280.5t220 108.5q137 0 220.5 -110.5t83.5 -296.5q0 -168 -86 -276.5t-218 -108.5q-135 0 -220 111.5t-85 291.5zM1391 385q0 -137 44 -212t124 -75q74 0 116.5 71t42.5 193q0 305 -172 306q-155 0 -155 -283z" />
<glyph unicode="&#x26;" horiz-adv-x="1560" d="M152 408q0 193 141 321q49 43 156 102q-143 164 -144 332q0 131 103.5 213t271.5 82q160 0 256 -81t96 -214q0 -139 -102 -229q-63 -59 -201 -135l363 -381q23 133 22 246q0 66 -8 178h215v-72q0 -293 -100 -483l295 -287h-289l-129 131q-117 -96 -202 -128t-222 -32 q-236 0 -379 120t-143 317zM367 438q0 -111 86 -192q88 -90 235 -90q82 0 142.5 18.5t148.5 69.5l-432 450q-102 -72 -141 -127t-39 -129zM520 1157q0 -55 20.5 -102t82.5 -133q137 80 179 125t42 114q0 63 -43 101t-115 38q-78 0 -122 -37.5t-44 -105.5z" />
<glyph unicode="'" horiz-adv-x="692" d="M217 1436h252l-35 -588h-182z" />
<glyph unicode="(" horiz-adv-x="692" d="M193 567q0 391 208 910h158l-37 -150q-82 -322 -103.5 -452t-21.5 -297q0 -340 164 -900h-160q-208 535 -208 889z" />
<glyph unicode=")" horiz-adv-x="692" d="M135 1477h160q115 -295 162 -497t47 -392q0 -389 -209 -910h-158l37 150q82 322 104.5 453t22.5 294q0 343 -166 902z" />
<glyph unicode="*" d="M309 1100l51 164l230 -68v240h178v-240l225 68l58 -164l-220 -72l140 -188l-154 -105l-129 197l-133 -197l-152 105l138 188z" />
<glyph unicode="+" horiz-adv-x="2052" d="M471 668v151h510v498h149v-498h508v-151h-508v-521h-149v521h-510z" />
<glyph unicode="," horiz-adv-x="692" d="M160 -178l125 385h243l-200 -385h-168z" />
<glyph unicode="-" horiz-adv-x="692" d="M82 438v185h522v-185h-522z" />
<glyph unicode="." horiz-adv-x="692" d="M240 0v209h225v-209h-225z" />
<glyph unicode="/" horiz-adv-x="692" d="M82 0l407 1436h187l-402 -1436h-192z" />
<glyph unicode="0" d="M90 717q0 340 153.5 539.5t411.5 199.5q256 0 404.5 -197.5t148.5 -539.5q0 -295 -121 -496q-66 -115 -185.5 -180.5t-260.5 -65.5q-254 0 -402.5 199t-148.5 541zM309 711q0 -240 72 -392q39 -84 110.5 -132t157.5 -48q162 0 252 149.5t90 416.5q0 254 -63 395 q-39 92 -113 143t-166 51q-164 0 -252 -152t-88 -431z" />
<glyph unicode="1" d="M285 1008v145q209 27 269 72t108 211h133v-1436h-197v1008h-313z" />
<glyph unicode="2" d="M152 0q12 244 95 374t308 257l184 104q184 109 185 271q0 111 -76 183.5t-193 72.5q-164 0 -235 -132q-33 -70 -41 -206h-195q6 219 78 323q123 188 400 189q201 0 327 -115q135 -123 135 -311q0 -270 -305 -435l-201 -108q-127 -76 -181 -136.5t-64 -135.5h741v-195 h-962z" />
<glyph unicode="3" d="M133 397h211q23 -133 93.5 -194.5t197.5 -61.5q131 0 214 75t83 194q0 129 -87 190.5t-274 61.5h-79v161h79q150 0 234 65.5t84 184.5q0 100 -72 160.5t-190 60.5q-252 0 -260 -254h-215q10 125 34.5 186.5t81.5 112.5q129 117 363 117q217 0 346 -103.5t129 -273.5 q0 -164 -119 -260q-63 -51 -139 -69q102 -20 168 -66q135 -98 135 -270q0 -190 -146.5 -312t-375.5 -122q-219 0 -350.5 108t-145.5 309z" />
<glyph unicode="4" d="M139 340v199l647 897h146v-918h211v-178h-211v-340h-195v340h-598zM324 518h413v576z" />
<glyph unicode="5" d="M152 369h196q59 -238 281 -238q141 0 220 83t79 232q0 156 -80 243t-219 87q-82 0 -138.5 -28.5t-117.5 -102.5h-176l108 791h750v-195h-592l-49 -362q104 74 248 73q207 0 336.5 -134t129.5 -347q0 -227 -138 -371.5t-357 -144.5q-123 0 -226.5 45t-164.5 127 q-55 76 -90 242z" />
<glyph unicode="6" d="M158 680q0 328 102 514q133 264 451 264q242 0 350 -158q55 -74 72 -231h-211q-12 123 -62.5 176t-152.5 53q-180 0 -263 -139q-37 -70 -64.5 -206t-23.5 -240q115 242 375 241q188 0 313 -136t125 -345q0 -215 -141 -354t-356 -139q-141 0 -252 64.5t-170 180.5 q-92 164 -92 455zM395 461q0 -143 77 -231.5t202 -88.5q123 0 198.5 89t75.5 233q0 156 -71.5 243t-198.5 87q-131 0 -207 -90t-76 -242z" />
<glyph unicode="7" d="M174 1241v195h967v-162q-242 -322 -380 -626t-198 -648h-209q82 358 205 624.5t369 616.5h-754z" />
<glyph unicode="8" d="M137 391q0 279 283 363q-74 27 -127 73q-109 96 -109 250q0 174 125 276.5t336 102.5q215 0 342 -101.5t127 -271.5q0 -248 -233 -327q88 -25 151 -80q129 -106 129 -283q0 -182 -142 -297.5t-368 -115.5q-229 0 -371.5 113.5t-142.5 297.5zM354 410q0 -119 83 -194 t218 -75q125 0 207 77t82 194q0 119 -81 189.5t-218 70.5q-135 0 -213 -70.5t-78 -191.5zM385 1071.5q0 -102.5 77 -170t193 -67.5q109 0 183.5 69.5t74.5 167.5t-73.5 160.5t-190.5 62.5q-121 0 -192.5 -60t-71.5 -162.5z" />
<glyph unicode="9" d="M137 373h217q41 -231 260 -232q172 0 254 143.5t82 448.5q-133 -190 -368 -190q-190 0 -316.5 127t-126.5 321q0 203 137.5 334t350.5 131q133 0 246.5 -60.5t175.5 -164.5q106 -174 106 -506q0 -350 -115 -530q-61 -100 -174.5 -157.5t-251.5 -57.5q-205 0 -328.5 101.5 t-148.5 291.5zM360 1012q0 -139 77 -222t208 -83q123 0 198 79.5t75 210.5t-79 214t-204 83t-200 -76.5t-75 -205.5z" />
<glyph unicode=":" horiz-adv-x="692" d="M236 0v209h225v-209h-225zM236 795v209h225v-209h-225z" />
<glyph unicode=";" horiz-adv-x="692" d="M154 -178l125 385h243l-200 -385h-168zM231 795v209h226v-209h-226z" />
<glyph unicode="&#x3c;" horiz-adv-x="2052" d="M403 545v157l1246 553v-178l-1035 -454l1035 -455v-176z" />
<glyph unicode="=" horiz-adv-x="2052" d="M471 498v151h1167v-151h-1167zM471 817v152h1167v-152h-1167z" />
<glyph unicode="&#x3e;" horiz-adv-x="2052" d="M403 -8v178l1035 453l-1035 454v178l1246 -553v-157z" />
<glyph unicode="?" horiz-adv-x="1069" d="M203 1260v174q113 25 250 24q201 0 324.5 -99t123.5 -261q0 -102 -50 -185.5t-189 -210.5q-80 -72 -102.5 -117.5t-22.5 -135.5v-125h-175v125q0 143 17.5 188t107.5 131q190 182 191 309q0 100 -74 157.5t-203 57.5q-51 1 -198 -32zM340 0v211h223v-211h-223z" />
<glyph unicode="@" horiz-adv-x="1957" d="M61 512q0 193 83 378t229 316q127 117 302 184.5t351 67.5q346 0 578.5 -207t232.5 -524q0 -248 -164 -440q-152 -176 -368 -176q-94 0 -152.5 36.5t-69.5 100.5q-61 -66 -116.5 -96.5t-130.5 -30.5q-137 0 -222.5 104.5t-85.5 259.5q0 217 146.5 383t343.5 166 q80 0 138 -42t77 -105l35 106h184l-178 -559q-25 -61 -25 -92q0 -33 25.5 -54.5t62.5 -21.5q119 0 221.5 140.5t102.5 306.5q0 266 -185.5 423.5t-467.5 157.5q-305 0 -532.5 -225t-227.5 -528q0 -274 211 -465t516 -191q178 0 371 78l63 -153q-240 -86 -453 -86 q-371 0 -633 230t-262 558zM725 483q0 -96 43 -157.5t117 -61.5q88 0 170 123q35 53 67.5 154.5t34.5 171.5q4 78 -36 127t-115 49q-115 0 -198 -121t-83 -285z" />
<glyph unicode="A" horiz-adv-x="1523" d="M61 0l586 1436h221l590 -1436h-231l-140 356h-669l-135 -356h-222zM485 535h539l-272 714z" />
<glyph unicode="B" d="M184 0v1436h518q127 0 193 -14.5t127 -55.5q147 -102 147 -293q0 -125 -68.5 -206t-187.5 -107q145 -25 224.5 -114t79.5 -238q0 -96 -39 -179.5t-107 -132.5q-135 -96 -352 -96h-535zM403 178h291q297 0 297 236q0 143 -110 207q-86 43 -273 43h-205v-486zM403 842h248 q139 0 205 45q88 59 88 176q0 115 -72 160q-49 35 -180 34h-289v-415z" />
<glyph unicode="C" horiz-adv-x="1413" d="M88 700q0 358 201 578q162 180 456 180q471 0 560 -481h-207q-31 152 -101 215q-92 88 -272 88q-203 0 -318.5 -153.5t-115.5 -424.5q0 -262 120.5 -414.5t327.5 -152.5q231 0 322 176q39 80 65 226h207q-68 -582 -596 -582q-276 0 -440 170q-209 215 -209 575z" />
<glyph unicode="D" horiz-adv-x="1484" d="M184 0v1436h488q354 0 520 -193q168 -197 168 -532q0 -340 -177 -525.5t-499 -185.5h-500zM403 178h259q238 0 352 137q121 145 121 404q0 264 -119 405q-61 72 -149.5 102.5t-233.5 30.5h-230v-1079z" />
<glyph unicode="E" horiz-adv-x="1183" d="M182 0v1436h873v-179h-654v-419h611v-179h-611v-481h676v-178h-895z" />
<glyph unicode="F" horiz-adv-x="1144" d="M186 0v1436h873v-179h-653v-426h624v-178h-624v-653h-220z" />
<glyph unicode="G" horiz-adv-x="1521" d="M82 702q0 193 67.5 355t192.5 264q168 137 428 137q248 0 407.5 -123t198.5 -348h-205q-29 139 -135 216t-266 77q-221 0 -354 -154.5t-133 -412.5q0 -281 147 -439q129 -139 348 -139q190 0 312 119t122 305v29h-430v180h611v-776h-133l-43 178q-190 -215 -478 -215 q-289 0 -473 209.5t-184 537.5z" />
<glyph unicode="H" horiz-adv-x="1484" d="M174 0v1436h219v-598h701v598h217v-1436h-217v659h-701v-659h-219z" />
<glyph unicode="I" horiz-adv-x="577" d="M182 0v1436h219v-1436h-219z" />
<glyph unicode="J" horiz-adv-x="1144" d="M74 377h211q8 -123 60 -178.5t157 -55.5q125 0 192 64q35 35 47.5 86t12.5 170v973h217v-942q0 -242 -76 -349q-55 -82 -159.5 -127t-235.5 -45q-420 1 -426 404z" />
<glyph unicode="K" horiz-adv-x="1341" d="M178 0v1436h219v-1436h-219zM422 797l596 639h270l-604 -639l662 -797h-289z" />
<glyph unicode="L" horiz-adv-x="1107" d="M176 0v1436h219v-1258h656v-178h-875z" />
<glyph unicode="M" horiz-adv-x="1861" d="M174 0v1436h340l358 -1037q12 -37 48 -182q29 113 67 223l348 996h346v-1436h-219v1251l-446 -1251h-187l-436 1251v-1251h-219z" />
<glyph unicode="N" horiz-adv-x="1484" d="M168 0v1436h283l675 -1209v1209h191v-1436h-297l-662 1174v-1174h-190z" />
<glyph unicode="O" horiz-adv-x="1521" d="M70 706.5q0 333.5 192.5 542.5t499.5 209q315 0 504.5 -209t189.5 -553q0 -176 -65.5 -332.5t-182.5 -257.5q-180 -152 -444 -151q-309 0 -501.5 209t-192.5 542.5zM270 707q0 -258 135.5 -415t358.5 -157q221 0 356 155.5t135 409.5q0 264 -133 422t-360 158 q-221 0 -356.5 -156.5t-135.5 -416.5z" />
<glyph unicode="P" horiz-adv-x="1220" d="M172 0v1436h410q186 0 266 -13.5t156 -58.5q82 -49 129 -140t47 -202q0 -209 -156 -324q-70 -55 -155 -75.5t-232 -20.5h-246v-602h-219zM391 780h230q150 0 227 43q106 66 106 199q0 68 -32.5 121t-90.5 78q-80 37 -243 36h-197v-477z" />
<glyph unicode="Q" horiz-adv-x="1521" d="M70 706.5q0 333.5 192.5 542.5t501.5 209t500.5 -208t191.5 -539q0 -338 -194 -551l182 -150l-105 -129l-204 172q-162 -98 -371 -98q-309 0 -501.5 209t-192.5 542.5zM270 707q0 -258 134.5 -415t357.5 -157q106 0 213 45l-139 117l102 125l172 -141q145 164 145 428 q0 258 -134 414.5t-357 156.5t-358.5 -156.5t-135.5 -416.5z" />
<glyph unicode="R" horiz-adv-x="1335" d="M178 0v1436h541q139 0 218 -15.5t146 -56.5q72 -41 113 -119t41 -170q0 -166 -121 -258q-74 -53 -162 -74q135 -31 181.5 -108.5t66.5 -321.5q29 -233 58 -313h-236q-39 168 -51 340q-10 125 -22.5 177t-39.5 77q-59 53 -231 53h-283v-647h-219zM397 825h285 q158 0 233 41q96 53 97 183q0 127 -109 176q-68 33 -219 32h-287v-432z" />
<glyph unicode="S" horiz-adv-x="1306" d="M88 471h193q-2 -135 71 -221q94 -115 318 -115q172 0 254 58q96 66 96 188q0 80 -59.5 132t-192.5 87l-350 92q-287 78 -287 342q0 195 139.5 309.5t374.5 114.5q248 0 387 -119.5t142 -339.5h-191q-4 287 -344 287q-139 0 -222 -61.5t-83 -165.5q0 -78 48 -122t175 -79 l356 -94q147 -41 228.5 -136.5t81.5 -228.5q0 -94 -44 -184t-116 -149q-145 -111 -406 -111q-330 0 -483 207q-84 116 -86 309z" />
<glyph unicode="T" horiz-adv-x="1259" d="M51 1257v179h1157v-179h-469v-1257h-219v1257h-469z" />
<glyph unicode="U" horiz-adv-x="1484" d="M174 627v809h219v-818q0 -272 82 -372q86 -102 262 -103q109 0 191 43t119 121q49 104 49 311v818h217v-809q0 -287 -88 -422q-68 -109 -198 -170.5t-294 -61.5q-139 0 -253.5 47.5t-184.5 131.5q-121 147 -121 475z" />
<glyph unicode="V" horiz-adv-x="1484" d="M66 1436h237l309 -807q12 -31 142 -414q61 205 139 414l313 807h221l-561 -1436h-235z" />
<glyph unicode="W" horiz-adv-x="2052" d="M51 1436h209l250 -1000q33 -133 43 -237l360 1237h246l344 -1243q2 8 9.5 42.5t18.5 90t25 110.5l248 1000h199l-373 -1436h-246l-301 989q-35 115 -55 248q-18 -143 -49 -248l-307 -989h-250z" />
<glyph unicode="X" horiz-adv-x="1484" d="M66 0l534 748l-498 688h287l203 -308q68 -102 151 -237q100 168 152 237l207 308h260l-483 -688l546 -748h-290l-254 367q-90 129 -152 237q-63 -106 -151 -237l-246 -367h-266z" />
<glyph unicode="Y" horiz-adv-x="1409" d="M41 1436h260l207 -320q106 -164 203 -352q111 215 213 375l194 297h232l-535 -840v-596h-219v594z" />
<glyph unicode="Z" horiz-adv-x="1257" d="M98 0v174l772 1083h-745v179h1012v-174l-777 -1084h799v-178h-1061z" />
<glyph unicode="[" horiz-adv-x="692" d="M193 -303v1765h380v-176h-170v-1413h170v-176h-380z" />
<glyph unicode="\" horiz-adv-x="692" d="M51 1436h189l403 -1436h-192z" />
<glyph unicode="]" horiz-adv-x="692" d="M111 -127h170v1413h-170v176h381v-1765h-381v176z" />
<glyph unicode="^" horiz-adv-x="1032" d="M94 991v111q143 72 243.5 202t108.5 252h142q8 -121 108.5 -251.5t243.5 -202.5v-111q-258 27 -403 187l-19 18q-2 0 -8 -7t-12 -11q-146 -160 -404 -187z" />
<glyph unicode="_" horiz-adv-x="819" d="M-10 -229h839v-127h-839v127z" />
<glyph unicode="`" d="M369 1430h280l199 -322h-195z" />
<glyph unicode="a" horiz-adv-x="1054" d="M74 258q0 197 180 272q72 31 317 60q90 12 122 33.5t32 66.5v41q0 143 -209 143q-104 0 -157.5 -44t-65.5 -138h-174q0 137 74 221q106 119 329 119q379 0 379 -299v-557q0 -68 76 -67q14 0 43 6v-140q-76 -18 -117 -18q-154 0 -170 133q-145 -133 -325 -133 q-152 0 -243 82t-91 219zM258 262q0 -147 184 -147q133 0 226 86q57 51 57 118v160q-39 -20 -238 -47q-125 -18 -177 -57t-52 -113z" />
<glyph unicode="b" horiz-adv-x="1095" d="M96 0v1436h176v-553q106 150 312 149q209 0 331.5 -142t122.5 -384q0 -248 -127 -398.5t-336 -150.5q-207 0 -317 156v-113h-162zM272 494q0 -168 78 -269.5t207 -101.5q135 0 216 100.5t81 265.5q0 172 -80 273.5t-217 101.5q-129 0 -207 -100t-78 -270z" />
<glyph unicode="c" horiz-adv-x="991" d="M53 485q0 242 130 394.5t341 152.5q229 0 344 -151q63 -86 72 -228h-176q-35 213 -242 213q-133 0 -208.5 -103.5t-75.5 -277.5q0 -166 76.5 -265t211.5 -99q205 0 250 237h176q-14 -190 -128.5 -295.5t-303.5 -105.5q-211 0 -339 146t-128 382z" />
<glyph unicode="d" horiz-adv-x="1097" d="M45 506q0 242 123 384t332 142q205 0 311 -149v553h176v-1436h-162v113q-111 -156 -317 -156q-209 0 -336 150.5t-127 398.5zM229 489q0 -166 81 -266t216 -100q129 0 207 101.5t78 269.5q0 170 -78 270t-207 100q-137 0 -217 -101.5t-80 -273.5z" />
<glyph unicode="e" horiz-adv-x="1054" d="M72 489q0 244 126 393.5t332 149.5q139 0 250 -71.5t160 -194.5q39 -109 39 -328h-725q2 -119 51 -192q82 -125 227 -125q186 0 250 198h179q-31 -172 -146 -267t-287 -95q-211 0 -333.5 143t-122.5 389zM258 588h535q-4 115 -77 196.5t-186 81.5q-115 0 -188.5 -76.5 t-83.5 -201.5z" />
<glyph unicode="f" horiz-adv-x="749" d="M76 852v152h182v133q0 164 70.5 232.5t240.5 68.5q45 0 109 -11v-149q-39 12 -74 12q-82 0 -113.5 -36.5t-31.5 -133.5v-116h196v-152h-196v-852h-201v852h-182z" />
<glyph unicode="g" horiz-adv-x="1095" d="M51 485q0 242 126 394.5t327 152.5q193 0 305 -160v132h166v-832q0 -174 -24.5 -277.5t-84.5 -173.5q-115 -131 -362 -131q-186 0 -298 83t-124 235h178q16 -80 62 -115q76 -51 186 -51q164 0 229 88q57 72 58 262v27q-106 -162 -308 -162q-174 0 -305 135 q-131 147 -131 393zM233 493.5q0 -174.5 76 -273.5t209 -99q131 0 204 97t73 271q0 180 -73 278.5t-206 98.5q-131 0 -207 -99t-76 -273.5z" />
<glyph unicode="h" horiz-adv-x="1183" d="M147 0v1436h201v-598q125 188 342 188q184 0 281 -135q68 -90 67 -293v-598h-200v586q0 156 -50.5 224.5t-164.5 68.5q-133 0 -204 -95.5t-71 -271.5v-512h-201z" />
<glyph unicode="i" horiz-adv-x="503" d="M139 1255v181h223v-181h-223zM150 0v1004h200v-1004h-200z" />
<glyph unicode="j" horiz-adv-x="503" d="M-23 -201q68 -6 70 -6q70 0 90 35q18 31 19 129v1047h200v-1086q0 -104 -19.5 -157.5t-68.5 -88.5q-63 -41 -166 -41q-66 0 -125 11v157zM156 1255v181h200v-181h-200z" />
<glyph unicode="k" horiz-adv-x="1107" d="M150 0v1436h200v-836l453 404h260l-510 -435l539 -569h-267l-475 532v-532h-200z" />
<glyph unicode="l" horiz-adv-x="503" d="M145 0v1436h201v-1436h-201z" />
<glyph unicode="m" horiz-adv-x="1787" d="M143 0v1004h201v-138q102 160 303 160q213 0 314 -203q100 203 335 203q152 0 246 -96t94 -254v-676h-200v621q0 258 -201 258q-119 0 -186 -88q-55 -78 -56 -211v-580h-200v580q0 135 -35 206q-57 92 -176 93q-115 0 -176.5 -85t-61.5 -243v-551h-201z" />
<glyph unicode="n" horiz-adv-x="1183" d="M147 0v1004h201v-140q119 162 320 162q98 0 180 -41t127 -113q61 -90 61 -284v-588h-200v588q0 291 -226 291q-137 0 -209 -103q-53 -78 -53 -231v-545h-201z" />
<glyph unicode="o" horiz-adv-x="1054" d="M63 494q0 252 121 395t332 143q215 0 336 -144.5t121 -400.5q0 -246 -122 -388t-333 -142q-213 0 -334 143.5t-121 393.5zM248 493.5q0 -174.5 71.5 -273.5t198.5 -99q125 0 197.5 99t72.5 269q0 180 -71.5 278.5t-198.5 98.5t-198.5 -99t-71.5 -273.5z" />
<glyph unicode="p" horiz-adv-x="1095" d="M96 -356v1360h162v-113q111 156 317 156q209 0 336 -151t127 -398q0 -242 -122.5 -384.5t-331.5 -142.5q-205 0 -312 150v-477h-176zM272 510q0 -170 78 -270.5t207 -100.5q137 0 217 101.5t80 273.5q0 166 -81 266.5t-216 100.5q-129 0 -207 -101.5t-78 -269.5z" />
<glyph unicode="q" horiz-adv-x="1097" d="M45 498q0 248 127 398.5t336 150.5q207 0 317 -156v113h162v-1360h-176v477q-106 -150 -311 -150q-209 0 -332 142.5t-123 384.5zM229 514q0 -172 80 -273.5t217 -101.5q129 0 207 100.5t78 270.5q0 168 -78 269.5t-207 101.5q-135 0 -216 -100.5t-81 -266.5z" />
<glyph unicode="r" horiz-adv-x="731" d="M147 0v1004h201v-146q51 86 123 126q68 38 185 38h12v-188q-117 -4 -162 -15.5t-82 -42.5q-76 -68 -76 -252v-524h-201z" />
<glyph unicode="s" horiz-adv-x="950" d="M59 313h185q12 -94 45 -129q57 -63 186 -63q98 0 158.5 40t60.5 105q0 49 -31.5 78t-111.5 47l-148 37q-174 41 -246.5 107.5t-72.5 185.5q0 139 106.5 225t280.5 86t269.5 -84t97.5 -239h-185q-6 158 -188 157q-92 0 -144.5 -36.5t-52.5 -100.5q0 -49 39 -78.5 t135 -52.5l150 -35q150 -35 217.5 -103.5t67.5 -180.5q0 -145 -113 -233.5t-301 -88.5q-392 0 -404 356z" />
<glyph unicode="t" horiz-adv-x="755" d="M43 852v152h209v178l201 80v-258h231v-152h-231v-541q0 -76 10 -108q16 -63 88 -64q37 0 117 15v-152q-109 -20 -183 -20q-121 0 -178 63q-55 57 -55 266v541h-209z" />
<glyph unicode="u" horiz-adv-x="1183" d="M137 430v574h201v-574q0 -141 41 -215q57 -90 184 -90q137 0 209 104q57 88 57 248v527h201v-1004h-201v143q-49 -78 -134 -122t-193 -44q-193 0 -291 136q-74 98 -74 317z" />
<glyph unicode="v" horiz-adv-x="1144" d="M57 1004h213l316 -793l303 793h196l-405 -1004h-213z" />
<glyph unicode="w" horiz-adv-x="1787" d="M96 1004h209l238 -803l256 803h223l254 -803l231 803h191l-334 -1004h-195l-264 807l-268 -807h-197z" />
<glyph unicode="x" horiz-adv-x="1144" d="M53 0l389 526l-364 478h241l111 -148q55 -74 145 -201q201 295 236 349h236l-355 -478l406 -526h-248q-207 293 -289 401l-94 -141q-66 -98 -102 -151l-72 -109h-240z" />
<glyph unicode="y" horiz-adv-x="1144" d="M47 1004h221l305 -779l308 779h202l-559 -1360h-205l150 366z" />
<glyph unicode="z" horiz-adv-x="995" d="M100 0v172l531 680h-531v152h766v-148l-547 -704h570v-152h-789z" />
<glyph unicode="{" horiz-adv-x="919" d="M156 469v172q117 39 149 94q39 82 39 258v170q0 147 16.5 218t63.5 120q80 80 317 86v-178q-90 -2 -124.5 -13.5t-47 -38t-15.5 -54t-3 -132.5v-180q0 -164 -34 -264t-111 -172q80 -72 112.5 -172t32.5 -283v-192q0 -135 28.5 -165t161.5 -38v-176q-139 2 -193 12 t-106 47q-98 72 -98 326v186q0 195 -33.5 260.5t-154.5 108.5z" />
<glyph unicode="|" horiz-adv-x="1032" d="M453 -512v2068h125v-2068h-125z" />
<glyph unicode="}" horiz-adv-x="919" d="M160 -295q94 4 128 14.5t50 38.5q10 23 12 47.5t2 137.5v180q0 164 34 264t114 174q-82 72 -115 171t-33 282v194q0 133 -28.5 164t-163.5 37v178h39q229 0 301 -98q59 -76 59 -287v-188q0 -195 33 -259.5t153 -111.5v-170q-115 -41 -147 -94q-39 -74 -39 -256v-172 q0 -147 -16.5 -217t-63.5 -119q-80 -84 -319 -86v176z" />
<glyph unicode="~" horiz-adv-x="2052" d="M487 492q88 141 157 196t155 55q78 0 170 -49l133 -65q119 -57 160 -58q49 0 94 38t106 134l101 -90q-133 -236 -301 -235q-76 0 -205 67l-111 52q-104 51 -153 51q-55 0 -94.5 -35t-112.5 -150z" />
<glyph unicode="&#xa1;" horiz-adv-x="692" d="M231 -356l23 1081h168l29 -1081h-220zM231 866v213h220v-213h-220z" />
<glyph unicode="&#xa2;" d="M250 723q0 250 123 397q45 53 93 81t132 44v240h199v-228q158 -27 231.5 -107.5t91.5 -252.5h-200q-18 115 -67.5 162t-150.5 47q-131 0 -192 -94t-61 -293q0 -362 253 -363q98 0 158 60q29 27 41 59.5t23 102.5h196q-16 -336 -323 -369v-264h-199v264q-154 37 -229 125 q-119 137 -119 389z" />
<glyph unicode="&#xa3;" d="M229 713v161h138v119q0 211 98 328q117 135 340 135q184 0 276.5 -88t106.5 -278h-209q-6 205 -182 204q-225 0 -226 -301v-119h285v-161h-285v-541h580v-172h-901v172h117v541h-138z" />
<glyph unicode="&#xa4;" d="M66 1130l100 101l166 -166q123 78 233 78q115 0 232 -76l166 164l100 -101l-164 -163q78 -111 78 -236q0 -109 -74 -227l162 -164l-98 -100l-164 159q-109 -76 -230 -75q-119 0 -243 77l-162 -161l-100 100l159 164q-74 102 -73 231q0 111 77 232zM317 735 q0 -104 72 -177t176.5 -73t176 73t71.5 177q0 102 -72.5 176t-173.5 74q-106 0 -178 -72t-72 -178z" />
<glyph unicode="&#xa5;" d="M-8 1427h256l407 -667l418 667h232l-553 -845v-99h321v-118h-321v-66h321v-119h-321v-180h-207v180h-322v119h322v66h-322v118h322v99z" />
<glyph unicode="&#xa6;" horiz-adv-x="1032" d="M453 -461v942h125v-942h-125zM453 565v938h125v-938h-125z" />
<glyph unicode="&#xa7;" d="M334 750q0 102 63 190q25 35 82 78q-76 70 -76 172q0 109 73 179.5t186 70.5q145 0 292 -119v-160q-100 80 -161.5 109.5t-120.5 29.5q-49 0 -82 -28.5t-33 -73.5q0 -39 37 -67.5t178 -100.5q147 -72 202.5 -138.5t55.5 -168.5q0 -170 -131 -268q86 -70 86 -187 q0 -121 -82 -196.5t-213 -75.5q-166 0 -334 137v174q195 -162 328 -162q68 0 107.5 31t39.5 82q0 49 -55 90q-31 20 -229 135q-92 51 -125 77t-53 61q-35 57 -35 129zM479 770q0 -35 19.5 -59.5t74.5 -57.5l215 -118q102 78 103 170q0 82 -107 137l-192 96 q-113 -59 -113 -168z" />
<glyph unicode="&#xa8;" d="M391 1176v231h213v-231h-213zM756 1176v231h213v-231h-213z" />
<glyph unicode="&#xa9;" horiz-adv-x="1032" d="M16 1081q0 217 155 369t378 152q209 0 361.5 -155t152.5 -368q0 -217 -153.5 -370.5t-368.5 -153.5q-217 0 -371 153.5t-154 372.5zM115 1079q0 -180 122.5 -303t303.5 -123q178 0 301 123t123 303.5t-124 302t-309 121.5q-174 0 -295.5 -124t-121.5 -300zM262 1071 q0 150 79 239t212 89q106 0 162.5 -45t75.5 -148h-127q-10 53 -35 75t-76 22q-78 0 -122 -59.5t-44 -164.5q0 -102 45 -161.5t121 -59.5q49 0 77.5 23.5t43.5 81.5h127q-31 -201 -248 -201q-131 0 -211 85t-80 224z" />
<glyph unicode="&#xaa;" horiz-adv-x="843" d="M117 1001q0 164 217 203q41 6 190 13q0 78 -21.5 104.5t-84.5 26.5q-78 0 -94 -56q-4 -16 -5 -51h-167q8 117 69.5 167t188.5 50q274 0 274 -244v-182q0 -119 21 -215h-162q-4 14 -13 55q-63 -70 -178 -69q-104 0 -169.5 55t-65.5 143zM283 1008q0 -39 27.5 -61.5 t74.5 -22.5q139 0 139 170v12q-123 -2 -166 -14q-75 -25 -75 -84z" />
<glyph unicode="&#xab;" horiz-adv-x="1144" d="M164 508l221 375h180l-178 -375l178 -371h-180zM580 508l221 375h178l-176 -375l176 -371h-178z" />
<glyph unicode="&#xac;" horiz-adv-x="2052" d="M469 772v139h1180v-659h-140v520h-1040z" />
<glyph unicode="&#xad;" horiz-adv-x="692" d="M82 438v185h522v-185h-522z" />
<glyph unicode="&#x2010;" horiz-adv-x="692" d="M82 438v185h522v-185h-522z" />
<glyph unicode="&#xae;" horiz-adv-x="1032" d="M8 1071q0 217 154.5 368.5t378.5 151.5q209 0 361.5 -154.5t152.5 -367.5q0 -217 -153.5 -370.5t-369.5 -153.5q-217 0 -370.5 153.5t-153.5 372.5zM106 1069q0 -180 123 -303t303 -123q178 0 301 123t123 303t-123.5 302t-308.5 122q-174 0 -296 -124t-122 -300z M307 760v614h230q238 0 237 -160q0 -102 -96 -137q41 -16 55.5 -46t26.5 -128q14 -104 28 -143h-133q-16 68 -24 172q-6 63 -24.5 78.5t-86.5 15.5h-90v-266h-123zM430 1124h90q70 0 99.5 18.5t29.5 59.5t-27.5 57.5t-99.5 16.5h-92v-152z" />
<glyph unicode="&#xaf;" d="M299 1178v157h705v-157h-705z" />
<glyph unicode="&#x2c9;" d="M299 1178v157h705v-157h-705z" />
<glyph unicode="&#xb0;" d="M303 1175.5q0 153.5 111.5 265t265.5 111.5q156 0 264.5 -111.5t108.5 -269.5q0 -152 -111 -261t-262 -109q-156 0 -266.5 110.5t-110.5 264zM463 1177.5q0 -90.5 62.5 -152.5t152.5 -62q88 0 150.5 61t62.5 150q0 92 -61.5 154.5t-151.5 62.5t-152.5 -61.5t-62.5 -152z " />
<glyph unicode="&#xb1;" horiz-adv-x="2052" d="M469 -6v139h1176v-139h-1176zM469 627v139h518v416h139v-416h519v-139h-519v-416h-139v416h-518z" />
<glyph unicode="&#xb2;" horiz-adv-x="804" d="M121 565v131q215 188 310 308t95 200q0 53 -34.5 86t-90.5 33q-61 0 -87.5 -34t-34.5 -126h-158q4 127 57 195q78 90 217 90q127 0 206 -66.5t79 -173.5q0 -104 -78 -212.5t-291 -301.5h396v-129h-586z" />
<glyph unicode="&#xb3;" horiz-adv-x="804" d="M92 827h150q14 -82 49 -116.5t102 -34.5q70 0 113 39t43 104q0 135 -191 135h-61v123h61q78 0 122 34t44 97q0 53 -35.5 84t-99.5 31q-68 0 -98.5 -34t-32.5 -113h-156q6 84 20.5 124.5t51.5 75.5q78 72 219 72q129 0 208 -64.5t79 -171.5q0 -137 -121 -190 q145 -47 146 -199q0 -119 -88.5 -194.5t-225.5 -75.5q-135 0 -213 70.5t-86 203.5z" />
<glyph unicode="&#xb4;" d="M520 1108l201 322h278l-282 -322h-197z" />
<glyph unicode="&#xb5;" horiz-adv-x="1144" d="M-141 -352q137 244 295 798l157 543h213l-143 -479q-53 -176 -53 -225q0 -72 43 -115t114 -43q90 0 177.5 119t146.5 327l119 416h211l-166 -559q-68 -233 -68 -340q0 -41 17 -90h-209v135q-94 -170 -248 -170q-152 0 -199 146l-8 -27q-49 -131 -74 -193 q-35 -86 -90 -243h-235z" />
<glyph unicode="&#xb6;" d="M244 1049q0 121 56 226t153 163q168 109 458 108h199v-104h-139v-1768h-101v1768h-75v-1768h-101v899q-127 25 -199.5 61t-132.5 101q-118 132 -118 314z" />
<glyph unicode="&#xb7;" horiz-adv-x="692" d="M240 408v208h225v-208h-225z" />
<glyph unicode="&#x2219;" horiz-adv-x="692" d="M240 408v208h225v-208h-225z" />
<glyph unicode="&#xb8;" d="M473 -391l184 285h183l-129 -285h-238z" />
<glyph unicode="&#xb9;" horiz-adv-x="804" d="M174 1153v141q164 84 221 142h131v-871h-159v690q-52 -36 -193 -102z" />
<glyph unicode="&#xba;" horiz-adv-x="843" d="M94 1118q0 156 90 247t244 91q156 0 247 -91t91 -247q0 -150 -93 -243t-245 -93t-243 92t-91 244zM264 1124q0 -217 164 -217q82 0 125 56.5t43 160.5q0 209 -168 209q-164 0 -164 -209z" />
<glyph unicode="&#xbb;" horiz-adv-x="1144" d="M156 137l176 371l-176 375h182l217 -375l-217 -371h-182zM571 137l177 371l-177 375h181l219 -375l-219 -371h-181z" />
<glyph unicode="&#xbc;" horiz-adv-x="2052" d="M348 1153v141q166 84 223 142h131v-871h-159v690q-48 -34 -195 -102zM471 0l860 1436h158l-862 -1436h-156zM1057 203v129l352 536h184v-536h113v-129h-113v-203h-151v203h-385zM1212 332h230v368z" />
<glyph unicode="&#xbd;" horiz-adv-x="2052" d="M354 1153v141q166 84 224 142h131v-871h-160v690q-48 -34 -195 -102zM444 0l863 1436h155l-860 -1436h-158zM1122 598q14 137 62 195q78 90 217 90q127 0 206 -66.5t79 -173.5q0 -104 -80 -215t-289 -299h395v-129h-586v131q221 197 313.5 313.5t92.5 196.5q0 53 -35 86 t-90 33q-61 0 -88 -35t-35 -127h-162z" />
<glyph unicode="&#xbe;" horiz-adv-x="2052" d="M330 827h149q14 -82 49 -116.5t103 -34.5q70 0 112.5 39t42.5 104q0 135 -190 135h-61v123h61q78 0 122 34t44 97q0 53 -36 84t-99 31q-68 0 -98.5 -34t-32.5 -113h-156q6 84 20.5 124.5t51.5 75.5q78 72 219 72q129 0 208 -64.5t79 -171.5q0 -137 -121 -190 q145 -47 145 -199q0 -119 -88 -194.5t-225 -75.5q-135 0 -213 70.5t-86 203.5zM573 0l861 1436h157l-860 -1436h-158zM1157 203v129l352 536h185v-536h112v-129h-112v-203h-152v203h-385zM1313 332h229v368z" />
<glyph unicode="&#xbf;" horiz-adv-x="1069" d="M166 6q0 102 51 185t189 208q80 72 102 117t22 137v125h175v-125q0 -143 -17.5 -188t-107.5 -131q-190 -182 -191 -309q0 -100 74 -157.5t201 -57.5q59 0 200 32v-174q-115 -25 -250 -24q-201 0 -324.5 100t-123.5 262zM502 891v211h223v-211h-223z" />
<glyph unicode="&#xc0;" horiz-adv-x="1523" d="M61 0l586 1436h221l590 -1436h-231l-140 356h-669l-135 -356h-222zM485 535h539l-272 714zM496 1821h276l178 -285h-202z" />
<glyph unicode="&#xc1;" horiz-adv-x="1523" d="M61 0l586 1436h221l590 -1436h-231l-140 356h-669l-135 -356h-222zM485 535h539l-272 714zM641 1536l180 285h275l-250 -285h-205z" />
<glyph unicode="&#xc2;" horiz-adv-x="1523" d="M61 0l586 1436h221l590 -1436h-231l-140 356h-669l-135 -356h-222zM446 1536l209 285h240l209 -285h-207l-125 152l-125 -152h-201zM485 535h539l-272 714z" />
<glyph unicode="&#xc3;" horiz-adv-x="1523" d="M61 0l586 1436h221l590 -1436h-231l-140 356h-669l-135 -356h-222zM399 1536q2 109 21 154q25 55 75 87.5t109 32.5q63 0 160 -49q135 -66 172 -65q70 0 72 114h149q-2 -119 -29 -168q-49 -106 -190 -106q-74 0 -168 53q-117 61 -156 62q-59 0 -67 -115h-148zM485 535 h539l-272 714z" />
<glyph unicode="&#xc4;" horiz-adv-x="1523" d="M61 0l586 1436h221l590 -1436h-231l-140 356h-669l-135 -356h-222zM475 1565v231h205v-231h-205zM485 535h539l-272 714zM846 1565v231h205v-231h-205z" />
<glyph unicode="&#xc5;" horiz-adv-x="1523" d="M61 0l586 1436h221l590 -1436h-231l-140 356h-669l-135 -356h-222zM475 1726q0 109 80 176.5t207 67.5t206 -66.5t79 -172.5q0 -104 -80 -174t-199 -70q-121 0 -213 72q-80 61 -80 167zM485 535h539l-272 714zM621 1741q0 -100 147 -101q59 0 96 27t37 70q0 47 -39 75.5 t-104 28.5q-61 0 -99 -27.5t-38 -72.5z" />
<glyph unicode="&#xc6;" horiz-adv-x="2013" d="M23 0l847 1436h988v-179h-676l14 -440h573v-178h-573l18 -461h674v-178h-874l-19 553h-424l-321 -553h-227zM676 731h315l-16 512z" />
<glyph unicode="&#xc7;" horiz-adv-x="1413" d="M88 700q0 358 201 578q162 180 456 180q471 0 560 -481h-207q-31 152 -101 215q-92 88 -270 88q-205 0 -320.5 -153.5t-115.5 -424.5q0 -262 120.5 -415.5t327.5 -153.5q231 0 322 176q41 84 65 228h207q-33 -289 -181 -435.5t-404 -146.5l-15 -41q8 2 37 2q76 0 120 -38 t44 -103q0 -86 -67.5 -138.5t-180.5 -52.5q-96 0 -258 72l55 98l23 -12q102 -57 168 -57q41 0 67.5 21.5t26.5 55.5q0 61 -78 62q-25 0 -61 -19l-33 23l57 129q-168 25 -280 100q-133 96 -209 266t-76 377z" />
<glyph unicode="&#xc8;" horiz-adv-x="1183" d="M182 0v1436h873v-179h-654v-419h611v-179h-611v-481h676v-178h-895zM324 1821h276l178 -285h-203z" />
<glyph unicode="&#xc9;" horiz-adv-x="1183" d="M182 0v1436h873v-179h-654v-419h611v-179h-611v-481h676v-178h-895zM469 1536l182 285h273l-250 -285h-205z" />
<glyph unicode="&#xca;" horiz-adv-x="1183" d="M182 0v1436h873v-179h-654v-419h611v-179h-611v-481h676v-178h-895zM274 1536l209 285h240l211 -285h-209l-125 152l-125 -152h-201z" />
<glyph unicode="&#xcb;" horiz-adv-x="1183" d="M182 0v1436h873v-179h-654v-419h611v-179h-611v-481h676v-178h-895zM303 1565v231h205v-231h-205zM676 1565v231h205v-231h-205z" />
<glyph unicode="&#xcc;" horiz-adv-x="577" d="M23 1821h276l178 -285h-203zM182 0v1436h219v-1436h-219z" />
<glyph unicode="&#xcd;" horiz-adv-x="577" d="M168 1536l180 285h275l-250 -285h-205zM182 0v1436h219v-1436h-219z" />
<glyph unicode="&#xce;" horiz-adv-x="577" d="M-29 1536l209 285h240l211 -285h-209l-125 152l-125 -152h-201zM180 0v1436h219v-1436h-219z" />
<glyph unicode="&#xcf;" horiz-adv-x="577" d="M2 1565v231h205v-231h-205zM182 0v1436h219v-1436h-219zM373 1565v231h205v-231h-205z" />
<glyph unicode="&#xd0;" horiz-adv-x="1484" d="M41 666v161h113v609h491q369 0 541 -193q172 -197 172 -532q0 -340 -183.5 -525.5t-519.5 -185.5h-501v666h-113zM373 178h260q135 0 222 32t151 105q127 145 127 406q0 264 -125 403q-66 72 -158 102.5t-246 30.5h-231v-430h358v-161h-358v-488z" />
<glyph unicode="&#xd1;" horiz-adv-x="1484" d="M168 0v1436h283l675 -1209v1209h191v-1436h-297l-662 1174v-1174h-190zM381 1536q2 109 20 154q25 55 74 87.5t111 32.5q63 0 159 -49q135 -66 170 -65q68 0 74 114h150q-6 -125 -31 -165q-47 -109 -188 -109q-76 0 -168 53q-117 61 -156 62q-61 0 -68 -115h-147z" />
<glyph unicode="&#xd2;" horiz-adv-x="1521" d="M70 706.5q0 333.5 192.5 542.5t499.5 209q315 0 504.5 -209t189.5 -553q0 -176 -65.5 -332.5t-182.5 -257.5q-180 -152 -444 -151q-309 0 -501.5 209t-192.5 542.5zM270 707q0 -258 135.5 -415t358.5 -157q221 0 356 155.5t135 409.5q0 264 -133 422t-360 158 q-221 0 -356.5 -156.5t-135.5 -416.5zM510 1821h283l178 -285h-209z" />
<glyph unicode="&#xd3;" horiz-adv-x="1521" d="M70 706.5q0 333.5 192.5 542.5t499.5 209q315 0 504.5 -209t189.5 -553q0 -176 -65.5 -332.5t-182.5 -257.5q-180 -152 -444 -151q-309 0 -501.5 209t-192.5 542.5zM270 707q0 -258 135.5 -415t358.5 -157q221 0 356 155.5t135 409.5q0 264 -133 422t-360 158 q-221 0 -356.5 -156.5t-135.5 -416.5zM653 1536l181 285h280l-250 -285h-211z" />
<glyph unicode="&#xd4;" horiz-adv-x="1521" d="M70 706.5q0 333.5 192.5 542.5t499.5 209q315 0 504.5 -209t189.5 -553q0 -176 -65.5 -332.5t-182.5 -257.5q-180 -152 -444 -151q-309 0 -501.5 209t-192.5 542.5zM270 707q0 -258 135.5 -415t358.5 -157q221 0 356 155.5t135 409.5q0 264 -133 422t-360 158 q-221 0 -356.5 -156.5t-135.5 -416.5zM461 1536l209 285h243l211 -285h-213l-123 147l-122 -147h-205z" />
<glyph unicode="&#xd5;" horiz-adv-x="1521" d="M70 706.5q0 333.5 192.5 542.5t499.5 209q315 0 504.5 -209t189.5 -553q0 -176 -65.5 -332.5t-182.5 -257.5q-180 -152 -444 -151q-309 0 -501.5 209t-192.5 542.5zM270 707q0 -258 135.5 -415t358.5 -157q221 0 356 155.5t135 409.5q0 264 -133 422t-360 158 q-221 0 -356.5 -156.5t-135.5 -416.5zM412 1536q2 100 22 152q23 57 74 89.5t113 32.5q70 0 161 -49q139 -66 170 -65q63 0 70 114h156q-2 -115 -27 -165q-51 -109 -195 -109q-80 0 -170 53q-119 61 -153 62q-57 0 -66 -115h-155z" />
<glyph unicode="&#xd6;" horiz-adv-x="1521" d="M70 706.5q0 333.5 192.5 542.5t499.5 209q315 0 504.5 -209t189.5 -553q0 -176 -65.5 -332.5t-182.5 -257.5q-180 -152 -444 -151q-309 0 -501.5 209t-192.5 542.5zM270 707q0 -258 135.5 -415t358.5 -157q221 0 356 155.5t135 409.5q0 264 -133 422t-360 158 q-221 0 -356.5 -156.5t-135.5 -416.5zM487 1565v231h213v-231h-213zM860 1565v231h213v-231h-213z" />
<glyph unicode="&#xd7;" horiz-adv-x="2052" d="M528 319l418 414l-418 414l107 106l422 -417l422 417l106 -106l-418 -414l418 -414l-106 -106l-422 418l-422 -418z" />
<glyph unicode="&#xd8;" horiz-adv-x="1521" d="M49 47l160 172q-145 205 -146 490q0 334 193 541.5t502 207.5q270 0 446 -151l168 184l92 -84l-172 -188q158 -207 158 -514q0 -334 -191.5 -542t-500.5 -208q-281 0 -469 172l-150 -164zM264 709q0 -199 82 -340l729 796q-133 115 -317 115q-223 0 -358.5 -156.5 t-135.5 -414.5zM420 268q137 -133 338 -133q223 0 357 157t134 413q0 219 -94 364z" />
<glyph unicode="&#xd9;" horiz-adv-x="1484" d="M174 627v809h219v-818q0 -272 82 -372q86 -102 262 -103q109 0 191 43t119 121q49 104 49 311v818h217v-809q0 -287 -88 -422q-68 -109 -198 -170.5t-294 -61.5q-139 0 -253.5 47.5t-184.5 131.5q-121 147 -121 475zM477 1821h277l176 -285h-201z" />
<glyph unicode="&#xda;" horiz-adv-x="1484" d="M174 627v809h219v-818q0 -272 82 -372q86 -102 262 -103q109 0 191 43t119 121q49 104 49 311v818h217v-809q0 -287 -88 -422q-68 -109 -198 -170.5t-294 -61.5q-139 0 -253.5 47.5t-184.5 131.5q-121 147 -121 475zM623 1536l180 285h272l-250 -285h-202z" />
<glyph unicode="&#xdb;" horiz-adv-x="1484" d="M174 627v809h219v-818q0 -272 82 -372q86 -102 262 -103q109 0 191 43t119 121q49 104 49 311v818h217v-809q0 -287 -88 -422q-68 -109 -198 -170.5t-294 -61.5q-139 0 -253.5 47.5t-184.5 131.5q-121 147 -121 475zM426 1536l211 285h240l208 -285h-208l-125 152 l-125 -152h-201z" />
<glyph unicode="&#xdc;" horiz-adv-x="1484" d="M174 627v809h219v-818q0 -272 82 -372q86 -102 262 -103q109 0 191 43t119 121q49 104 49 311v818h217v-809q0 -287 -88 -422q-68 -109 -198 -170.5t-294 -61.5q-139 0 -253.5 47.5t-184.5 131.5q-121 147 -121 475zM457 1565v231h205v-231h-205zM827 1565v231h205v-231 h-205z" />
<glyph unicode="&#xdd;" horiz-adv-x="1409" d="M41 1436h260l207 -320q106 -164 203 -352q111 215 213 375l194 297h232l-535 -840v-596h-219v594zM584 1536l180 285h272l-250 -285h-202z" />
<glyph unicode="&#xde;" horiz-adv-x="1220" d="M180 0v1436h219v-195h191q182 0 260 -13.5t149 -58.5q80 -49 126 -141t46 -203q0 -209 -151 -325q-68 -53 -151 -75t-224 -22h-246v-403h-219zM399 582h230q147 0 215 45q102 63 102 196q0 147 -115 201q-80 39 -235 39h-197v-481z" />
<glyph unicode="&#xdf;" horiz-adv-x="1257" d="M147 0v1022q0 225 121 321q131 104 363 105q182 0 295.5 -84t113.5 -221q0 -88 -55 -160q-37 -47 -135 -113q-61 -37 -62 -69q0 -43 99 -99q178 -98 254 -185t76 -200q0 -150 -108 -245t-273 -95q-324 0 -357 287h203q10 -66 52 -102.5t106 -36.5q70 0 120 54t50 130 q0 68 -47.5 122t-169.5 126q-131 80 -171 124t-40 112q0 55 24.5 88.5t98.5 85.5q78 53 103.5 88t25.5 84q0 78 -52.5 119.5t-148.5 41.5q-162 0 -234 -88q-51 -63 -51 -202v-1010h-201z" />
<glyph unicode="&#xe0;" horiz-adv-x="1054" d="M74 258q0 197 180 272q72 31 317 60q90 12 122 33.5t32 66.5v41q0 143 -209 143q-104 0 -157.5 -44t-65.5 -138h-174q0 137 74 221q106 119 329 119q379 0 379 -299v-557q0 -68 76 -67q14 0 43 6v-140q-76 -18 -117 -18q-154 0 -170 133q-145 -133 -325 -133 q-152 0 -243 82t-91 219zM213 1430h279l200 -322h-196zM258 262q0 -147 184 -147q133 0 226 86q57 51 57 118v160q-39 -20 -238 -47q-125 -18 -177 -57t-52 -113z" />
<glyph unicode="&#xe1;" horiz-adv-x="1054" d="M74 258q0 197 180 272q72 31 317 60q90 12 122 33.5t32 66.5v41q0 143 -209 143q-104 0 -157.5 -44t-65.5 -138h-174q0 137 74 221q106 119 329 119q379 0 379 -299v-557q0 -68 76 -67q14 0 43 6v-140q-76 -18 -117 -18q-154 0 -170 133q-145 -133 -325 -133 q-152 0 -243 82t-91 219zM258 262q0 -147 184 -147q133 0 226 86q57 51 57 118v160q-39 -20 -238 -47q-125 -18 -177 -57t-52 -113zM365 1108l200 322h279l-283 -322h-196z" />
<glyph unicode="&#xe2;" horiz-adv-x="1054" d="M74 258q0 197 180 272q72 31 317 60q90 12 122 33.5t32 66.5v41q0 143 -209 143q-104 0 -157.5 -44t-65.5 -138h-174q0 137 74 221q106 119 329 119q379 0 379 -299v-557q0 -68 76 -67q14 0 43 6v-140q-76 -18 -117 -18q-154 0 -170 133q-145 -133 -325 -133 q-152 0 -243 82t-91 219zM174 1108l227 315h207l228 -315h-187l-157 174l-152 -174h-166zM258 262q0 -147 184 -147q133 0 226 86q57 51 57 118v160q-39 -20 -238 -47q-125 -18 -177 -57t-52 -113z" />
<glyph unicode="&#xe3;" horiz-adv-x="1054" d="M74 258q0 197 180 272q72 31 317 60q90 12 122 33.5t32 66.5v41q0 143 -209 143q-104 0 -157.5 -44t-65.5 -138h-174q0 137 74 221q106 119 329 119q379 0 379 -299v-557q0 -68 76 -67q14 0 43 6v-140q-76 -18 -117 -18q-154 0 -170 133q-145 -133 -325 -133 q-152 0 -243 82t-91 219zM158 1182q16 150 65 204q53 59 125 60q80 0 180 -53q96 -47 123 -47q29 0 41.5 19t20.5 77h149q-8 -152 -74 -215q-53 -49 -131 -49q-59 0 -147 45q-119 55 -148 55q-23 0 -34 -19.5t-19 -76.5h-151zM258 262q0 -147 184 -147q133 0 226 86 q57 51 57 118v160q-39 -20 -238 -47q-125 -18 -177 -57t-52 -113z" />
<glyph unicode="&#xe4;" horiz-adv-x="1054" d="M74 258q0 197 180 272q72 31 317 60q90 12 122 33.5t32 66.5v41q0 143 -209 143q-104 0 -157.5 -44t-65.5 -138h-174q0 137 74 221q106 119 329 119q379 0 379 -299v-557q0 -68 76 -67q14 0 43 6v-140q-76 -18 -117 -18q-154 0 -170 133q-145 -133 -325 -133 q-152 0 -243 82t-91 219zM236 1176v231h213v-231h-213zM258 262q0 -147 184 -147q133 0 226 86q57 51 57 118v160q-39 -20 -238 -47q-125 -18 -177 -57t-52 -113zM600 1176v231h213v-231h-213z" />
<glyph unicode="&#xe5;" horiz-adv-x="1054" d="M74 258q0 197 180 272q72 31 317 60q90 12 122 33.5t32 66.5v41q0 143 -209 143q-104 0 -157.5 -44t-65.5 -138h-174q0 137 74 221q106 119 329 119q379 0 379 -299v-557q0 -68 76 -67q14 0 43 6v-140q-76 -18 -117 -18q-154 0 -170 133q-145 -133 -325 -133 q-152 0 -243 82t-91 219zM256 1300q0 88 69.5 138.5t190.5 50.5q123 0 190.5 -52.5t67.5 -144.5q0 -88 -67.5 -136t-188.5 -48q-127 0 -194.5 49t-67.5 143zM258 262q0 -147 184 -147q133 0 226 86q57 51 57 118v160q-39 -20 -238 -47q-125 -18 -177 -57t-52 -113z M395 1298.5q0 -77.5 121 -77.5q119 0 119 75q0 37 -32 58.5t-87 21.5q-121 0 -121 -77.5z" />
<glyph unicode="&#xe6;" horiz-adv-x="1679" d="M59 258q0 193 181 272q94 39 317 60q92 8 123 27.5t31 72.5v41q0 135 -211 135q-106 0 -157.5 -40t-63.5 -134h-177q6 147 70 221q106 119 332 119q248 0 327 -145q47 63 136.5 104t189.5 41q137 0 246.5 -71.5t159.5 -194.5q39 -100 39 -328h-725q2 -119 51 -192 q82 -125 229 -125q184 0 250 198h178q-31 -172 -145.5 -267t-284.5 -95q-233 0 -342 160l-25 41q-193 -201 -403 -201q-145 0 -235.5 83t-90.5 218zM244 262q0 -70 46 -108.5t130 -38.5q115 0 203 69q88 68 88 121v172q-47 -18 -240 -47q-125 -18 -176 -56t-51 -112z M881 588h532q0 123 -71.5 200.5t-188.5 77.5q-115 0 -188.5 -76.5t-83.5 -201.5z" />
<glyph unicode="&#xe7;" horiz-adv-x="991" d="M53 485q0 242 130 394.5t341 152.5q229 0 344 -151q63 -86 72 -228h-176q-35 213 -242 213q-133 0 -208.5 -103.5t-75.5 -277.5q0 -166 76.5 -265t211.5 -99q205 0 250 237h176q-14 -188 -127.5 -293.5t-296.5 -107.5l-14 -39q10 2 37 2q72 0 115 -37t43 -100 q0 -84 -65.5 -134t-176.5 -50q-96 0 -248 67l49 96l25 -14q104 -51 164 -51q41 0 65.5 20.5t24.5 53.5q0 59 -76 59q-23 0 -57 -18l-35 22l53 131q-172 23 -275.5 165t-103.5 355z" />
<glyph unicode="&#xe8;" horiz-adv-x="1054" d="M72 489q0 244 126 393.5t332 149.5q139 0 250 -71.5t160 -194.5q39 -109 39 -328h-725q2 -119 51 -192q82 -125 227 -125q186 0 250 198h179q-31 -172 -146 -267t-287 -95q-211 0 -333.5 143t-122.5 389zM244 1430h278l201 -322h-195zM258 588h535q-4 115 -77 196.5 t-186 81.5q-115 0 -188.5 -76.5t-83.5 -201.5z" />
<glyph unicode="&#xe9;" horiz-adv-x="1054" d="M72 489q0 244 126 393.5t332 149.5q139 0 250 -71.5t160 -194.5q39 -109 39 -328h-725q2 -119 51 -192q82 -125 227 -125q186 0 250 198h179q-31 -172 -146 -267t-287 -95q-211 0 -333.5 143t-122.5 389zM258 588h535q-4 115 -77 196.5t-186 81.5q-115 0 -188.5 -76.5 t-83.5 -201.5zM395 1108l201 322h281l-285 -322h-197z" />
<glyph unicode="&#xea;" horiz-adv-x="1054" d="M72 489q0 244 126 393.5t332 149.5q139 0 250 -71.5t160 -194.5q39 -109 39 -328h-725q2 -119 51 -192q82 -125 227 -125q186 0 250 198h179q-31 -172 -146 -267t-287 -95q-211 0 -333.5 143t-122.5 389zM205 1108l229 315h205l227 -315h-186l-156 174l-153 -174h-166z M258 588h535q-4 115 -77 196.5t-186 81.5q-115 0 -188.5 -76.5t-83.5 -201.5z" />
<glyph unicode="&#xeb;" horiz-adv-x="1054" d="M72 489q0 244 126 393.5t332 149.5q139 0 250 -71.5t160 -194.5q39 -109 39 -328h-725q2 -119 51 -192q82 -125 227 -125q186 0 250 198h179q-31 -172 -146 -267t-287 -95q-211 0 -333.5 143t-122.5 389zM258 588h535q-4 115 -77 196.5t-186 81.5q-115 0 -188.5 -76.5 t-83.5 -201.5zM266 1176v231h213v-231h-213zM631 1176v231h213v-231h-213z" />
<glyph unicode="&#xec;" horiz-adv-x="503" d="M-27 1430h275l198 -322h-188zM150 0v1004h200v-1004h-200z" />
<glyph unicode="&#xed;" horiz-adv-x="503" d="M129 1108l201 322h272l-283 -322h-190zM150 0v1004h200v-1004h-200z" />
<glyph unicode="&#xee;" horiz-adv-x="503" d="M-66 1108l230 315h201l227 -315h-182l-160 178l-154 -178h-162zM147 0v1004h201v-1004h-201z" />
<glyph unicode="&#xef;" horiz-adv-x="503" d="M-35 1176v231h205v-231h-205zM150 0v1004h200v-1004h-200zM330 1176v231h205v-231h-205z" />
<glyph unicode="&#xf0;" horiz-adv-x="1054" d="M63 494q0 334 199 467q102 68 217 67q68 0 115 -29q-88 92 -178 150l-183 -86l-81 90l159 74q-33 25 -153 92l96 98q78 -35 211 -119l182 84l92 -84l-168 -75q168 -131 265 -275q137 -207 137 -452q0 -256 -120 -397.5t-335 -141.5t-335 141.5t-120 395.5zM248 493.5 q0 -174.5 72.5 -273.5t197.5 -99t197.5 99t72.5 269q0 180 -71.5 278.5t-198.5 98.5t-198.5 -99t-71.5 -273.5z" />
<glyph unicode="&#xf1;" horiz-adv-x="1183" d="M147 0v1004h201v-140q119 162 320 162q98 0 180 -41t127 -113q61 -90 61 -284v-588h-200v588q0 291 -226 291q-137 0 -209 -103q-53 -78 -53 -231v-545h-201zM262 1182q16 150 66 204q53 59 121 60q74 0 178 -53q96 -47 123 -47q31 0 45 20t22 76h141q-8 -154 -75 -215 q-49 -49 -125 -49q-55 0 -148 43q-115 57 -147 57q-27 0 -39 -19.5t-21 -76.5h-141z" />
<glyph unicode="&#xf2;" horiz-adv-x="1054" d="M63 494q0 252 121 395t332 143q215 0 336 -144.5t121 -400.5q0 -246 -122 -388t-333 -142q-213 0 -334 143.5t-121 393.5zM211 1430h278l201 -322h-196zM248 493.5q0 -174.5 71.5 -273.5t198.5 -99q125 0 197.5 99t72.5 269q0 180 -71.5 278.5t-198.5 98.5t-198.5 -99 t-71.5 -273.5z" />
<glyph unicode="&#xf3;" horiz-adv-x="1054" d="M63 494q0 252 121 395t332 143q215 0 336 -144.5t121 -400.5q0 -246 -122 -388t-333 -142q-213 0 -334 143.5t-121 393.5zM248 493.5q0 -174.5 71.5 -273.5t198.5 -99q125 0 197.5 99t72.5 269q0 180 -71.5 278.5t-198.5 98.5t-198.5 -99t-71.5 -273.5zM362 1108l201 322 h279l-283 -322h-197z" />
<glyph unicode="&#xf4;" horiz-adv-x="1054" d="M63 494q0 252 121 395t332 143q215 0 336 -144.5t121 -400.5q0 -246 -122 -388t-333 -142q-213 0 -334 143.5t-121 393.5zM190 1108l228 315h207l227 -315h-186l-158 174l-152 -174h-166zM248 493.5q0 -174.5 71.5 -273.5t198.5 -99q125 0 197.5 99t72.5 269 q0 180 -71.5 278.5t-198.5 98.5t-198.5 -99t-71.5 -273.5z" />
<glyph unicode="&#xf5;" horiz-adv-x="1054" d="M63 494q0 252 121 395t332 143q215 0 336 -144.5t121 -400.5q0 -246 -122 -388t-333 -142q-213 0 -334 143.5t-121 393.5zM176 1182q16 150 66 204q53 59 125 60q80 0 180 -53q98 -47 123 -47q27 0 40 20t21 76h150q-8 -152 -74 -215q-53 -49 -131 -49q-59 0 -148 45 q-119 55 -147 55q-23 0 -34 -19.5t-19 -76.5h-152zM248 493.5q0 -174.5 71.5 -273.5t198.5 -99q125 0 197.5 99t72.5 269q0 180 -71.5 278.5t-198.5 98.5t-198.5 -99t-71.5 -273.5z" />
<glyph unicode="&#xf6;" horiz-adv-x="1054" d="M63 494q0 252 121 395t332 143q215 0 336 -144.5t121 -400.5q0 -246 -122 -388t-333 -142q-213 0 -334 143.5t-121 393.5zM246 1176v231h213v-231h-213zM248 493.5q0 -174.5 71.5 -273.5t198.5 -99q125 0 197.5 99t72.5 269q0 180 -71.5 278.5t-198.5 98.5t-198.5 -99 t-71.5 -273.5zM608 1176v231h213v-231h-213z" />
<glyph unicode="&#xf7;" horiz-adv-x="2052" d="M471 645v154h1167v-154h-1167zM942 340v213h225v-213h-225zM942 893v213h225v-213h-225z" />
<glyph unicode="&#xf8;" horiz-adv-x="1054" d="M25 4l127 141q-88 131 -89 349q0 252 121 395t334 143q193 0 311 -119l109 123l76 -67l-121 -135q80 -133 80 -340q0 -250 -121 -393.5t-332 -143.5q-199 0 -305 113l-113 -129zM248 494q0 -125 31 -201l432 487q-66 86 -193 86t-198.5 -99t-71.5 -273zM334 201 q74 -80 184 -80q125 0 197.5 99t72.5 274q0 125 -26 192z" />
<glyph unicode="&#xf9;" horiz-adv-x="1183" d="M137 430v574h201v-574q0 -141 41 -215q57 -90 184 -90q137 0 209 104q57 88 57 248v527h201v-1004h-201v143q-49 -78 -134 -122t-193 -44q-193 0 -291 136q-74 98 -74 317zM313 1430h275l198 -322h-188z" />
<glyph unicode="&#xfa;" horiz-adv-x="1183" d="M137 430v574h201v-574q0 -141 41 -215q57 -90 184 -90q137 0 209 104q57 88 57 248v527h201v-1004h-201v143q-49 -78 -134 -122t-193 -44q-193 0 -291 136q-74 98 -74 317zM469 1108l199 322h274l-283 -322h-190z" />
<glyph unicode="&#xfb;" horiz-adv-x="1183" d="M137 430v574h201v-574q0 -141 41 -215q57 -90 184 -90q137 0 209 104q57 88 57 248v527h201v-1004h-201v143q-49 -78 -134 -122t-193 -44q-193 0 -291 136q-74 98 -74 317zM274 1108l230 315h201l229 -315h-184l-158 178l-156 -178h-162z" />
<glyph unicode="&#xfc;" horiz-adv-x="1183" d="M137 430v574h201v-574q0 -141 41 -215q57 -90 184 -90q137 0 209 104q57 88 57 248v527h201v-1004h-201v143q-49 -78 -134 -122t-193 -44q-193 0 -291 136q-74 98 -74 317zM338 1176v231h205v-231h-205zM702 1176v231h205v-231h-205z" />
<glyph unicode="&#xfd;" horiz-adv-x="1144" d="M47 1004h221l305 -779l308 779h202l-559 -1360h-205l150 366zM449 1108l200 322h275l-285 -322h-190z" />
<glyph unicode="&#xfe;" horiz-adv-x="1054" d="M98 -356v1792h176v-543q41 57 122 98t171 41q195 0 312.5 -149.5t117.5 -397.5q0 -238 -117.5 -383t-312.5 -145q-176 0 -293 137v-450h-176zM274 494q0 -168 73 -269.5t192 -101.5q123 0 198.5 101.5t75.5 264.5q0 172 -74.5 273.5t-199.5 101.5q-119 0 -192 -100 t-73 -270z" />
<glyph unicode="&#xff;" horiz-adv-x="1144" d="M47 1004h221l305 -779l308 779h202l-559 -1360h-205l150 366zM319 1176v231h205v-231h-205zM684 1176v231h205v-231h-205z" />
<glyph unicode="&#x152;" horiz-adv-x="1953" d="M80 700q0 403 201 605q158 154 389 153q242 0 346 -147v125h852v-181h-651v-440h636v-180h-636v-455h661v-180h-862v123q-117 -162 -348 -162q-258 0 -418 182q-170 201 -170 557zM281 709q0 -274 96 -420q98 -147 291 -148q238 0 348 226v688q-111 225 -346 225 q-193 0 -293 -147q-96 -145 -96 -424z" />
<glyph unicode="&#x153;" horiz-adv-x="1783" d="M72 496q0 256 118.5 396t335.5 140q125 0 221.5 -49t145.5 -139q53 86 150.5 137t211.5 51q139 0 249 -71.5t159 -194.5q39 -100 39 -328h-723q2 -123 51 -192q78 -125 227 -125q184 0 248 198h178q-31 -172 -144.5 -267t-285.5 -95q-121 0 -217 49t-147 133 q-109 -182 -363 -182q-217 0 -335.5 141.5t-118.5 397.5zM254 496q0 -176 72.5 -275.5t199.5 -99.5q125 0 198 98t73 270q0 180 -72 278.5t-199 98.5t-199.5 -98t-72.5 -272zM983 588h530q0 123 -71.5 200.5t-188.5 77.5q-115 0 -187.5 -76.5t-82.5 -201.5z" />
<glyph unicode="&#x178;" horiz-adv-x="1409" d="M41 1436h260l207 -320q106 -164 203 -352q111 215 213 375l194 297h232l-535 -840v-596h-219v594zM416 1565v231h205v-231h-205zM788 1565v231h205v-231h-205z" />
<glyph unicode="&#x2c6;" d="M330 1108l229 315h205l227 -315h-186l-158 174l-151 -174h-166z" />
<glyph unicode="&#x2dc;" d="M313 1182q16 150 66 204q53 59 125 60q80 0 180 -53q96 -47 121 -47q29 0 42 19t21 77h150q-8 -154 -76 -215q-49 -49 -129 -49q-57 0 -149 43q-115 57 -146 57q-25 0 -35 -18.5t-20 -77.5h-150z" />
<glyph unicode="&#x2000;" horiz-adv-x="985" />
<glyph unicode="&#x2001;" horiz-adv-x="1970" />
<glyph unicode="&#x2002;" horiz-adv-x="985" />
<glyph unicode="&#x2003;" horiz-adv-x="1970" />
<glyph unicode="&#x2004;" horiz-adv-x="655" />
<glyph unicode="&#x2005;" horiz-adv-x="491" />
<glyph unicode="&#x2006;" horiz-adv-x="327" />
<glyph unicode="&#x2007;" horiz-adv-x="327" />
<glyph unicode="&#x2008;" horiz-adv-x="245" />
<glyph unicode="&#x2009;" horiz-adv-x="393" />
<glyph unicode="&#x200a;" horiz-adv-x="108" />
<glyph unicode="&#x2011;" horiz-adv-x="692" d="M82 438v185h522v-185h-522z" />
<glyph unicode="&#x2012;" horiz-adv-x="692" d="M82 438v185h522v-185h-522z" />
<glyph unicode="&#x2013;" d="M147 438v185h1000v-185h-1000z" />
<glyph unicode="&#x2014;" horiz-adv-x="2052" d="M279 438v185h1493v-185h-1493z" />
<glyph unicode="&#x2018;" horiz-adv-x="692" d="M133 1087l240 349h153l-170 -349h-223z" />
<glyph unicode="&#x2019;" horiz-adv-x="692" d="M193 1087l100 349h221l-170 -349h-151z" />
<glyph unicode="&#x201a;" horiz-adv-x="692" d="M113 -178l125 385h243l-200 -385h-168z" />
<glyph unicode="&#x201c;" horiz-adv-x="1032" d="M188 1087l240 349h154l-170 -349h-224zM537 1087l239 349h154l-170 -349h-223z" />
<glyph unicode="&#x201d;" horiz-adv-x="1032" d="M199 1087l170 349h223l-240 -349h-153zM549 1087l170 349h225l-239 -349h-156z" />
<glyph unicode="&#x201e;" horiz-adv-x="1032" d="M182 -160l170 348h223l-239 -348h-154zM541 -160l170 348h223l-240 -348h-153z" />
<glyph unicode="&#x2022;" horiz-adv-x="1032" d="M135 748q0 156 113.5 267t273.5 111q154 0 265.5 -113.5t111.5 -267.5q0 -158 -111.5 -270.5t-269.5 -112.5t-270.5 113t-112.5 273z" />
<glyph unicode="&#x2026;" horiz-adv-x="2052" d="M225 0v209h226v-209h-226zM907 0v209h226v-209h-226zM1587 0v209h225v-209h-225z" />
<glyph unicode="&#x202f;" horiz-adv-x="393" />
<glyph unicode="&#x2039;" horiz-adv-x="768" d="M158 510l266 373h182l-225 -373l225 -373h-182z" />
<glyph unicode="&#x203a;" horiz-adv-x="768" d="M147 137l228 371l-228 375h185l264 -375l-264 -371h-185z" />
<glyph unicode="&#x205f;" horiz-adv-x="491" />
<glyph unicode="&#x20ac;" d="M-51 557l49 123h147q0 59 5 104h-201l49 123h166q100 545 567 545q207 0 332 -88t154 -260h-205q-18 92 -92 142t-187 50q-152 0 -235.5 -92t-124.5 -297h680l-49 -123h-646q-2 -20 -2 -104h621l-49 -123h-561q53 -422 366 -422q190 0 238 189h207q-27 -166 -143.5 -255 t-305.5 -89q-256 0 -404.5 148t-174.5 429h-201z" />
<glyph unicode="&#x2122;" horiz-adv-x="1259" d="M106 1352v84h420v-84h-157v-416h-103v416h-160zM559 936v500h141l146 -363l145 363h142v-500h-103v356l-143 -356h-84l-150 360v-360h-94z" />
<glyph unicode="&#xe000;" horiz-adv-x="1004" d="M0 1005h1005v-1005h-1005v1005z" />
<glyph unicode="&#xfb01;" horiz-adv-x="1263" d="M72 852v152h182v133q0 164 70.5 232.5t240.5 68.5q53 0 109 -11v-149q-39 12 -74 12q-82 0 -113.5 -36.5t-31.5 -133.5v-116h196v-152h-196v-852h-201v852h-182zM920 0v1004h200v-1004h-200zM920 1255v181h200v-181h-200z" />
<glyph unicode="&#xfb02;" horiz-adv-x="1263" d="M72 852v152h182v133q0 164 70.5 232.5t240.5 68.5q47 0 109 -11v-149q-37 12 -74 12q-82 0 -113.5 -36.5t-31.5 -133.5v-116h196v-152h-196v-852h-201v852h-182zM899 0v1436h201v-1436h-201z" />
<glyph unicode="&#xfb03;" horiz-adv-x="2002" d="M1638 1255v181h223v-181h-223zM1649 0v1004h200v-1004h-200zM826 852v152h182v133q0 164 70.5 232.5t240.5 68.5q45 0 109 -11v-149q-39 12 -74 12q-82 0 -113.5 -36.5t-31.5 -133.5v-116h196v-152h-196v-852h-201v852h-182zM76 852v152h182v133q0 164 70.5 232.5 t240.5 68.5q45 0 109 -11v-149q-39 12 -74 12q-82 0 -113.5 -36.5t-31.5 -133.5v-116h196v-152h-196v-852h-201v852h-182z" />
<glyph unicode="&#xfb04;" horiz-adv-x="2002" d="M1644 0v1436h201v-1436h-201zM826 852v152h182v133q0 164 70.5 232.5t240.5 68.5q45 0 109 -11v-149q-39 12 -74 12q-82 0 -113.5 -36.5t-31.5 -133.5v-116h196v-152h-196v-852h-201v852h-182zM76 852v152h182v133q0 164 70.5 232.5t240.5 68.5q45 0 109 -11v-149 q-39 12 -74 12q-82 0 -113.5 -36.5t-31.5 -133.5v-116h196v-152h-196v-852h-201v852h-182z" />
</font>
</defs>
</svg>
