<?xml version="1.0" standalone="no"?>
<!DOCTYPE svg PUBLIC "-//W3C//DTD SVG 1.1//EN" "http://www.w3.org/Graphics/SVG/1.1/DTD/svg11.dtd" >
<svg xmlns="http://www.w3.org/2000/svg">
<metadata>
This is a custom SVG webfont generated by Font Squirrel.
Copyright   : Copyright 2000 by URW Design  Development
Foundry     : URW Design  Development
</metadata>
<defs>
<font id="AndFItalic" horiz-adv-x="1335" >
<font-face units-per-em="2048" ascent="1536" descent="-512" />
<missing-glyph horiz-adv-x="522" />
<glyph unicode=" "  horiz-adv-x="522" />
<glyph unicode="&#x09;" horiz-adv-x="522" />
<glyph unicode="&#xa0;" horiz-adv-x="522" />
<glyph unicode="!" horiz-adv-x="581" d="M252 0l27 223h182l-27 -223h-182zM334 326l12 452l82 658h182l-84 -674l-96 -436h-96z" />
<glyph unicode="&#x22;" horiz-adv-x="731" d="M254 1178l27 219h200l-28 -234l-82 -262h-92zM565 1178l27 219h201l-29 -234l-82 -262h-92z" />
<glyph unicode="#" horiz-adv-x="1122" d="M84 371l18 153h222l96 316h-207l18 153h236l117 381h172l-117 -381h219l115 381h174l-117 -381h176l-18 -153h-207l-94 -316h198l-18 -153h-225l-127 -410h-172l125 410h-217l-127 -410h-172l124 410h-192zM496 524h219l94 316h-215z" />
<glyph unicode="$" horiz-adv-x="1122" d="M115 436h178q-8 -172 18 -217q45 -86 183 -106l65 526q-168 51 -233 106q-133 104 -111 304q23 172 135.5 274t306.5 125l15 108h137l-14 -106q172 -14 265 -127t73 -287h-179q12 117 -36 183.5t-142 70.5l-59 -481q121 -39 161 -54.5t76 -39.5q172 -102 144 -324 q-16 -119 -75.5 -216t-150.5 -148q-104 -63 -260 -72l-26 -207h-137l26 207q-203 12 -301 140t-59 341zM399 1055q-10 -88 33 -142.5t150 -83.5l55 455q-96 -12 -162 -73.5t-76 -155.5zM631 115q106 12 174 71q94 82 106 197q12 94 -32.5 142t-186.5 89z" />
<glyph unicode="%" horiz-adv-x="1814" d="M194.5 1042.5q18.5 143.5 131 245t256.5 101.5q147 0 239 -106.5t74 -256.5q-16 -141 -129 -241.5t-256 -100.5q-145 0 -239.5 107.5t-76 251zM352 1030q-10 -80 36 -132t128 -52q80 0 145.5 57.5t75.5 136.5q10 82 -36 134.5t-128 52.5q-80 0 -145.5 -57.5t-75.5 -139.5 zM422 -39l981 1475h162l-981 -1475h-162zM1083 319q16 143 129 244t256 101q145 0 237.5 -106.5t76.5 -254.5q-18 -139 -132 -240.5t-255 -101.5q-143 0 -236.5 107.5t-75.5 250.5zM1239 307q-8 -80 38 -132t126 -52t145.5 57.5t75.5 134.5q10 82 -35 135.5t-127 53.5 q-80 0 -147.5 -58.5t-75.5 -138.5z" />
<glyph unicode="&#x26;" horiz-adv-x="1372" d="M160 369q16 139 95 229t275 197q-74 111 -99 182.5t-17 142.5q14 133 125.5 224.5t257 91.5t231.5 -94.5t70 -235.5q-14 -111 -82 -186.5t-232 -163.5l205 -297q74 98 88 229h180q-27 -211 -159 -385l209 -303h-230l-102 152q-115 -98 -162 -123q-121 -74 -278 -74 q-188 0 -293 116t-82 298zM348 369q-14 -100 47.5 -169t163.5 -69q147 0 315 160l-256 375q-139 -82 -199.5 -149.5t-70.5 -147.5zM596 1106q-6 -53 10.5 -92t87.5 -129q123 74 171 124t57 113q8 72 -30 113t-110 41q-74 0 -126 -47t-60 -123z" />
<glyph unicode="'" horiz-adv-x="411" d="M246 1178l26 219h205l-28 -236l-84 -260h-95z" />
<glyph unicode="(" horiz-adv-x="688" d="M215 522q27 227 143.5 475t286.5 439h141q-338 -453 -395 -930q-59 -479 158 -918h-119q-129 199 -186.5 451t-28.5 483z" />
<glyph unicode=")" horiz-adv-x="688" d="M20 -412q332 455 394 932q57 477 -158 916h119q129 -199 186 -450t29 -482q-29 -229 -145.5 -477t-284.5 -439h-140z" />
<glyph unicode="*" horiz-adv-x="796" d="M225 1163l58 129l196 -71l19 215h141l-35 -211l205 71l29 -137l-211 -57l112 -174l-118 -78l-97 178l-141 -174l-109 86l148 166z" />
<glyph unicode="+" horiz-adv-x="1150" d="M139 383l21 156h403l49 401h156l-49 -401h401l-20 -156h-402l-49 -401h-155l49 401h-404z" />
<glyph unicode="," horiz-adv-x="581" d="M141 -285l13 95q68 4 97.5 38.5t39.5 128.5l4 23h-117l27 223h225l-31 -248q-16 -133 -78.5 -196.5t-179.5 -63.5z" />
<glyph unicode="-" horiz-adv-x="688" d="M156 465l20 162h481l-20 -162h-481z" />
<glyph unicode="." horiz-adv-x="581" d="M178 0l27 223h223l-27 -223h-223z" />
<glyph unicode="/" horiz-adv-x="581" d="M-18 -39l649 1475h133l-647 -1475h-135z" />
<glyph unicode="0" horiz-adv-x="1122" d="M168 702q45 395 207 578q137 156 348 156q102 0 186 -43t131 -119q121 -195 70 -600q-43 -350 -184.5 -534.5t-370.5 -184.5q-231 0 -331.5 193.5t-55.5 553.5zM367 684q-37 -289 11 -426t183 -137q143 0 229.5 143.5t122.5 442.5q35 283 -14 418t-186 135 q-276 -1 -346 -576z" />
<glyph unicode="1" horiz-adv-x="1122" d="M342 1016l25 192q281 141 368 228h180l-176 -1436h-204l145 1198q-100 -76 -338 -182z" />
<glyph unicode="2" horiz-adv-x="1122" d="M82 0l22 197q420 324 617 530.5t213 343.5q12 98 -48.5 159.5t-170.5 61.5q-113 0 -181.5 -65.5t-103.5 -206.5h-223q25 123 52.5 183.5t74.5 109.5q145 143 381 143q217 0 338 -107.5t98 -281.5q-20 -178 -184 -360.5t-615 -534.5h738l-21 -172h-987z" />
<glyph unicode="3" horiz-adv-x="1122" d="M111 432h196q-10 -164 46.5 -232.5t197.5 -68.5q135 0 222 74t101 205q16 125 -43 183t-200 58l-117 -2l23 170q168 2 233 29q123 49 141 190q12 109 -40 166.5t-164 57.5q-170 0 -252 -127q-35 -55 -52 -177h-196q68 477 506 478q205 0 312.5 -109.5t84.5 -298.5 q-25 -219 -213 -287q209 -80 176 -342q-25 -205 -169 -324.5t-365 -119.5q-311 0 -396 219q-40 98 -32 258z" />
<glyph unicode="4" horiz-adv-x="1122" d="M90 344l25 199l694 893h264l-115 -920h195l-20 -172h-195l-41 -344h-192l40 344h-655zM293 516h473l92 737z" />
<glyph unicode="5" horiz-adv-x="1122" d="M143 389h201q-18 -248 209 -248q133 0 219 92.5t107 255.5q16 145 -40.5 224.5t-179.5 79.5q-199 0 -276 -226h-217l141 869h809l-22 -172h-627l-70 -461q119 152 326 151q188 0 293.5 -134t79.5 -343q-27 -223 -182.5 -361.5t-378.5 -138.5q-197 0 -302.5 111t-89.5 301 z" />
<glyph unicode="6" horiz-adv-x="1122" d="M162 664q47 377 198 571q74 94 181.5 147.5t224.5 53.5q168 0 268.5 -105.5t102.5 -283.5h-191q-20 213 -198 213q-147 0 -244.5 -131.5t-126.5 -356.5q111 129 321 129q195 0 307.5 -132t88.5 -333q-27 -211 -174.5 -346t-350.5 -135q-246 0 -346 180q-102 189 -61 529z M342 432q-14 -133 50.5 -217t185.5 -84q119 0 209 86t106 217q16 139 -41 215t-182 76q-127 0 -219.5 -83t-108.5 -210z" />
<glyph unicode="7" horiz-adv-x="1122" d="M215 1264l23 172h974l-22 -174l-690 -1262h-244l717 1264h-758z" />
<glyph unicode="8" horiz-adv-x="1122" d="M119 412q31 238 274 350q-88 57 -122.5 124.5t-22.5 168.5q20 168 153.5 274.5t323.5 106.5q193 0 304.5 -113t88.5 -283q-12 -102 -60 -164.5t-157 -123.5q102 -51 151.5 -144.5t34.5 -214.5q-25 -195 -172 -316.5t-360 -121.5t-337 129t-99 328zM317 393 q-14 -121 50.5 -191.5t191.5 -70.5q133 0 224 76t106 199q14 121 -51.5 191.5t-194.5 70.5t-219.5 -77t-106.5 -198zM446 1040q-12 -96 42.5 -150t162.5 -54q106 0 181 59t86 156q12 100 -41.5 154.5t-162 54.5t-182.5 -61t-86 -159z" />
<glyph unicode="9" horiz-adv-x="1122" d="M143 344h191q20 -213 198 -213q147 0 246 131t127 359q-125 -131 -321 -132q-195 0 -307.5 132.5t-88.5 332.5q27 211 174.5 346.5t350.5 135.5q246 0 348 -183q100 -182 59 -526q-47 -379 -196 -569q-76 -96 -182.5 -149.5t-225.5 -53.5q-168 0 -269.5 104.5 t-103.5 284.5zM389 956q-16 -139 40 -214.5t181 -75.5q127 0 220.5 82.5t107.5 209.5q16 135 -49.5 219.5t-186.5 84.5q-119 0 -209 -87.5t-104 -218.5z" />
<glyph unicode=":" horiz-adv-x="581" d="M223 0l27 223h223l-27 -223h-223zM322 815l28 223h223l-28 -223h-223z" />
<glyph unicode=";" horiz-adv-x="581" d="M186 -285l13 95q68 4 97.5 38.5t39.5 128.5l4 23h-117l27 223h225l-31 -248q-16 -133 -78.5 -196.5t-179.5 -63.5zM324 815l28 223h223l-28 -223h-223z" />
<glyph unicode="&#x3c;" horiz-adv-x="1175" d="M145 393l19 146l1018 411l-23 -184l-784 -305l708 -314l-20 -167z" />
<glyph unicode="=" horiz-adv-x="1175" d="M131 215l21 158h960l-20 -158h-961zM172 549l21 158h960l-20 -158h-961z" />
<glyph unicode="&#x3e;" horiz-adv-x="1175" d="M102 -29l23 185l786 307l-710 311l20 168l920 -412l-17 -145z" />
<glyph unicode="?" horiz-adv-x="1120" d="M281 985q57 473 487 473q193 0 297 -107.5t82 -283.5q-10 -96 -62.5 -173t-175.5 -177q-106 -90 -139 -132t-41 -102l-10 -96h-197l15 121q10 96 73 172q39 45 170 151q160 127 174 252q12 96 -41 149.5t-161 53.5q-160 0 -232 -115q-39 -61 -53 -186h-186zM475 0l27 223 h196l-26 -223h-197z" />
<glyph unicode="@" horiz-adv-x="1957" d="M125 520q23 190 128 374.5t265 315.5q139 115 321.5 181.5t356.5 66.5q346 0 557 -210t172 -529q-33 -248 -213 -434q-172 -174 -387 -174q-92 0 -149.5 37.5t-61.5 95.5q-70 -66 -125 -94.5t-133 -28.5q-135 0 -211 107.5t-57 263.5q27 217 190.5 379.5t360.5 162.5 q80 0 134 -43t66 -102l47 104h189l-250 -567q-35 -70 -35 -92q-4 -31 15.5 -49.5t56.5 -18.5q119 0 243 143.5t144 309.5q31 266 -132 420.5t-446 154.5q-199 0 -389 -104.5t-317 -280.5t-152 -374q-33 -274 150.5 -462t488.5 -188q160 0 383 76l47 -156q-240 -82 -452 -81 q-373 0 -609.5 234t-195.5 562zM782 475q-12 -96 22 -153.5t105 -57.5q90 0 189 125q45 57 90 158.5t57 173.5q14 78 -17.5 123t-107.5 45q-115 0 -216.5 -125t-121.5 -289z" />
<glyph unicode="A" d="M37 0l688 1436h248l327 -1436h-221l-94 426h-528l-201 -426h-219zM528 598h422l-131 602z" />
<glyph unicode="B" horiz-adv-x="1376" d="M164 0l176 1436h618q205 0 302 -103q91 -94 90 -227q0 -23 -2 -47q-29 -221 -215 -303q202 -72 202 -290q0 -29 -4 -60q-23 -176 -143 -287q-127 -119 -328 -119h-696zM385 180h465q125 0 190 66q78 72 90 174q2 20 3 38q0 77 -41 128q-51 61 -193 61h-457zM465 825h375 q131 0 209 54q84 57 96 170q3 20 2 37q0 82 -53 126q-51 43 -189 43h-387z" />
<glyph unicode="C" horiz-adv-x="1447" d="M223 698q43 326 221 535q94 109 232.5 168t296.5 59q268 0 391 -162q70 -92 70 -239h-220q-12 231 -251 231q-111 0 -210.5 -51t-162.5 -145q-115 -174 -139 -392q-8 -64 -9 -122q0 -170 72 -283q96 -152 289 -152q256 0 348 254h229q-51 -203 -207.5 -313.5 t-386.5 -110.5q-291 0 -446 200q-125 160 -125 399q0 59 8 124z" />
<glyph unicode="D" horiz-adv-x="1462" d="M182 0l176 1436h574q270 0 405 -196q104 -150 104 -380q0 -70 -9 -147q-39 -334 -217.5 -523.5t-450.5 -189.5h-582zM406 180h339q205 0 330 140.5t158 404.5q9 71 8 133q0 398 -354 397h-348z" />
<glyph unicode="E" d="M184 0l176 1436h1002l-23 -181h-800l-54 -432h772l-22 -178h-772l-57 -465h835l-20 -180h-1037z" />
<glyph unicode="F" horiz-adv-x="1226" d="M184 0l176 1436h971l-22 -181h-770l-54 -432h676l-22 -178h-676l-78 -645h-201z" />
<glyph unicode="G" horiz-adv-x="1523" d="M217 721q37 305 211 504q211 236 553 235q291 0 420 -164q74 -94 74 -258h-224q0 125 -57 181q-76 70 -227 69q-217 0 -354.5 -152.5t-172.5 -430.5q-8 -66 -8 -125q0 -186 84 -293q111 -141 361 -142q147 0 280 35l51 406h-329l20 178h539l-86 -713q-254 -76 -516 -76 q-340 0 -498 199q-129 165 -129 415q0 63 8 132z" />
<glyph unicode="H" horiz-adv-x="1441" d="M172 0l176 1436h201l-76 -613h707l75 613h201l-176 -1436h-201l78 645h-704l-78 -645h-203z" />
<glyph unicode="I" horiz-adv-x="581" d="M205 0l176 1436h203l-176 -1436h-203z" />
<glyph unicode="J" horiz-adv-x="1011" d="M84 342l16 133h205l-12 -104q-4 -34 -4 -63q0 -181 166 -181q117 0 182 88q53 68 74 221l123 1000h200l-133 -1078q-23 -188 -144.5 -295.5t-307.5 -107.5q-184 0 -286 107q-83 88 -83 220q0 29 4 60z" />
<glyph unicode="K" d="M164 0l176 1436h201l-86 -697l770 697h274l-670 -596l484 -840h-230l-405 721l-254 -225l-59 -496h-201z" />
<glyph unicode="L" horiz-adv-x="1161" d="M166 0l176 1436h201l-156 -1256h739l-20 -180h-940z" />
<glyph unicode="M" horiz-adv-x="1699" d="M156 0l176 1436h266l283 -1213l573 1213h270l-176 -1436h-190l137 1128l-534 -1128h-207l-267 1145l-139 -1145h-192z" />
<glyph unicode="N" horiz-adv-x="1441" d="M158 0l176 1436h207l587 -1141l142 1141h190l-176 -1436h-213l-586 1130l-137 -1130h-190z" />
<glyph unicode="O" horiz-adv-x="1560" d="M215 727q41 340 236.5 536.5t488.5 196.5q342 0 492 -266q82 -142 81 -344q0 -71 -10 -150q-39 -332 -237.5 -528.5t-491.5 -196.5t-446 206q-121 162 -122 409q0 65 9 137zM440 721q-10 -72 -9 -139q0 -132 38 -240q37 -92 121 -143.5t198 -51.5q195 0 329 155t167 417 q9 74 9 138q0 177 -66 285q-90 146 -293 146q-195 0 -328 -152.5t-166 -414.5z" />
<glyph unicode="P" horiz-adv-x="1355" d="M186 0l176 1436h613q211 0 316 -115q86 -93 86 -245q0 -35 -5 -75q-25 -188 -164 -303q-121 -98 -288 -98h-461l-72 -600h-201zM481 780h383q127 0 207 65.5t94 178.5q3 22 3 42q0 84 -48 131q-59 58 -188 58h-391z" />
<glyph unicode="Q" horiz-adv-x="1597" d="M238 723q41 330 206 512q94 109 232.5 168t292.5 59q291 0 445 -198q124 -159 124 -398q0 -60 -8 -125q-33 -260 -162 -434q-72 -100 -156 -157q96 27 256 26h93l-21 -176h-192q-158 0 -365 -14q-147 -8 -190 -9q-156 0 -282 66t-198 182q-86 141 -85 349q0 71 10 149z M461 713q-9 -73 -9 -138q0 -173 64 -279q88 -146 283 -146q193 0 333 164.5t173 428.5q9 71 8 134q0 169 -65 273q-89 142 -285 142q-201 0 -334 -154.5t-168 -424.5z" />
<glyph unicode="R" horiz-adv-x="1441" d="M190 0l177 1436h659q209 0 313 -105q86 -86 86 -228q0 -31 -4 -65q-29 -231 -250 -333q63 -29 95 -69t43 -115q4 -29 4 -63q0 -55 -10 -126q-9 -85 -9 -137q0 -33 3 -53q9 -50 59 -87l-6 -55h-232q-26 72 -25 164q0 41 5 86l18 125q4 34 5 63q0 78 -32 118 q-44 54 -163 54h-461l-74 -610h-201zM487 788h424q139 0 212 58.5t87 183.5q3 24 3 45q0 88 -48 133q-49 47 -186 47h-434z" />
<glyph unicode="S" d="M182 403h226q0 -90 9 -125.5t42 -66.5q72 -66 217 -66q150 0 250 69t114 179q2 13 2 26q0 68 -57 109q-57 47 -266 107q-150 43 -224.5 79t-121.5 89q-85 85 -86 207q0 24 4 51q23 178 179.5 288.5t389.5 110.5q129 0 231.5 -39t153.5 -106q63 -76 66 -234h-224 q-6 113 -60 160t-177 47q-131 0 -224.5 -66.5t-105.5 -168.5q-2 -15 -2 -28q0 -66 42 -103q50 -45 210 -95q184 -53 270 -90t146 -84q47 -41 69 -111q17 -52 17 -108q0 -20 -2 -41q-23 -188 -189 -304t-411 -116q-150 0 -263.5 44t-168.5 124q-56 87 -57 226q0 17 1 36z" />
<glyph unicode="T" horiz-adv-x="1226" d="M205 1255l22 181h1131l-23 -181h-463l-153 -1255h-203l154 1255h-465z" />
<glyph unicode="U" horiz-adv-x="1441" d="M229 436l123 1000h201l-125 -1008q-3 -24 -3 -46q0 -108 68 -171q81 -76 246.5 -76t272 81t123.5 220l122 1000h201l-125 -1008q-27 -217 -190.5 -345t-413.5 -128t-388 133q-116 112 -116 281q0 32 4 67z" />
<glyph unicode="V" d="M242 1436h213l262 -1176l530 1176h217l-671 -1436h-211z" />
<glyph unicode="W" horiz-adv-x="1873" d="M229 1436h217l121 -1119l445 1119h211l174 -1119l391 1119h227l-540 -1436h-213l-181 1135l-446 -1135h-215z" />
<glyph unicode="X" d="M37 0l604 745l-383 691h231l289 -547l428 547h254l-579 -707l411 -729h-235l-309 582l-453 -582h-258z" />
<glyph unicode="Y" d="M209 1436h237l326 -678l481 678h250l-653 -881l-68 -555h-200l69 571z" />
<glyph unicode="Z" horiz-adv-x="1226" d="M66 0l20 182l967 1073h-781l23 181h1040l-24 -187l-963 -1069h836l-21 -180h-1097z" />
<glyph unicode="[" horiz-adv-x="581" d="M84 -412l227 1848h381l-20 -160h-201l-188 -1528h200l-18 -160h-381z" />
<glyph unicode="\" horiz-adv-x="581" d="M168 1436h127l283 -1475h-125z" />
<glyph unicode="]" horiz-adv-x="581" d="M4 -412l19 160h198l189 1528h-199l20 160h381l-227 -1848h-381z" />
<glyph unicode="^" horiz-adv-x="952" d="M166 639l397 758h154l217 -758h-148l-159 565l-299 -565h-162z" />
<glyph unicode="_" horiz-adv-x="1120" d="M-76 -342l15 119h1185l-14 -119h-1186z" />
<glyph unicode="`" horiz-adv-x="665" d="M215 1409h231l156 -299h-123z" />
<glyph unicode="a" horiz-adv-x="1107" d="M137 291q31 258 359 307q78 10 346 20l6 64q4 32 4 59q0 71 -28 106q-38 48 -144 48q-197 0 -223 -178h-209q35 164 133 236.5t283 72.5q213 0 313 -100q71 -72 71 -208q0 -37 -6 -79l-38 -311q-16 -137 -16 -257q0 -36 1 -71h-196q-9 68 -9 114v17q-72 -82 -145.5 -118 t-179.5 -36q-160 0 -249 88q-75 74 -75 184q-1 20 2 42zM344 289q-2 -13 -2 -26q0 -56 39 -93q47 -45 133 -45q158 0 242 125q49 76 63 190l6 49h-57q-201 0 -297 -45q-113 -46 -127 -155z" />
<glyph unicode="b" horiz-adv-x="1183" d="M156 0l176 1436h200l-71 -582q123 172 340 172q188 0 279 -146q68 -110 68 -277q0 -56 -7 -120q-29 -240 -149 -373t-304 -133q-223 0 -311 193l-21 -170h-200zM414 500q-5 -45 -6 -85q0 -115 45 -190q59 -100 186 -100q119 0 196.5 99.5t100.5 275.5q8 61 7 111 q0 268 -208 268q-123 0 -212 -104.5t-109 -274.5z" />
<glyph unicode="c" horiz-adv-x="1107" d="M162 510q29 231 180.5 373.5t370.5 142.5q102 0 189 -38t132 -103q52 -74 52 -189q0 -16 -1 -32h-182q-6 78 -26 131q-41 84 -179 84q-135 0 -222 -101.5t-109 -283.5q-7 -53 -7 -99q0 -270 238 -270q109 0 171 52t91 167h191q-31 -113 -59.5 -167t-80.5 -95 q-121 -104 -331 -105q-219 0 -333 145q-91 115 -91 294q0 45 6 94z" />
<glyph unicode="d" horiz-adv-x="1183" d="M154 502q29 248 148.5 386t305.5 138q219 0 314 -188l73 598h201l-176 -1436h-201l19 154q-125 -176 -342 -177q-188 0 -281 142q-69 106 -69 268q0 55 8 115zM358 489q-7 -57 -7 -105q0 -259 204 -259q125 0 216 108.5t112 282.5q5 45 5 84q0 111 -42 182 q-57 96 -182 97q-121 0 -203.5 -105t-102.5 -285z" />
<glyph unicode="e" horiz-adv-x="1107" d="M162 506q29 244 170 382t358 138q207 0 304 -139q74 -106 74 -278q0 -54 -7 -115q0 -10 -4 -39h-703q-4 -35 -4 -67q0 -78 25 -142q49 -121 198 -121q205 0 263 211h190q-86 -358 -463 -359q-211 0 -320 145q-87 114 -87 289q0 45 6 95zM377 606h502q2 25 2 47 q0 225 -205 226q-111 0 -190.5 -75t-108.5 -198z" />
<glyph unicode="f" horiz-adv-x="563" d="M147 856l19 148h133l18 161q14 109 83 169.5t178 60.5q47 0 104 -15l-16 -145q-37 2 -64 2q-98 0 -110 -94l-17 -139h162l-19 -148h-161l-105 -856h-176l105 856h-134z" />
<glyph unicode="g" horiz-adv-x="1183" d="M115 -55h200q4 -98 50.5 -136t154.5 -38q276 0 311 288l15 113q-147 -160 -334 -160q-184 0 -282 138q-76 108 -76 268q0 44 6 92q27 229 161 372.5t316 143.5q199 0 291 -178l20 156h201l-111 -898q-29 -221 -112 -317q-143 -166 -434 -166q-250 0 -332 127 q-45 70 -45 195zM365 489q-6 -43 -6 -80q0 -99 39 -162q54 -87 171 -87q156 0 248 139q49 82 64 201q8 62 8 114q0 84 -21 144q-53 121 -192 121q-147 0 -234 -148q-63 -111 -77 -242z" />
<glyph unicode="h" horiz-adv-x="1103" d="M141 0l176 1436h177l-66 -533q94 129 311 129q154 0 241 -88q70 -71 70 -195q0 -29 -3 -61l-84 -688h-177l82 676q3 26 3 48q0 73 -30 106q-40 44 -132 44q-133 0 -220.5 -89t-105.5 -238l-66 -547h-176z" />
<glyph unicode="i" horiz-adv-x="456" d="M135 0l123 1004h176l-123 -1004h-176zM276 1171l27 218h178l-26 -218h-179z" />
<glyph unicode="j" horiz-adv-x="456" d="M-72 -399l19 149q31 -2 37 -2q70 0 100.5 27.5t40.5 97.5l139 1131h176l-147 -1203q-29 -211 -297 -211q-39 1 -68 11zM285 1171l26 218h176l-26 -218h-176z" />
<glyph unicode="k" horiz-adv-x="978" d="M119 0l176 1436h176l-102 -828l446 396h242l-406 -359l324 -645h-207l-264 526l-164 -143l-45 -383h-176z" />
<glyph unicode="l" horiz-adv-x="456" d="M137 0l176 1436h179l-177 -1436h-178z" />
<glyph unicode="m" horiz-adv-x="1642" d="M141 0l123 1004h166l-14 -115q106 143 309 143q86 0 155.5 -45t92.5 -113q53 74 139 116t186 42q139 0 224 -89q68 -72 67 -193q0 -30 -4 -62l-84 -688h-178l84 684q3 26 3 48q0 68 -29 99q-38 43 -126 43q-98 0 -177 -74.5t-91 -178.5l-76 -621h-178l84 684q2 21 2 41 q0 65 -26 102q-33 47 -113 48q-3 0 -6 -1q-104 -2 -187.5 -92t-101.5 -233l-66 -549h-178z" />
<glyph unicode="n" horiz-adv-x="1103" d="M141 0l123 1004h166l-14 -117q49 70 136 107.5t187 37.5q154 0 241 -88q70 -71 70 -195q0 -29 -3 -61l-84 -688h-177l82 676q3 26 3 48q0 73 -30 106q-40 44 -132 44q-133 0 -220.5 -89t-105.5 -238l-66 -547h-176z" />
<glyph unicode="o" horiz-adv-x="1183" d="M166 506q29 244 172 382t367 138q227 0 343 -143q91 -113 91 -291q0 -47 -6 -98q-29 -236 -177.5 -376.5t-367.5 -140.5q-221 0 -336 145q-92 116 -92 292q0 44 6 92zM373 500q-6 -52 -6 -98q0 -277 227 -277q133 0 222 105.5t112 287.5q6 49 6 92q0 269 -236 269 q-131 0 -216.5 -100.5t-108.5 -278.5z" />
<glyph unicode="p" horiz-adv-x="1183" d="M102 -356l168 1360h201l-20 -154q129 176 342 176q188 0 280 -140q70 -107 70 -273q0 -52 -6 -109q-31 -250 -152 -388.5t-305 -138.5q-221 0 -313 189l-64 -522h-201zM406 487q-5 -45 -6 -84q0 -111 42 -182q57 -96 183 -96q119 0 200.5 104.5t104.5 284.5q7 57 7 106 q0 259 -204 259q-125 0 -216 -109t-111 -283z" />
<glyph unicode="q" horiz-adv-x="1183" d="M168 520q29 242 147.5 374t305.5 132q109 0 190.5 -50t122.5 -140l20 168h201l-168 -1360h-201l62 506q-125 -172 -340 -173q-188 0 -280 147q-68 110 -68 277q0 56 8 119zM373 502q-8 -60 -8 -111q0 -266 208 -266q123 0 212 104.5t110 274.5q5 45 5 84q0 115 -44 190 q-59 100 -186 101q-119 0 -196.5 -99.5t-100.5 -277.5z" />
<glyph unicode="r" horiz-adv-x="665" d="M139 0l123 1004h166l-18 -140q111 168 270 168q37 0 78 -10l-23 -182q-15 1 -28 0q-117 0 -185 -45q-117 -76 -143 -281l-62 -514h-178z" />
<glyph unicode="s" horiz-adv-x="1032" d="M131 287l4 32h201l-4 -40q0 -55 7 -79t32 -44q47 -41 143 -41t166 47t78 121q1 10 1 19q0 42 -31 69q-38 33 -144 61q-219 57 -299 126q-68 58 -68 148q0 16 2 33q16 133 129 210t291 77q231 0 315 -117q43 -68 43 -188h-200q1 15 1 29q0 68 -34 100q-41 39 -137 39 q-84 0 -144.5 -40t-68.5 -101q-4 -47 30.5 -74t149.5 -60q209 -59 285 -110q88 -64 88 -179q0 -18 -2 -38q-18 -143 -139 -226.5t-314 -83.5q-168 0 -276 68q-107 70 -108 198q0 22 3 44z" />
<glyph unicode="t" horiz-adv-x="583" d="M141 856l19 148h133l33 270h176l-33 -270h182l-18 -148h-182l-82 -663q-2 -13 -2 -24q0 -28 12 -39q16 -15 67 -15q43 0 97 10l-19 -156q-82 -12 -133 -12q-96 0 -155 50q-51 43 -51 115q0 12 1 25l88 709h-133z" />
<glyph unicode="u" horiz-adv-x="1103" d="M178 301l86 703h176l-86 -691q-3 -26 -3 -48q0 -73 31 -106q40 -44 132 -44q133 0 220 89t106 238l69 562h176l-122 -1004h-166l12 102q-51 -70 -138 -107.5t-188 -37.5q-154 0 -239 88q-69 71 -70 194q0 30 4 62z" />
<glyph unicode="v" horiz-adv-x="978" d="M150 1004h194l160 -775l364 775h203l-508 -1004h-184z" />
<glyph unicode="w" horiz-adv-x="1394" d="M141 1004h193l102 -736l269 736h208l95 -736l276 736h205l-420 -1004h-195l-100 737l-270 -737h-193z" />
<glyph unicode="x" horiz-adv-x="978" d="M27 0l424 520l-269 484h191l186 -349l275 349h215l-408 -494l279 -510h-195l-195 369l-286 -369h-217z" />
<glyph unicode="y" horiz-adv-x="978" d="M63 -377l19 154q57 -12 84 -13q90 0 135 99l78 151l-211 990h186l152 -746l354 746h197l-594 -1213q-59 -113 -127 -156q-70 -45 -152 -45q-64 0 -121 33z" />
<glyph unicode="z" horiz-adv-x="978" d="M68 0l18 162l653 684h-528l20 158h754l-20 -160l-650 -686h592l-18 -158h-821z" />
<glyph unicode="{" horiz-adv-x="690" d="M147 438l19 152q88 14 128 72.5t56 191.5l39 322q14 125 80 192.5t172 67.5h102l-18 -148h-39q-66 0 -93.5 -26.5t-35.5 -96.5l-43 -354q-16 -135 -57 -203.5t-123 -97.5q135 -68 106 -309l-43 -351q-10 -74 7.5 -94t87.5 -20h43l-19 -148h-98q-100 0 -152.5 74 t-38.5 195l41 327q16 135 -8.5 185.5t-112.5 68.5z" />
<glyph unicode="|" horiz-adv-x="544" d="M154 -412l227 1848h137l-227 -1848h-137z" />
<glyph unicode="}" horiz-adv-x="690" d="M14 -412l19 148h41q66 0 92.5 25.5t36.5 97.5l43 354q31 238 182 303q-63 29 -92 110t-14 197l43 351q10 74 -7.5 94t-89.5 20h-45l19 148h100q102 0 153.5 -73t36.5 -196l-38 -325q-16 -135 6 -186.5t110 -69.5l-18 -152q-86 -14 -125 -72.5t-55 -189.5l-41 -324 q-16 -125 -81 -192.5t-171 -67.5h-105z" />
<glyph unicode="~" horiz-adv-x="1175" d="M225 569q51 301 248 301q57 0 107 -32l213 -133q47 -33 86 -33q98 0 114 147h125l-6 -45q-14 -119 -77.5 -186.5t-160.5 -67.5q-78 0 -157 53l-180 123q-8 8 -32 16.5t-36 8.5q-57 0 -96 -72q-14 -27 -27 -80h-121z" />
<glyph unicode="&#xa1;" horiz-adv-x="688" d="M199 -397l82 673l94 435h96l-12 -451l-80 -657h-180zM344 815l29 223h182l-29 -223h-182z" />
<glyph unicode="&#xa2;" horiz-adv-x="1122" d="M195 494q29 231 154.5 373.5t318.5 162.5l20 168h100l-20 -166q156 -12 241 -113.5t74 -265.5h-176q0 201 -159 213l-91 -743q160 16 222 235h178q-33 -182 -143.5 -287.5t-276.5 -113.5l-23 -182h-100l23 184q-180 16 -274.5 162t-67.5 373zM375 477q-37 -315 182 -354 l90 737q-109 -18 -180.5 -117.5t-91.5 -265.5z" />
<glyph unicode="&#xa3;" horiz-adv-x="1122" d="M76 123q154 119 221.5 205t79.5 176q8 68 -23 137h-229l16 129h158q-51 109 -63.5 159t-4.5 118q23 182 175.5 305t355.5 123q129 0 228.5 -56.5t144.5 -154.5q45 -94 24 -273h-196q14 162 -38.5 234.5t-179.5 72.5q-125 0 -209.5 -69.5t-99.5 -181.5q-6 -55 3.5 -96.5 t52.5 -131.5l22 -49h328l-17 -129h-270q18 -80 12 -139q-23 -162 -211 -312q82 29 166 29q76 0 162 -29q104 -33 152 -32q76 0 176 65l82 -155q-127 -113 -279 -113q-102 0 -289 70q-53 20 -125 20q-102 0 -231 -80z" />
<glyph unicode="&#xa4;" horiz-adv-x="1120" d="M195 385l104 96q-49 80 -35 199q16 111 84 197l-92 106l131 111l96 -109q78 49 190.5 49t182.5 -53l129 106l117 -133l-125 -110q41 -66 27 -180q-12 -102 -76 -185l94 -106l-135 -113l-90 102q-78 -53 -199 -53q-113 0 -176 45l-115 -100zM436 664q-10 -80 39 -132.5 t131 -52.5q80 0 148.5 58.5t76.5 136.5q10 84 -36.5 137t-130.5 53q-82 0 -150 -59t-78 -141z" />
<glyph unicode="&#xa5;" horiz-adv-x="1122" d="M166 350l16 121h344l17 133h-344l14 123h299l-322 709h187l285 -633l428 633h202l-489 -709h289l-15 -123h-338l-16 -133h338l-17 -121h-337l-41 -350h-197l41 350h-344z" />
<glyph unicode="&#xa6;" horiz-adv-x="544" d="M154 -412l98 799h137l-98 -799h-137zM283 637l98 799h137l-98 -799h-137z" />
<glyph unicode="&#xa7;" horiz-adv-x="1122" d="M147 -8h191q-14 -117 8 -162q45 -82 146 -82q84 0 143 48t70 122q6 49 -13.5 86t-73.5 78l-309 233q-174 133 -149 326q12 100 69.5 171t171.5 128q-74 102 -59 205q16 139 136 234.5t280 95.5q158 0 249 -103.5t70 -261.5l-8 -63h-188l8 63q10 92 -30 141t-124 49 q-74 0 -129 -47t-63 -116q-6 -43 12 -73t78 -71l268 -188q111 -78 153 -158t27 -188q-27 -231 -250 -312q88 -121 72 -235q-16 -145 -136 -241.5t-282 -96.5q-127 0 -219 65.5t-119 176.5q-14 74 0 176zM340 657q-8 -59 11.5 -94t90.5 -92l289 -238q74 37 118 90.5t52 110.5 q12 117 -115 211l-282 209q-154 -95 -164 -197z" />
<glyph unicode="&#xa8;" horiz-adv-x="665" d="M205 1149l26 213h218l-27 -213h-217zM510 1149l27 213h215l-27 -213h-215z" />
<glyph unicode="&#xa9;" horiz-adv-x="1472" d="M72 715q39 311 283.5 528t554 217t506 -223t159.5 -532q-39 -315 -285 -531.5t-563 -216.5q-301 0 -496.5 226.5t-158.5 531.5zM223 702q-31 -250 119 -427t391 -177q256 0 457 181.5t231 437.5q33 252 -117.5 428t-398.5 176t-449.5 -182.5t-232.5 -436.5zM449 709 q27 209 147.5 334.5t294.5 125.5q268 0 299 -321h-156q-12 104 -46 142t-109 38q-106 0 -183.5 -91t-95.5 -241q-18 -143 37 -227q49 -84 149 -84q168 0 234 242h162q-53 -168 -113 -244q-113 -139 -285 -139t-266 131t-69 334z" />
<glyph unicode="&#xaa;" horiz-adv-x="759" d="M166 588l14 121h557l-14 -121h-557zM201 979q16 131 131 172q70 25 203 35q92 8 98 55l2 25q6 39 -17.5 56t-82.5 17q-63 0 -95 -23.5t-51 -84.5h-135q35 229 283 229q121 0 181 -51t48 -145l-43 -349q-2 -29 25 -28q14 0 38 12l-12 -115q-37 -10 -67 -10q-100 0 -111 70 q-82 -70 -199 -70q-98 0 -152 57.5t-44 147.5zM334 971q-4 -39 15.5 -56.5t66.5 -17.5q68 0 126 38t62 81l10 78q-20 -6 -129 -23q-76 -10 -111.5 -33.5t-39.5 -66.5z" />
<glyph unicode="&#xab;" horiz-adv-x="1083" d="M248 438l20 174l336 246l-24 -192l-211 -152l174 -152l-21 -167zM633 438l20 174l336 246l-24 -192l-211 -152l174 -152l-21 -167z" />
<glyph unicode="&#xac;" horiz-adv-x="1175" d="M160 592l18 156h1000l-70 -580h-158l51 424h-841z" />
<glyph unicode="&#xad;" horiz-adv-x="688" d="M156 465l20 162h481l-20 -162h-481z" />
<glyph unicode="&#x2010;" horiz-adv-x="688" d="M156 465l20 162h481l-20 -162h-481z" />
<glyph unicode="&#xae;" horiz-adv-x="1472" d="M72 715q39 311 283.5 528t554 217t506 -223t159.5 -532q-39 -315 -285 -531.5t-563 -216.5q-301 0 -496.5 226.5t-158.5 531.5zM223 702q-31 -250 119 -427t391 -177q256 0 457 181.5t231 437.5q33 252 -117.5 428t-398.5 176t-449.5 -182.5t-232.5 -436.5zM434 272 l109 885h407q139 0 205 -67.5t49 -196.5q-8 -68 -33.5 -108t-85.5 -83q41 -31 51.5 -72.5t0.5 -146.5q-8 -82 -4 -107.5t30 -47.5l-6 -56h-166q-27 74 -16 168l12 78q8 63 -12.5 88t-85.5 25h-254l-43 -359h-158zM653 774h236q139 0 153 125q8 66 -16.5 90.5t-99.5 24.5 h-244z" />
<glyph unicode="&#xaf;" horiz-adv-x="665" d="M207 1184l20 151h535l-21 -151h-534z" />
<glyph unicode="&#x2c9;" horiz-adv-x="665" d="M207 1184l20 151h535l-21 -151h-534z" />
<glyph unicode="&#xb0;" horiz-adv-x="817" d="M231.5 1055q14.5 125 112.5 211t225 86q123 0 204 -92.5t66.5 -217t-112.5 -212t-225 -87.5q-123 0 -204 93.5t-66.5 218.5zM362 1042q-8 -72 32 -120t112 -48q76 0 135 53.5t70 127.5q8 72 -33 119t-113 47q-74 0 -133.5 -53.5t-69.5 -125.5z" />
<glyph unicode="&#xb1;" horiz-adv-x="1175" d="M102 -20l21 155h960l-20 -155h-961zM188 672l19 155h403l49 404h156l-49 -404h401l-18 -155h-401l-50 -402h-155l49 402h-404z" />
<glyph unicode="&#xb2;" horiz-adv-x="706" d="M102 567q27 160 86.5 238t210.5 153l125 62q129 70 140 156q8 61 -30 97t-106 36q-104 0 -157 -82q-23 -31 -39 -115h-146q27 168 111 246t238 78q131 0 208.5 -78t63.5 -191q-18 -166 -221 -260l-133 -63q-125 -61 -158 -142h450l-16 -135h-627z" />
<glyph unicode="&#xb3;" horiz-adv-x="706" d="M131 844h143q-8 -102 24 -140t120 -38q80 0 134 42t62 115q12 102 -86 123q-29 4 -147 4l16 123q129 0 176.5 24.5t57.5 92.5q14 119 -119 119q-109 0 -152 -72q-20 -31 -30 -104h-146q43 303 330 303q131 0 202.5 -72t57.5 -186q-14 -121 -115 -162q51 -18 79 -74.5 t20 -132.5q-16 -123 -109.5 -196.5t-236.5 -73.5q-147 0 -222 82t-59 223z" />
<glyph unicode="&#xb4;" horiz-adv-x="665" d="M303 1110l229 299h256l-337 -299h-148z" />
<glyph unicode="&#xb5;" horiz-adv-x="1083" d="M82 -414l174 1418h176l-88 -713q-10 -86 31 -131t131 -45q119 0 203 90t102 237l70 562h176l-103 -834q-4 -35 9.5 -48t56.5 -13q4 0 43 8l-16 -144q-68 -16 -111 -16q-80 0 -123 38t-39 91q-109 -129 -305 -129q-113 0 -160 45l-51 -416h-176z" />
<glyph unicode="&#xb6;" horiz-adv-x="1083" d="M221 969q23 197 167 332t333 135h500l-19 -146h-110l-201 -1634h-146l201 1634h-139l-201 -1634h-143l104 848q-131 6 -227 90q-148 139 -119 375z" />
<glyph unicode="&#xb7;" horiz-adv-x="581" d="M250 586l31 264h262l-31 -264h-262z" />
<glyph unicode="&#x2219;" horiz-adv-x="581" d="M250 586l31 264h262l-31 -264h-262z" />
<glyph unicode="&#xb8;" horiz-adv-x="665" d="M37 -328l57 88l21 -14q100 -49 155 -49q41 0 73 22.5t36 57.5q4 29 -10.5 41t-51.5 12q-23 0 -59 -18l-39 28l103 180h102l-55 -100h2h2h2h2h2h20q70 0 110 -40t32 -103q-10 -84 -78 -131t-178 -47q-57 0 -104.5 14t-143.5 59z" />
<glyph unicode="&#xb9;" horiz-adv-x="706" d="M262 1157l14 113l31 2q109 10 149 39.5t76 124.5h107l-107 -869h-145l72 590h-197z" />
<glyph unicode="&#xba;" horiz-adv-x="749" d="M180 588l15 121h532l-14 -121h-533zM225.5 1124.5q20.5 161.5 103.5 248.5t218 87t201.5 -94t46.5 -260q-20 -158 -104.5 -245t-215.5 -87q-135 0 -202.5 94.5t-47 256zM356 1110q-25 -213 121 -213q72 0 123 61.5t64 163.5q25 217 -119 217q-72 0 -124.5 -62.5 t-64.5 -166.5z" />
<glyph unicode="&#xbb;" horiz-adv-x="1083" d="M215 182l25 193l215 151l-179 152l21 168l281 -244l-23 -174zM588 182l24 193l215 151l-178 152l21 168l280 -244l-22 -174z" />
<glyph unicode="&#xbc;" horiz-adv-x="1705" d="M221 1157l15 113l32 2q109 10 149 39.5t75 124.5h106l-106 -869h-144l72 590h-199zM322 -39l1095 1475h150l-1098 -1475h-147zM1042 199l19 141l473 528h113l-68 -542h133l-16 -127h-133l-23 -199h-145l22 199h-375zM1214 326h220l34 290z" />
<glyph unicode="&#xbd;" horiz-adv-x="1705" d="M223 1157l15 113l32 2q109 10 149 39.5t75 124.5h106l-106 -869h-144l72 590h-199zM274 -39l1098 1475h148l-1096 -1475h-150zM1032 0q27 162 87.5 239.5t211.5 151.5l123 62q129 70 139 155q8 61 -29.5 98t-105.5 37q-98 0 -158 -81q-23 -33 -38 -117h-144 q27 168 110 245.5t236 77.5q133 0 210 -76.5t63 -191.5q-18 -168 -219 -258l-136 -66q-125 -63 -157 -139h450l-16 -137h-627z" />
<glyph unicode="&#xbe;" horiz-adv-x="1705" d="M113 844h143q-8 -102 23.5 -140t119.5 -38q82 0 135.5 42t61.5 115q12 102 -86 123q-27 4 -148 4l17 123q129 0 176 24.5t57 92.5q14 119 -118 119q-102 0 -152 -72q-20 -31 -31 -104h-145q45 303 330 303q131 0 203.5 -71t58.5 -185q-14 -121 -117 -164q51 -18 79 -74.5 t19 -132.5q-16 -123 -109 -196.5t-237 -73.5q-145 0 -220.5 82t-59.5 223zM360 -39l1098 1475h148l-1096 -1475h-150zM1063 199l18 141l473 528h113l-68 -542h134l-17 -127h-133l-22 -199h-146l23 199h-375zM1233 326h221l35 290z" />
<glyph unicode="&#xbf;" horiz-adv-x="1226" d="M190 -31q12 100 64.5 176t175.5 177q109 88 141.5 131t40.5 102l13 96h194l-16 -121q-10 -100 -74 -174q-41 -45 -172 -151q-160 -125 -174 -252q-12 -94 44 -148.5t165 -54.5q156 0 229 115q39 70 56 188h184q-57 -475 -488 -475q-193 0 -299.5 107.5t-83.5 283.5z M643 815l29 223h194l-28 -223h-195z" />
<glyph unicode="&#xc0;" d="M37 0l688 1436h248l327 -1436h-221l-94 426h-528l-201 -426h-219zM528 598h422l-131 602zM598 1843h236l163 -307h-129z" />
<glyph unicode="&#xc1;" d="M37 0l688 1436h248l327 -1436h-221l-94 426h-528l-201 -426h-219zM528 598h422l-131 602zM717 1536l235 307h262l-346 -307h-151z" />
<glyph unicode="&#xc2;" d="M37 0l688 1436h248l327 -1436h-221l-94 426h-528l-201 -426h-219zM528 598h422l-131 602zM555 1534l238 311h194l162 -311h-135l-127 180l-172 -180h-160z" />
<glyph unicode="&#xc3;" d="M37 0l688 1436h248l327 -1436h-221l-94 426h-528l-201 -426h-219zM528 598h422l-131 602zM545 1579q63 219 198 219q49 0 138 -37q74 -35 112 -35q51 0 78 72h137q-59 -221 -204 -221q-49 0 -164 47q-61 27 -90 27q-41 0 -68 -72h-137z" />
<glyph unicode="&#xc4;" d="M37 0l688 1436h248l327 -1436h-221l-94 426h-528l-201 -426h-219zM528 598h422l-131 602zM594 1575l27 219h223l-27 -219h-223zM909 1575l27 219h223l-26 -219h-224z" />
<glyph unicode="&#xc5;" d="M37 0l688 1436h248l327 -1436h-221l-94 426h-528l-201 -426h-219zM528 598h422l-131 602zM696 1698q10 72 67.5 122t131.5 50t123 -56.5t39 -130.5q-8 -74 -64.5 -124t-130.5 -50t-124 57.5t-42 131.5zM803 1686q-10 -70 59 -70q31 0 59.5 24.5t30.5 55.5q10 70 -59 69 q-33 0 -59.5 -24t-30.5 -55z" />
<glyph unicode="&#xc6;" horiz-adv-x="1982" d="M23 0l765 1436h1227l-22 -181h-719l-53 -432h682l-23 -178h-682l-57 -465h755l-20 -180h-956l49 416h-502l-215 -416h-229zM557 596h434l82 659h-174z" />
<glyph unicode="&#xc7;" horiz-adv-x="1447" d="M223 698q43 326 221 535q94 109 232.5 168t296.5 59q268 0 391 -162q70 -92 70 -239h-220q-12 231 -251 231q-111 0 -210.5 -51t-162.5 -145q-115 -174 -139 -392q-33 -254 63 -405.5t289 -151.5q256 0 348 254h229q-51 -203 -207.5 -313.5t-386.5 -110.5 q-291 0 -446.5 199.5t-116.5 523.5zM469 -391l215 287h184l-159 -287h-240z" />
<glyph unicode="&#xc8;" d="M184 0l176 1436h1002l-23 -181h-800l-54 -432h772l-22 -178h-772l-57 -465h835l-20 -180h-1037zM629 1843h237l162 -307h-127z" />
<glyph unicode="&#xc9;" d="M184 0l176 1436h1002l-23 -181h-800l-54 -432h772l-22 -178h-772l-57 -465h835l-20 -180h-1037zM709 1536l237 307h260l-346 -307h-151z" />
<glyph unicode="&#xca;" d="M184 0l176 1436h1002l-23 -181h-800l-54 -432h772l-22 -178h-772l-57 -465h835l-20 -180h-1037zM573 1534l238 311h197l159 -311h-133l-129 180l-172 -180h-160z" />
<glyph unicode="&#xcb;" d="M184 0l176 1436h1002l-23 -181h-800l-54 -432h772l-22 -178h-772l-57 -465h835l-20 -180h-1037zM612 1575l27 219h223l-26 -219h-224zM928 1575l26 219h222l-27 -219h-221z" />
<glyph unicode="&#xcc;" horiz-adv-x="581" d="M205 0l176 1436h201l-176 -1436h-201zM229 1843h238l162 -307h-127z" />
<glyph unicode="&#xcd;" horiz-adv-x="581" d="M205 0l176 1436h201l-176 -1436h-201zM322 1536l235 307h262l-346 -307h-151z" />
<glyph unicode="&#xce;" horiz-adv-x="581" d="M180 1534l238 311h196l160 -311h-133l-129 180l-172 -180h-160zM205 0l176 1436h201l-176 -1436h-201z" />
<glyph unicode="&#xcf;" horiz-adv-x="581" d="M205 0l176 1436h201l-176 -1436h-201zM219 1561l27 221h221l-27 -221h-221zM532 1561l27 221h223l-26 -221h-224z" />
<glyph unicode="&#xd0;" horiz-adv-x="1441" d="M129 657l18 152h134l77 627h555q268 0 403.5 -196t94.5 -527q-41 -334 -217 -523.5t-449 -189.5h-563l80 657h-133zM406 180h321q203 0 328 140.5t157 406.5q63 528 -344 528h-329l-56 -446h332l-18 -152h-332z" />
<glyph unicode="&#xd1;" horiz-adv-x="1441" d="M158 0l176 1436h207l587 -1141l142 1141h190l-176 -1436h-215l-584 1130l-137 -1130h-190zM608 1579q63 219 201 219q47 0 135 -37q76 -35 117 -35q47 0 76 72h137q-61 -221 -209 -221q-47 0 -162 47q-61 27 -92 27q-37 0 -68 -72h-135z" />
<glyph unicode="&#xd2;" horiz-adv-x="1521" d="M215 727q41 340 236.5 536.5t488.5 196.5q342 0 492 -266q111 -193 71 -494q-39 -332 -237.5 -528.5t-491.5 -196.5t-446.5 206t-112.5 546zM440 721q-29 -217 29 -379q37 -92 121 -143.5t198 -51.5q195 0 329 155t167 417q33 276 -57 422.5t-293 146.5 q-195 0 -328 -152.5t-166 -414.5zM698 1843h230l164 -307h-123z" />
<glyph unicode="&#xd3;" horiz-adv-x="1521" d="M215 727q41 340 236.5 536.5t488.5 196.5q342 0 492 -266q111 -193 71 -494q-39 -332 -237.5 -528.5t-491.5 -196.5t-446.5 206t-112.5 546zM440 721q-29 -217 29 -379q37 -92 121 -143.5t198 -51.5q195 0 329 155t167 417q33 276 -57 422.5t-293 146.5 q-195 0 -328 -152.5t-166 -414.5zM817 1536l238 307h254l-346 -307h-146z" />
<glyph unicode="&#xd4;" horiz-adv-x="1521" d="M215 727q41 340 236.5 536.5t488.5 196.5q342 0 492 -266q111 -193 71 -494q-39 -332 -237.5 -528.5t-491.5 -196.5t-446.5 206t-112.5 546zM440 721q-29 -217 29 -379q37 -92 121 -143.5t198 -51.5q195 0 329 155t167 417q33 276 -57 422.5t-293 146.5 q-195 0 -328 -152.5t-166 -414.5zM651 1534l238 311h186l162 -311h-127l-129 184l-176 -184h-154z" />
<glyph unicode="&#xd5;" horiz-adv-x="1521" d="M215 727q41 340 236.5 536.5t488.5 196.5q342 0 492 -266q111 -193 71 -494q-39 -332 -237.5 -528.5t-491.5 -196.5t-446.5 206t-112.5 546zM440 721q-29 -217 29 -379q37 -92 121 -143.5t198 -51.5q195 0 329 155t167 417q33 276 -57 422.5t-293 146.5 q-195 0 -328 -152.5t-166 -414.5zM647 1579q63 219 195 219q49 0 135 -37q74 -35 115 -35q57 0 84 72h124q-53 -221 -198 -221q-47 0 -162 47q-61 27 -92 27q-18 0 -39 -20.5t-33 -51.5h-129z" />
<glyph unicode="&#xd6;" horiz-adv-x="1521" d="M215 727q41 340 236.5 536.5t488.5 196.5q342 0 492 -266q111 -193 71 -494q-39 -332 -237.5 -528.5t-491.5 -196.5t-446.5 206t-112.5 546zM440 721q-29 -217 29 -379q37 -92 121 -143.5t198 -51.5q195 0 329 155t167 417q33 276 -57 422.5t-293 146.5 q-195 0 -328 -152.5t-166 -414.5zM698 1575l27 219h213l-27 -219h-213zM1012 1575l26 219h215l-26 -219h-215z" />
<glyph unicode="&#xd7;" horiz-adv-x="1175" d="M211 180l319 285l-247 283l116 104l250 -283l320 285l102 -119l-319 -282l252 -285l-121 -107l-250 287l-320 -285z" />
<glyph unicode="&#xd8;" horiz-adv-x="1560" d="M193 45l126 141q-150 203 -110 543q41 340 237.5 535.5t493.5 195.5q238 0 383 -125l121 135l88 -77l-129 -146q152 -197 108 -536q-41 -338 -238.5 -537t-492.5 -199q-236 0 -381 123l-118 -133zM434 719q-29 -229 29 -369l733 838q-88 100 -260 100q-201 0 -335 -152.5 t-167 -416.5zM526 248q88 -100 262 -101q199 0 333 156t167 424q27 217 -31 354z" />
<glyph unicode="&#xd9;" horiz-adv-x="1441" d="M229 436l123 1000h201l-125 -1008q-16 -141 64.5 -217t246.5 -76t272.5 81t123.5 220l122 1000h201l-125 -1008q-27 -217 -190.5 -345t-413.5 -128t-388.5 133t-111.5 348zM655 1843h238l164 -307h-129z" />
<glyph unicode="&#xda;" horiz-adv-x="1441" d="M229 436l123 1000h201l-125 -1008q-16 -141 64.5 -217t246.5 -76t272.5 81t123.5 220l122 1000h201l-125 -1008q-27 -217 -189.5 -345t-414.5 -128q-250 0 -388.5 133t-111.5 348zM750 1536l235 307h262l-346 -307h-151z" />
<glyph unicode="&#xdb;" horiz-adv-x="1441" d="M229 436l123 1000h201l-125 -1008q-16 -141 64.5 -217t246.5 -76t272.5 81t123.5 220l122 1000h201l-125 -1008q-27 -217 -190.5 -345t-413.5 -128t-388.5 133t-111.5 348zM612 1534l238 311h197l159 -311h-133l-129 180l-172 -180h-160z" />
<glyph unicode="&#xdc;" horiz-adv-x="1441" d="M229 436l123 1000h201l-125 -1008q-16 -141 64.5 -217t246.5 -76t272.5 81t123.5 220l122 1000h201l-125 -1008q-27 -217 -190.5 -345t-413.5 -128t-388.5 133t-111.5 348zM653 1575l27 219h221l-27 -219h-221zM967 1575l26 219h224l-27 -219h-223z" />
<glyph unicode="&#xdd;" d="M211 1436h238l323 -678l481 678h250l-653 -881l-68 -555h-200l69 571zM709 1536l235 307h262l-346 -307h-151z" />
<glyph unicode="&#xde;" horiz-adv-x="1355" d="M188 0l177 1436h200l-28 -234h411q203 0 311.5 -116.5t83.5 -311.5q-23 -180 -148.5 -293.5t-303.5 -113.5h-459l-43 -367h-201zM455 547h383q123 0 200.5 64.5t91.5 179.5q29 233 -225 233h-391z" />
<glyph unicode="&#xdf;" horiz-adv-x="1187" d="M246 0l125 1028q20 168 133 258q133 102 311 103q170 0 267.5 -102.5t76.5 -260.5q-23 -199 -217 -266q231 -84 199 -344q-25 -209 -153 -331t-324 -122q-29 0 -99 6l21 168h76q115 0 199.5 79t99.5 202q23 190 -130 225q-57 12 -174 12l21 174h27q104 0 182 57.5 t88 145.5t-38 138.5t-142 50.5q-100 0 -169 -56.5t-81 -150.5l-123 -1014h-176z" />
<glyph unicode="&#xe0;" horiz-adv-x="1107" d="M137 291q31 258 359 307q78 10 346 20l6 64q14 117 -24 165t-144 48q-197 0 -223 -178h-209q35 164 133 236.5t283 72.5q213 0 313 -100q90 -92 65 -287l-38 -311q-20 -178 -15 -328h-196q-10 82 -9 131q-72 -82 -145.5 -118t-179.5 -36q-160 0 -249 87.5t-73 226.5z M344 289q-10 -74 37 -119t133 -45q158 0 242 125q49 76 63 190l6 49h-57q-201 0 -297 -45q-113 -46 -127 -155zM438 1409h226l155 -299h-117z" />
<glyph unicode="&#xe1;" horiz-adv-x="1107" d="M137 291q31 258 359 307q78 10 346 20l6 64q14 117 -24 165t-144 48q-197 0 -223 -178h-209q35 164 133 236.5t283 72.5q213 0 313 -100q90 -92 65 -287l-38 -311q-20 -178 -15 -328h-196q-10 82 -9 131q-72 -82 -145.5 -118t-179.5 -36q-160 0 -249 87.5t-73 226.5z M344 289q-10 -74 37 -119t133 -45q158 0 242 125q49 76 63 190l6 49h-57q-201 0 -297 -45q-113 -46 -127 -155zM551 1110l229 299h248l-336 -299h-141z" />
<glyph unicode="&#xe2;" horiz-adv-x="1107" d="M137 291q31 258 359 307q78 10 346 20l6 64q14 117 -24 165t-144 48q-197 0 -223 -178h-209q35 164 133 236.5t283 72.5q213 0 313 -100q90 -92 65 -287l-38 -311q-20 -178 -15 -328h-196q-10 82 -9 131q-72 -82 -145.5 -118t-179.5 -36q-160 0 -249 87.5t-73 226.5z M344 289q-10 -74 37 -119t133 -45q158 0 242 125q49 76 63 190l6 49h-57q-201 0 -297 -45q-113 -46 -127 -155zM418 1108l229 303h180l158 -303h-125l-125 178l-168 -178h-149z" />
<glyph unicode="&#xe3;" horiz-adv-x="1107" d="M137 291q31 258 359 307q78 10 346 20l6 64q14 117 -24 165t-144 48q-197 0 -223 -178h-209q35 164 133 236.5t283 72.5q213 0 313 -100q90 -92 65 -287l-38 -311q-20 -178 -15 -328h-196q-10 82 -9 131q-72 -82 -145.5 -118t-179.5 -36q-160 0 -249 87.5t-73 226.5z M344 289q-10 -74 37 -119t133 -45q158 0 242 125q49 76 63 190l6 49h-57q-201 0 -297 -45q-113 -46 -127 -155zM422 1151q59 215 188 215q49 0 129 -37q76 -31 113 -31q53 0 80 68h125q-57 -215 -195 -215q-41 0 -157 45q-57 25 -89 25q-43 0 -69 -70h-125z" />
<glyph unicode="&#xe4;" horiz-adv-x="1107" d="M137 291q31 258 359 307q78 10 346 20l6 64q14 117 -24 165t-144 48q-197 0 -223 -178h-209q35 164 133 236.5t283 72.5q213 0 313 -100q90 -92 65 -287l-38 -311q-20 -178 -15 -328h-196q-10 82 -9 131q-72 -82 -145.5 -118t-179.5 -36q-160 0 -249 87.5t-73 226.5z M344 289q-10 -74 37 -119t133 -45q158 0 242 125q49 76 63 190l6 49h-57q-201 0 -297 -45q-113 -46 -127 -155zM451 1149l26 213h209l-27 -213h-208zM756 1149l26 213h207l-26 -213h-207z" />
<glyph unicode="&#xe5;" horiz-adv-x="1107" d="M137 291q31 258 359 307q78 10 346 20l6 64q14 117 -24 165t-144 48q-197 0 -223 -178h-209q35 164 133 236.5t283 72.5q213 0 313 -100q90 -92 65 -287l-38 -311q-20 -178 -15 -328h-196q-10 82 -9 131q-72 -82 -145.5 -118t-179.5 -36q-160 0 -249 87.5t-73 226.5z M344 289q-10 -74 37 -119t133 -45q158 0 242 125q49 76 63 190l6 49h-57q-201 0 -297 -45q-113 -46 -127 -155zM559 1268q8 70 62.5 119t123.5 49q72 0 118 -54.5t38 -128.5q-8 -72 -62.5 -120t-124 -48t-116.5 55.5t-39 127.5zM653 1255.5q-4 -28.5 12.5 -47t49.5 -18.5 q31 0 58.5 23.5t31.5 52.5q10 66 -62 65q-31 0 -58.5 -23.5t-31.5 -52z" />
<glyph unicode="&#xe6;" horiz-adv-x="1748" d="M115 291q23 182 178 256q72 37 150.5 49t232.5 14h139q18 154 2 197q-31 88 -166 88q-186 0 -223 -174h-203q25 98 53.5 147.5t83.5 85.5q98 72 269 72q160 0 256 -65q59 -45 80 -99q131 164 372 164q209 0 305.5 -136t63.5 -390q0 -27 -8 -45h-709q-4 -94 17 -164 q27 -90 74.5 -128t140.5 -38q197 0 262 209h190q-27 -92 -56.5 -145.5t-78.5 -100.5q-127 -111 -323 -111q-270 0 -361 228q-139 -227 -414 -228q-162 0 -252.5 88.5t-74.5 225.5zM317 281q-8 -70 39 -113t131 -43q78 0 149 41t107 108q41 74 56 199l-97 2q-184 0 -266 -37 q-105 -51 -119 -157zM1016 606h510q6 90 -10 142q-12 61 -64.5 96t-130.5 35q-115 0 -194.5 -73t-110.5 -200z" />
<glyph unicode="&#xe7;" horiz-adv-x="1107" d="M162 510q29 231 180.5 373.5t370.5 142.5q102 0 189 -38t132 -103q59 -84 51 -221h-182q-6 78 -26 131q-41 84 -179 84q-135 0 -222 -101.5t-109 -283.5q-47 -369 231 -369q109 0 171 52t91 167h191q-31 -113 -59.5 -167t-80.5 -95q-121 -104 -331 -105 q-219 0 -333 144.5t-85 388.5zM324 -424l274 346h135l-209 -346h-200z" />
<glyph unicode="&#xe8;" horiz-adv-x="1107" d="M162 506q29 244 170 382t358 138q207 0 304.5 -139t66.5 -393q0 -10 -4 -39h-703q-14 -119 21 -209q49 -121 198 -121q205 0 263 211h190q-86 -358 -463 -359q-211 0 -320.5 144.5t-80.5 384.5zM377 606h502q23 272 -203 273q-111 0 -190.5 -75t-108.5 -198zM428 1409 h223l158 -299h-117z" />
<glyph unicode="&#xe9;" horiz-adv-x="1107" d="M162 506q29 244 170 382t358 138q207 0 304.5 -139t66.5 -393q0 -10 -4 -39h-703q-14 -119 21 -209q49 -121 198 -121q205 0 263 211h190q-86 -358 -463 -359q-211 0 -320.5 144.5t-80.5 384.5zM377 606h502q23 272 -203 273q-111 0 -190.5 -75t-108.5 -198zM545 1110 l229 299h250l-338 -299h-141z" />
<glyph unicode="&#xea;" horiz-adv-x="1107" d="M162 506q29 244 170 382t358 138q207 0 304.5 -139t66.5 -393q0 -10 -4 -39h-703q-14 -119 21 -209q49 -121 198 -121q205 0 263 211h190q-86 -358 -463 -359q-211 0 -320.5 144.5t-80.5 384.5zM377 606h502q23 272 -203 273q-111 0 -190.5 -75t-108.5 -198zM406 1108 l229 303h182l156 -303h-123l-127 178l-168 -178h-149z" />
<glyph unicode="&#xeb;" horiz-adv-x="1107" d="M162 506q29 244 170 382t358 138q207 0 304.5 -139t66.5 -393q0 -10 -4 -39h-703q-14 -119 21 -209q49 -121 198 -121q205 0 263 211h190q-86 -358 -463 -359q-211 0 -320.5 144.5t-80.5 384.5zM377 606h502q23 272 -203 273q-111 0 -190.5 -75t-108.5 -198zM459 1149 l26 213h207l-26 -213h-207zM764 1149l27 213h206l-26 -213h-207z" />
<glyph unicode="&#xec;" horiz-adv-x="563" d="M164 1409h231l156 -299h-123zM186 0l123 1004h176l-123 -1004h-176z" />
<glyph unicode="&#xed;" horiz-adv-x="563" d="M186 0l123 1004h176l-123 -1004h-176zM254 1110l227 299h256l-338 -299h-145z" />
<glyph unicode="&#xee;" horiz-adv-x="563" d="M119 1108l229 303h191l153 -303h-127l-127 174l-166 -174h-153zM186 0l123 1004h176l-123 -1004h-176z" />
<glyph unicode="&#xef;" horiz-adv-x="563" d="M156 1137l24 213h215l-24 -213h-215zM186 0l123 1004h176l-123 -1004h-176zM459 1137l24 213h215l-24 -213h-215z" />
<glyph unicode="&#xf0;" horiz-adv-x="1183" d="M168 510q31 246 175 382t376 136q70 0 143 -20q-20 47 -77.5 109.5t-118.5 103.5l-316 -148l-41 117l219 104q-74 27 -252 56l72 110q225 -29 354 -86l310 150l41 -117l-217 -100q174 -115 254.5 -327t48.5 -476q-29 -231 -150 -359q-74 -78 -181.5 -123t-215.5 -45 q-106 0 -204.5 46.5t-151.5 121.5q-95 140 -68 365zM375 500q-43 -375 223 -375q133 0 223 105.5t113 287.5q43 362 -232 363q-131 0 -217.5 -100.5t-109.5 -280.5z" />
<glyph unicode="&#xf1;" horiz-adv-x="1103" d="M141 0l123 1004h166l-14 -117q49 70 136 107.5t187 37.5q154 0 241 -88t67 -256l-84 -688h-177l82 676q12 111 -27.5 154.5t-131.5 43.5q-133 0 -220.5 -89t-105.5 -238l-66 -547h-176zM387 1151q59 215 191 215q51 0 131 -37q76 -31 108 -31q51 0 78 68h133 q-33 -113 -80 -164t-119 -51q-45 0 -159 45q-57 25 -86 25q-39 0 -66 -70h-131z" />
<glyph unicode="&#xf2;" horiz-adv-x="1183" d="M166 506q29 244 172 382t367 138q227 0 342.5 -143.5t85.5 -388.5q-29 -236 -177.5 -376.5t-367.5 -140.5q-221 0 -336 144.5t-86 384.5zM373 500q-43 -375 221 -375q133 0 222 105.5t112 287.5q43 360 -230 361q-131 0 -216.5 -100.5t-108.5 -278.5zM471 1409h223 l156 -299h-117z" />
<glyph unicode="&#xf3;" horiz-adv-x="1183" d="M166 506q29 244 172 382t367 138q227 0 342.5 -143.5t85.5 -388.5q-29 -236 -177.5 -376.5t-367.5 -140.5q-221 0 -336 144.5t-86 384.5zM373 500q-43 -375 221 -375q133 0 222 105.5t112 287.5q43 360 -230 361q-131 0 -216.5 -100.5t-108.5 -278.5zM561 1110l230 299 h247l-336 -299h-141z" />
<glyph unicode="&#xf4;" horiz-adv-x="1183" d="M166 506q29 244 172 382t367 138q227 0 342.5 -143.5t85.5 -388.5q-29 -236 -177.5 -376.5t-367.5 -140.5q-221 0 -336 144.5t-86 384.5zM373 500q-43 -375 221 -375q133 0 222 105.5t112 287.5q43 360 -230 361q-131 0 -216.5 -100.5t-108.5 -278.5zM430 1108l229 303 h181l157 -303h-125l-124 178l-168 -178h-150z" />
<glyph unicode="&#xf5;" horiz-adv-x="1183" d="M166 506q29 244 172 382t367 138q227 0 342.5 -143.5t85.5 -388.5q-29 -236 -177.5 -376.5t-367.5 -140.5q-221 0 -336 144.5t-86 384.5zM373 500q-43 -375 221 -375q133 0 222 105.5t112 287.5q43 360 -230 361q-131 0 -216.5 -100.5t-108.5 -278.5zM422 1151 q59 215 188 215q49 0 129 -37q76 -31 113 -31q53 0 80 68h125q-33 -113 -79 -164t-116 -51q-41 0 -157 45q-57 25 -89 25q-18 0 -38.5 -20.5t-30.5 -49.5h-125z" />
<glyph unicode="&#xf6;" horiz-adv-x="1183" d="M166 506q29 244 172 382t367 138q227 0 342.5 -143.5t85.5 -388.5q-29 -236 -177.5 -376.5t-367.5 -140.5q-221 0 -336 144.5t-86 384.5zM373 500q-43 -375 221 -375q133 0 222 105.5t112 287.5q43 360 -230 361q-131 0 -216.5 -100.5t-108.5 -278.5zM475 1149l27 213 h209l-27 -213h-209zM780 1149l27 213h207l-27 -213h-207z" />
<glyph unicode="&#xf7;" horiz-adv-x="1175" d="M154 391l18 156h961l-19 -156h-960zM475 0l27 223h223l-27 -223h-223zM561 715l29 221h223l-29 -221h-223z" />
<glyph unicode="&#xf8;" horiz-adv-x="1183" d="M102 61l115 105q-78 133 -51 342q29 242 172 380t364 138q207 0 326 -123l117 107l59 -70l-121 -111q74 -125 47 -333q-29 -238 -175 -378.5t-365 -140.5q-195 0 -316 117l-112 -102zM373 307l522 475q-49 96 -195 97q-133 0 -219 -99.5t-108 -281.5q-14 -113 0 -191z M408 215q53 -90 184 -90q133 0 222 105.5t112 289.5q12 100 0 164z" />
<glyph unicode="&#xf9;" horiz-adv-x="1103" d="M178 301l86 703h176l-86 -691q-12 -111 28 -154.5t132 -43.5q133 0 220 89t106 238l69 562h176l-122 -1004h-166l12 102q-51 -70 -138 -107.5t-188 -37.5q-154 0 -239.5 88t-65.5 256zM438 1409h232l155 -299h-123z" />
<glyph unicode="&#xfa;" horiz-adv-x="1103" d="M178 301l86 703h176l-86 -691q-12 -111 28 -154.5t132 -43.5q133 0 220 89t106 238l69 562h176l-122 -1004h-166l12 102q-51 -70 -138 -107.5t-188 -37.5q-154 0 -239.5 88t-65.5 256zM526 1110l230 299h256l-338 -299h-148z" />
<glyph unicode="&#xfb;" horiz-adv-x="1103" d="M178 301l86 703h176l-86 -691q-12 -111 28 -154.5t132 -43.5q133 0 220 89t106 238l69 562h176l-122 -1004h-166l12 102q-51 -70 -138 -107.5t-188 -37.5q-154 0 -239.5 88t-65.5 256zM397 1108l230 303h190l156 -303h-129l-127 174l-164 -174h-156z" />
<glyph unicode="&#xfc;" horiz-adv-x="1103" d="M178 301l86 703h176l-86 -691q-12 -111 28 -154.5t132 -43.5q133 0 220 89t106 238l69 562h176l-122 -1004h-166l12 102q-51 -70 -138 -107.5t-188 -37.5q-154 0 -239.5 88t-65.5 256zM434 1149l27 213h215l-27 -213h-215zM739 1149l27 213h215l-27 -213h-215z" />
<glyph unicode="&#xfd;" horiz-adv-x="978" d="M63 -377l19 154q57 -12 84 -13q90 0 135 99l78 151l-211 990h186l152 -746l354 746h197l-594 -1213q-59 -113 -127 -156q-70 -45 -152 -45q-64 0 -121 33zM459 1110l229 299h256l-338 -299h-147z" />
<glyph unicode="&#xfe;" horiz-adv-x="1183" d="M111 -356l221 1792h200l-71 -582q123 172 340 172q188 0 279 -146.5t61 -396.5q-29 -240 -149 -373t-304 -133q-223 0 -311 193l-66 -526h-200zM414 500q-20 -174 39 -274.5t186 -100.5q119 0 196.5 99.5t100.5 275.5q47 379 -201 379q-123 0 -212 -104.5t-109 -274.5z " />
<glyph unicode="&#xff;" horiz-adv-x="978" d="M63 -377l19 154q57 -12 84 -13q90 0 135 99l78 151l-211 990h186l152 -746l354 746h197l-594 -1213q-59 -113 -127 -156q-70 -45 -152 -45q-64 0 -121 33zM362 1149l27 213h215l-26 -213h-216zM666 1149l26 213h215l-26 -213h-215z" />
<glyph unicode="&#x152;" horiz-adv-x="2052" d="M217 729q41 336 247 529.5t519 193.5q80 0 211 -16h891l-23 -179h-669l-52 -415h578l-23 -178h-577l-59 -486h692l-21 -178h-897q-123 -16 -217 -16q-315 0 -478 202.5t-122 542.5zM440 717q-68 -561 408 -561q70 0 194 22l134 1084q-115 18 -191 18 q-229 0 -369.5 -146.5t-175.5 -416.5z" />
<glyph unicode="&#x153;" horiz-adv-x="1861" d="M156 502q29 246 172 385t364 139q117 0 200 -38t155 -124q84 86 174 124t211 38q207 0 307 -136t71 -374l-6 -61h-706q-8 -127 20 -207q57 -123 201 -123q207 0 266 215h191q-39 -176 -160 -269.5t-303 -93.5q-231 0 -342 166q-180 -166 -397.5 -166t-332 144.5 t-85.5 380.5zM354 498q-43 -373 226 -373q133 0 224 103.5t111 281.5q45 369 -227 369q-137 0 -224 -99.5t-110 -281.5zM1118 606h506q8 100 -14 166q-43 106 -189 107q-135 0 -227 -113q-58 -78 -76 -160z" />
<glyph unicode="&#x178;" d="M209 1436h237l326 -678l481 678h250l-653 -881l-68 -555h-200l69 571zM606 1575l27 219h223l-27 -219h-223zM922 1575l26 219h221l-26 -219h-221z" />
<glyph unicode="&#x2c6;" horiz-adv-x="665" d="M168 1108l229 303h191l155 -303h-127l-129 174l-163 -174h-156z" />
<glyph unicode="&#x2dc;" horiz-adv-x="665" d="M158 1151q59 215 190 215q51 0 131 -37q76 -31 111 -31q51 0 76 68h133q-59 -215 -197 -215q-49 0 -160 45q-57 25 -86 25q-43 0 -65 -70h-133z" />
<glyph unicode="&#x2000;" horiz-adv-x="933" />
<glyph unicode="&#x2001;" horiz-adv-x="1869" />
<glyph unicode="&#x2002;" horiz-adv-x="933" />
<glyph unicode="&#x2003;" horiz-adv-x="1869" />
<glyph unicode="&#x2004;" horiz-adv-x="622" />
<glyph unicode="&#x2005;" horiz-adv-x="466" />
<glyph unicode="&#x2006;" horiz-adv-x="311" />
<glyph unicode="&#x2007;" horiz-adv-x="311" />
<glyph unicode="&#x2008;" horiz-adv-x="233" />
<glyph unicode="&#x2009;" horiz-adv-x="372" />
<glyph unicode="&#x200a;" horiz-adv-x="102" />
<glyph unicode="&#x2011;" horiz-adv-x="688" d="M156 465l20 162h481l-20 -162h-481z" />
<glyph unicode="&#x2012;" horiz-adv-x="688" d="M156 465l20 162h481l-20 -162h-481z" />
<glyph unicode="&#x2013;" horiz-adv-x="1120" d="M55 465l21 162h1120l-20 -162h-1121z" />
<glyph unicode="&#x2014;" horiz-adv-x="1982" d="M47 465l21 162h1982l-20 -162h-1983z" />
<glyph unicode="&#x2018;" horiz-adv-x="471" d="M250 926l26 211q29 246 232 260l-10 -94q-98 -14 -115 -154h94l-26 -223h-201z" />
<glyph unicode="&#x2019;" horiz-adv-x="471" d="M254 965l12 94q98 14 111 153h-92l28 224h201l-27 -211q-30 -246 -233 -260z" />
<glyph unicode="&#x201a;" horiz-adv-x="471" d="M104 -248l11 92q102 14 114 156h-92l27 223h201l-27 -211q-31 -248 -234 -260z" />
<glyph unicode="&#x201c;" horiz-adv-x="688" d="M215 926l27 211q29 246 233 260l-10 -94q-98 -14 -115 -154h94l-26 -223h-203zM522 926l27 211q29 246 231 260l-10 -94q-96 -14 -113 -154h93l-27 -223h-201z" />
<glyph unicode="&#x201d;" horiz-adv-x="688" d="M217 926l12 94q96 14 113 154h-94l26 223h203l-24 -211q-31 -246 -236 -260zM528 926l13 94q96 14 112 154h-94l27 223h200l-24 -211q-31 -246 -234 -260z" />
<glyph unicode="&#x201e;" horiz-adv-x="688" d="M72 -248l10 92q96 14 113 156h-93l27 223h201l-27 -211q-30 -248 -231 -260zM381 -248l10 92q98 14 115 156h-94l26 223h201l-27 -211q-30 -248 -231 -260z" />
<glyph unicode="&#x2022;" horiz-adv-x="720" d="M190 686q12 102 92 175t184.5 73t172.5 -79t55 -185q-12 -100 -93 -171t-183 -71q-104 0 -173 78t-55 180z" />
<glyph unicode="&#x2026;" horiz-adv-x="1982" d="M233 0l27 223h223l-26 -223h-224zM881 0l26 223h221l-26 -223h-221zM1526 0l26 223h224l-27 -223h-223z" />
<glyph unicode="&#x202f;" horiz-adv-x="372" />
<glyph unicode="&#x2039;" horiz-adv-x="665" d="M233 438l21 174l338 246l-25 -192l-213 -152l176 -152l-20 -167z" />
<glyph unicode="&#x203a;" horiz-adv-x="665" d="M190 182l25 193l215 151l-178 152l20 168l281 -244l-23 -174z" />
<glyph unicode="&#x205f;" horiz-adv-x="466" />
<glyph unicode="&#x20ac;" horiz-adv-x="1296" d="M57 557l39 123h131q4 53 19 104h-160l39 123h147q170 545 629 545q207 0 323.5 -90t125.5 -258h-201q-18 193 -252 192q-152 0 -250 -94t-162 -295h617l-39 -123h-608q-2 -14 -17 -104h600l-39 -123h-565q0 -422 309 -422q193 0 265 189h211q-100 -344 -488 -344 q-256 0 -389 150.5t-125 426.5h-160z" />
<glyph unicode="&#x2122;" horiz-adv-x="1982" d="M293 1309l16 127h748l-17 -127h-297l-90 -742h-151l90 742h-299zM1030 567l107 869h198l166 -682l330 682h197l-107 -869h-149l73 607l-293 -607h-151l-144 621l-75 -621h-152z" />
<glyph unicode="&#xe000;" horiz-adv-x="1004" d="M0 1005h1005v-1005h-1005v1005z" />
<glyph unicode="&#xfb01;" horiz-adv-x="978" d="M137 856l19 148h131l18 161q14 109 83 169.5t179 60.5q45 0 105 -15l-17 -145q-39 2 -63 2q-100 0 -113 -94l-16 -139h164l-19 -148h-164l-104 -856h-176l104 856h-131zM672 0l123 1004h176l-123 -1004h-176zM815 1171l27 218h176l-27 -218h-176z" />
<glyph unicode="&#xfb02;" horiz-adv-x="978" d="M147 856l19 148h131l18 161q14 109 83 169.5t177 60.5q47 0 105 -15l-16 -145q-37 2 -64 2q-98 0 -111 -94l-16 -139h162l-19 -148h-161l-105 -856h-176l105 856h-132zM662 0l176 1436h176l-176 -1436h-176z" />
<glyph unicode="&#xfb03;" horiz-adv-x="1583" d="M1261 0l123 1004h176l-123 -1004h-176zM1402 1171l27 218h178l-26 -218h-179zM710 856l19 148h133l18 161q14 109 83 169.5t178 60.5q47 0 104 -15l-16 -145q-37 2 -64 2q-98 0 -110 -94l-17 -139h162l-19 -148h-161l-105 -856h-176l105 856h-134zM147 856l19 148h133 l18 161q14 109 83 169.5t178 60.5q47 0 104 -15l-16 -145q-37 2 -64 2q-98 0 -110 -94l-17 -139h162l-19 -148h-161l-105 -856h-176l105 856h-134z" />
<glyph unicode="&#xfb04;" horiz-adv-x="1583" d="M1263 0l176 1436h179l-177 -1436h-178zM710 856l19 148h133l18 161q14 109 83 169.5t178 60.5q47 0 104 -15l-16 -145q-37 2 -64 2q-98 0 -110 -94l-17 -139h162l-19 -148h-161l-105 -856h-176l105 856h-134zM147 856l19 148h133l18 161q14 109 83 169.5t178 60.5 q47 0 104 -15l-16 -145q-37 2 -64 2q-98 0 -110 -94l-17 -139h162l-19 -148h-161l-105 -856h-176l105 856h-134z" />
</font>
</defs>
</svg>
